<?xml version="1.0" standalone="no"?>
<!DOCTYPE svg PUBLIC "-//W3C//DTD SVG 1.1//EN" "http://www.w3.org/Graphics/SVG/1.1/DTD/svg11.dtd" >
<svg>
<metadata>
Created by FontForge 20090914 at Mon Aug  6 06:26:14 2012
 By www-data
(c) 1999 Nick Curtis. All Rights Reserved. Generated by Fontographer 3.52. 
</metadata>
<defs>
<font id="FashionVictim" horiz-adv-x="500" >
  <font-face 
    font-family="FashionVictim"
    font-weight="400"
    font-stretch="normal"
    units-per-em="1000"
    panose-1="0 0 0 0 0 0 0 0 0 0"
    ascent="800"
    descent="-200"
    x-height="309"
    cap-height="714"
    bbox="-59 -204 1034 954"
    underline-thickness="50"
    underline-position="-55"
    unicode-range="U+0020-U+F002"
  />
<missing-glyph 
 />
    <glyph glyph-name=".notdef" 
 />
    <glyph glyph-name="space" unicode=" " 
 />
    <glyph glyph-name="space" unicode="&#xa0;" 
 />
    <glyph glyph-name="exclam" unicode="!" horiz-adv-x="188" 
d="M130 93c0 -9.33301 -3.66699 -17.666 -11 -24.999s-15.666 -11 -24.999 -11c-10 0 -18.667 3.66699 -26 11s-11 15.666 -11 24.999c0 10 3.66699 18.667 11 26s16 11 26 11c9.33301 0 17.666 -3.66699 24.999 -11s11 -16 11 -26v0zM179 646l-63 -449h-44l-63 449h170v0z
" />
    <glyph glyph-name="quotedbl" unicode="&#x22;" 
 />
    <glyph glyph-name="numbersign" unicode="#" 
 />
    <glyph glyph-name="dollar" unicode="$" horiz-adv-x="325" 
d="M310 344l-33.9932 -24.999c-4.66699 17.333 -17.334 31.833 -38.001 43.5s-44.334 17.5 -71.001 17.5c-30.667 0 -57 -7.16699 -79 -21.5s-33 -31.833 -33 -52.5c0 -22.667 8.66699 -39.667 26 -51s41.666 -20 72.999 -26c28 -4.66699 50 -13.834 66 -27.501
s24 -29.167 24 -46.5c0 -16.667 -6.33301 -31.167 -19 -43.5s-28.667 -20.5 -48 -24.5v-85h-44v83c-10 1.33301 -19.167 4.16602 -27.5 8.49902s-15.5 9.5 -21.5 15.5c1.33301 1.33301 2.66602 2.5 3.99902 3.5s2.66602 2.16699 3.99902 3.5
c1.33301 0.666992 2.33301 1.33398 3 2.00098l2 2c3.33301 3.33301 6.66602 6.33301 9.99902 9s6.33301 5.33398 9 8.00098c4 -4 9.16699 -7 15.5 -9s13.5 -3 21.5 -3c13.333 0 24.333 2.83301 33 8.5s13 12.834 13 21.501c0 7.33301 -4.5 14 -13.5 20
s-22.833 10.667 -41.5 14c-40.667 7.33301 -72.334 20.166 -95.001 38.499s-34 44.5 -34 78.5c0 27.333 11.167 51.666 33.5 72.999s50.5 35 84.5 41v135h44v-132c30 -1.33301 57.167 -9.5 81.5 -24.5s41.5 -33.167 51.5 -54.5v0z" />
    <glyph glyph-name="percent" unicode="%" 
 />
    <glyph glyph-name="ampersand" unicode="&#x26;" horiz-adv-x="731" 
d="M698 320c-0.666992 -32.667 -12.4951 -60.3281 -35.4951 -82.9951s-50.833 -34 -83.5 -34h-81c-4.66699 -58.667 -29.334 -108.167 -74.001 -148.5s-97.667 -60.5 -159 -60.5c-64 0 -118.667 22.333 -164 67s-68 98.667 -68 162c0 45.333 12.667 86.666 38 123.999
s57.666 65.333 96.999 84c-26 13.333 -46.833 31.5 -62.5 54.5s-23.5 48.167 -23.5 75.5c0 41.333 17.667 77 53 107s77.666 45 126.999 45c24.667 0 47.667 -4 69 -12s40 -18.667 56 -32l-26 -30c-12.667 10.667 -27.5 19 -44.5 25s-35.167 9 -54.5 9
c-6.66699 0 -13.5 -0.5 -20.5 -1.5s-13.833 -2.16699 -20.5 -3.5v-214c6.66699 -1.33301 13.5 -2.5 20.5 -3.5s13.833 -1.5 20.5 -1.5h9.5h8.5v-40h-32c-7.33301 -0.666992 -14.666 -1.83398 -21.999 -3.50098s-14.666 -3.83398 -21.999 -6.50098v-352
c9.33301 -3.33301 19.166 -6 29.499 -8s20.833 -3 31.5 -3c49.333 0 92 16.167 128 48.5s56.667 71.833 62 118.5h-134v42h134c0 2.66699 -0.333008 5.16699 -1 7.5s-1.33398 4.83301 -2.00098 7.5c-1.33301 5.33301 -2.83301 10.5 -4.5 15.5s-3.5 9.83301 -5.5 14.5l40 17
c3.33301 -7.33301 6.16602 -14.833 8.49902 -22.5s4.16602 -15.5 5.49902 -23.5c0.666992 -2.66699 1.16699 -5.33398 1.5 -8.00098s0.5 -5.33398 0.5 -8.00098h81c21.333 0 39 7.5 53 22.5s21.333 32.5 22 52.5h44v0z" />
    <glyph glyph-name="quotesingle" unicode="'" 
 />
    <glyph glyph-name="parenleft" unicode="(" horiz-adv-x="200" 
d="M200 -204c-50 6.66699 -87.999 36.498 -113.999 89.498s-45 110.5 -57 172.5c-8.66699 47.333 -14.167 92.333 -16.5 135s-3.5 75.667 -3.5 99c0 24 1 58.167 3 102.5s7 90.5 15 138.5c11.333 64 29.833 123.167 55.5 177.5s63.834 85.5 114.501 93.5v-63
c-31.333 -8.66699 -56 -36 -74 -82s-31.333 -95.667 -40 -149c-8 -45.333 -13.167 -88.666 -15.5 -129.999s-3.5 -70.666 -3.5 -87.999c0 -16 1.16699 -44 3.5 -84s7.16602 -82 14.499 -126c9.33301 -52.667 23.166 -101.167 41.499 -145.5s43.833 -69.5 76.5 -75.5v-65v0z
" />
    <glyph glyph-name="parenright" unicode=")" horiz-adv-x="200" 
d="M203 292c0 -23.333 -1.16602 -56.3311 -3.49902 -98.998s-7.83301 -87.667 -16.5 -135c-12 -62 -31 -119.5 -57 -172.5s-64 -82.5 -114 -88.5v63c32.667 6.66699 58.167 32.167 76.5 76.5s32.166 92.833 41.499 145.5c7.33301 44 12.166 86 14.499 126s3.5 68 3.5 84
c0 17.333 -1.16699 46.666 -3.5 87.999s-7.5 84.666 -15.5 129.999c-8.66699 53.333 -22 103 -40 149s-42.667 73.333 -74 82v63c50.667 -8 88.834 -39.167 114.501 -93.5s44.167 -113.5 55.5 -177.5c8 -48 13 -94.167 15 -138.5s3 -78.5 3 -102.5v0z" />
    <glyph glyph-name="asterisk" unicode="*" horiz-adv-x="304" 
d="M290 585c0 -10.667 -3.83496 -20 -11.502 -28s-17.167 -12 -28.5 -12c-4.66699 0 -9.16699 1.5 -13.5 4.5l-13.5 9.5c-4 3.33301 -8.16699 6.5 -12.5 9.5s-8.5 4.5 -12.5 4.5h-25l12 -21c2 -4 5.16699 -7 9.5 -9l13.5 -6c0.666992 0 1.33398 -0.166992 2.00098 -0.5
s1.33398 -0.5 2.00098 -0.5c7.33301 -2.66699 14 -6.33398 20 -11.001s9 -13 9 -25c0 -11.333 -3.83301 -20.833 -11.5 -28.5s-17.167 -11.5 -28.5 -11.5c-9.33301 0 -18 3.16699 -26 9.5s-12 14.5 -12 24.5c0 2.66699 0.166992 5.33398 0.5 8.00098
s0.833008 5.33398 1.5 8.00098s1.16699 5.33398 1.5 8.00098s0.5 5.33398 0.5 8.00098c0 4.66699 -0.833008 9 -2.5 13s-3.5 7.66699 -5.5 11l-2 4c-0.666992 1.33301 -1.66699 2.66602 -3 3.99902c0 0.666992 -0.166992 1.33398 -0.5 2.00098
s-0.833008 1.33398 -1.5 2.00098c-0.666992 -1.33301 -1.5 -2.83301 -2.5 -4.5s-1.83301 -3.16699 -2.5 -4.5c0 -0.666992 -0.166992 -1.16699 -0.5 -1.5l-1.5 -1.5c-2 -4 -3.83301 -7.83301 -5.5 -11.5s-2.5 -7.83398 -2.5 -12.501
c0 -2.66699 0.166992 -5.33398 0.5 -8.00098s0.833008 -5.33398 1.5 -8.00098c0 -3.33301 0.166992 -6.33301 0.5 -9s0.5 -5.33398 0.5 -8.00098c0 -11.333 -4.16699 -19.5 -12.5 -24.5s-17.5 -7.83301 -27.5 -8.5h-1.5h-1.5c-9.33301 0 -16.833 3.66699 -22.5 11
s-9.16699 15.333 -10.5 24c-0.666992 1.33301 -1 3 -1 5v5c0 9.33301 3 16 9 20s12.667 7.33301 20 10h1h1c4.66699 2 9.33398 4.16699 14.001 6.5s8.33398 5.5 11.001 9.5l12 22h-25c-3.33301 0 -6.5 -0.833008 -9.5 -2.5l-9.5 -5.5
c-1.33301 -1.33301 -2.5 -2.33301 -3.5 -3s-2.16699 -1.66699 -3.5 -3c-4 -3.33301 -8.5 -6.5 -13.5 -9.5s-11.167 -4.5 -18.5 -4.5s-14 3 -20 9s-10 12.667 -12 20c-0.666992 2 -1.16699 3.83301 -1.5 5.5s-0.5 3.5 -0.5 5.5c0 10.667 4 20 12 28s17.333 12 28 12
c4 0 7.16699 -0.666992 9.5 -2s4.83301 -3 7.5 -5c1.33301 -0.666992 2.66602 -1.66699 3.99902 -3s3 -2.66602 5 -3.99902c4.66699 -3.33301 10.667 -6.5 18 -9.5s18.333 -4.5 33 -4.5l-13 22c-2 4 -5.16699 7 -9.5 9l-13.5 6h-1.5c-0.333008 0 -0.833008 0.333008 -1.5 1
c-7.33301 2.66699 -14 6.16699 -20 10.5s-9 12.5 -9 24.5c0 11.333 4 20.833 12 28.5s17.333 11.5 28 11.5h1.5h1.5c8.66699 -0.666992 16.5 -4.16699 23.5 -10.5s10.5 -14.166 10.5 -23.499c0 -2.66699 -0.166992 -5.33398 -0.5 -8.00098s-0.5 -5.33398 -0.5 -8.00098
c-0.666992 -2.66699 -1.16699 -5.33398 -1.5 -8.00098s-0.5 -5.33398 -0.5 -8.00098c0 -4.66699 0.666992 -8.66699 2 -12s3 -6.66602 5 -9.99902c0.666992 -1.33301 1.5 -2.83301 2.5 -4.5s2.16699 -3.16699 3.5 -4.5c0 -0.666992 0.166992 -1.33398 0.5 -2.00098
s0.833008 -1.33398 1.5 -2.00098c1.33301 2 2.66602 4.16699 3.99902 6.5s2.66602 4.5 3.99902 6.5l4 10c1.33301 3.33301 2 7.33301 2 12c0 2.66699 -0.166992 5.33398 -0.5 8.00098s-0.5 5.33398 -0.5 8.00098c-0.666992 2.66699 -1.16699 5.33398 -1.5 8.00098
s-0.5 5.33398 -0.5 8.00098c0 9.33301 3.5 17.166 10.5 23.499s14.833 9.83301 23.5 10.5h1.5h1.5c11.333 0 20.833 -3.83301 28.5 -11.5s11.5 -17.167 11.5 -28.5s-3 -19.333 -9 -24s-12.667 -8.66699 -20 -12c-0.666992 0 -1.5 -0.166992 -2.5 -0.5
s-1.83301 -0.5 -2.5 -0.5c-4.66699 -2 -8.83398 -4 -12.501 -6s-6.5 -4.66699 -8.5 -8l-13 -22h26c4 0 7.83301 1.16699 11.5 3.5s7.16699 4.83301 10.5 7.5c0.666992 0.666992 1.33398 1.16699 2.00098 1.5s1.33398 0.833008 2.00098 1.5c4 3.33301 8.16699 6.5 12.5 9.5
s8.83301 4.5 13.5 4.5c10.667 0 20 -4 28 -12s12 -17.333 12 -28v0z" />
    <glyph glyph-name="plus" unicode="+" horiz-adv-x="400" 
d="M365 353h-146v-145h-44v145h-145v44h145v146h44v-146h146v-44v0z" />
    <glyph glyph-name="comma" unicode="," horiz-adv-x="143" 
d="M120 144c0 -20 -4.00293 -38.0068 -12.0029 -54.0068s-20 -30.667 -36 -44c-2.66699 -2.66699 -5.5 -4.5 -8.5 -5.5s-5.83301 -1.16699 -8.5 -0.5c-4.66699 0 -8.66699 1.83301 -12 5.5s-4.66602 7.83398 -3.99902 12.501c0 3.33301 0.666992 6.33301 2 9
s3.33301 5.33398 6 8.00098c0.666992 0.666992 1.33398 1.5 2.00098 2.5s1.33398 1.83301 2.00098 2.5s1.16699 1.33398 1.5 2.00098s0.5 1.33398 0.5 2.00098c1.33301 1.33301 2.5 2.83301 3.5 4.5s1.83301 2.83398 2.5 3.50098c-12 2.66699 -22.167 8.83398 -30.5 18.501
s-12.5 20.834 -12.5 33.501c0 14 5.16699 26.167 15.5 36.5s22.5 15.5 36.5 15.5c14.667 0 27 -5.16699 37 -15.5s15 -22.5 15 -36.5v0z" />
    <glyph glyph-name="hyphen" unicode="-" horiz-adv-x="200" 
d="M166 353h-144v44h144v-44v0z" />
    <glyph glyph-name="period" unicode="." horiz-adv-x="184" 
d="M144 144c0 -14.667 -5 -27 -15 -37s-22.333 -15 -37 -15c-14 0 -26.167 5 -36.5 15s-15.5 22.333 -15.5 37s5.16699 27 15.5 37s22.5 15 36.5 15c14.667 0 27 -5 37 -15s15 -22.333 15 -37v0z" />
    <glyph glyph-name="slash" unicode="/" horiz-adv-x="300" 
d="M349 815l-330 -980h-78l330 980h78v0z" />
    <glyph glyph-name="zero" unicode="0" horiz-adv-x="373" 
d="M356 239c0 -46.667 -16.5 -86.5 -49.5 -119.5s-73.167 -49.5 -120.5 -49.5c-46.667 0 -86.5 16.5 -119.5 49.5s-49.5 72.833 -49.5 119.5c0 47.333 16.5 87.5 49.5 120.5s72.833 49.5 119.5 49.5c47.333 0 87.5 -16.5 120.5 -49.5s49.5 -73.167 49.5 -120.5v0zM310 239
c0 34 -12.167 63.167 -36.5 87.5s-53.5 36.5 -87.5 36.5s-63 -12.167 -87 -36.5s-36 -53.5 -36 -87.5c0 -33.333 12 -62.166 36 -86.499s53 -36.5 87 -36.5s63.167 12.167 87.5 36.5s36.5 53.166 36.5 86.499v0z" />
    <glyph glyph-name="one" unicode="1" horiz-adv-x="96" 
d="M75 76h-44v329h44v-329v0z" />
    <glyph glyph-name="two" unicode="2" horiz-adv-x="271" 
d="M259 302c0 -6.66699 -0.50293 -13.001 -1.50293 -19.001s-2.83301 -12 -5.5 -18c-0.666992 -2 -1.5 -4 -2.5 -6s-2.16699 -4 -3.5 -6l-111 -133h101v-44h-156v44l130 155l2 4c0.666992 1.33301 1.33398 3 2.00098 5c0.666992 2.66699 1.33398 5.5 2.00098 8.5
s1 6.16699 1 9.5c0 18 -8 33.833 -24 47.5s-35.333 20.5 -58 20.5c-20 0 -37.5 -5.83301 -52.5 -17.5s-24.167 -26.167 -27.5 -43.5h-43c2.66699 28 15.834 51.833 39.501 71.5s51.5 29.5 83.5 29.5c34.667 0 64 -10.667 88 -32s36 -46.666 36 -75.999v0z" />
    <glyph glyph-name="three" unicode="3" horiz-adv-x="283" 
d="M270 178c0 -30 -13.499 -55.501 -40.499 -76.501s-59.5 -31.5 -97.5 -31.5c-25.333 0 -48.5 4.83301 -69.5 14.5s-37.5 22.5 -49.5 38.5l26 36c5.33301 -14.667 16.666 -26.334 33.999 -35.001s37 -13 59 -13c26.667 0 49.167 6.5 67.5 19.5s27.5 28.833 27.5 47.5
c0 19.333 -9.16699 35.333 -27.5 48s-40.833 19 -67.5 19c-4 0 -8 -0.166992 -12 -0.5s-7.66699 -0.833008 -11 -1.5l-31 29l85 93h-132v44h191v-45l-73 -79c34 -3.33301 62.667 -15.166 86 -35.499s35 -44.166 35 -71.499v0z" />
    <glyph glyph-name="four" unicode="4" horiz-adv-x="359" 
d="M342 120h-73v-110h-44v110h-183l-26 44l139 250l38 -20l-127 -230h159v175h44v-175h73v-44v0z" />
    <glyph glyph-name="five" unicode="5" horiz-adv-x="257" 
d="M245 189c0 -32.667 -12.833 -60.668 -38.5 -84.001s-57.167 -35 -94.5 -35c-18.667 0 -36.167 3.16699 -52.5 9.5s-30.5 15.166 -42.5 26.499l31 32c8 -7.33301 17.5 -13.166 28.5 -17.499s22.833 -6.5 35.5 -6.5c24.667 0 45.667 7.33301 63 22s26 32.334 26 53.001
c0 21.333 -8.66699 39.333 -26 54s-38.333 22 -63 22c-12 0 -23 -1.83301 -33 -5.5s-19 -8.83398 -27 -15.501l-40 19l17 146h196v-44h-157l-7 -67c7.33301 3.33301 15.5 6 24.5 8s17.833 3 26.5 3c37.333 0 68.833 -11.667 94.5 -35s38.5 -51.666 38.5 -84.999v0z" />
    <glyph glyph-name="six" unicode="6" horiz-adv-x="374" 
d="M317 129c-16.667 -20 -36.498 -35 -59.498 -45s-46.833 -15 -71.5 -15h-6.5h-6.5c-16.667 1.33301 -33.167 5.33301 -49.5 12s-31.5 15.667 -45.5 27c-20 17.333 -35.167 37.333 -45.5 60s-15.5 46.334 -15.5 71.001c0 19.333 3.5 38.5 10.5 57.5
s16.833 36.167 29.5 51.5l182 219l33 -28l-110 -133c2 0 4.16699 0.166992 6.5 0.5s4.5 0.5 6.5 0.5c2 0.666992 4.16699 1 6.5 1h6.5c19.333 0 38.166 -3.33301 56.499 -10s35.5 -16.667 51.5 -30c18.667 -15.333 33.167 -33.833 43.5 -55.5s16.166 -43.834 17.499 -66.501
v-4v-4c0 -19.333 -3.33301 -38.333 -10 -57s-16.667 -36 -30 -52v0zM283.002 157c10 12 17.5 25 22.5 39s7.5 28.333 7.5 43c0 18 -3.83301 35.5 -11.5 52.5s-18.834 31.5 -33.501 43.5c-10 8.66699 -20.667 15.334 -32 20.001s-23 7.66699 -35 9
c-2 0.666992 -4.16699 1 -6.5 1h-7.5c-18 0 -35.5 -3.83301 -52.5 -11.5s-31.833 -18.834 -44.5 -33.501c-9.33301 -11.333 -16.5 -24 -21.5 -38s-7.5 -28.333 -7.5 -43c0 -18 3.83301 -35.5 11.5 -52.5s18.834 -31.833 33.501 -44.5c10 -8 20.667 -14.333 32 -19
s23 -7.66699 35 -9c2 -0.666992 4.33301 -1 7 -1h7c18 0 35.5 3.66699 52.5 11s31.5 18.333 43.5 33v0z" />
    <glyph glyph-name="seven" unicode="7" horiz-adv-x="233" 
d="M223 365l-163 -353l-39 18l153 335h-163v44h183l29 -44v0z" />
    <glyph glyph-name="eight" unicode="8" horiz-adv-x="364" 
d="M347 208c0 -38 -16.1699 -70.5 -48.5029 -97.5s-71.166 -40.5 -116.499 -40.5s-84.166 13.5 -116.499 40.5s-48.5 59.5 -48.5 97.5c0 26 8.16699 49.833 24.5 71.5s37.833 38.167 64.5 49.5c-12.667 10 -23 21.833 -31 35.5s-12 28.167 -12 43.5
c0 28.667 11.667 53 35 73s51.333 30 84 30c32 0 59.667 -10 83 -30s35 -44.333 35 -73c0 -15.333 -3.66699 -30 -11 -44s-17.666 -25.667 -30.999 -35c26 -11.333 47.333 -27.833 64 -49.5s25 -45.5 25 -71.5v0zM302.997 208c0 26 -11.833 48.5 -35.5 67.5
s-52.167 28.5 -85.5 28.5s-62 -9.5 -86 -28.5s-36 -41.5 -36 -67.5c0 -26.667 12 -49.5 36 -68.5s52.667 -28.5 86 -28.5s61.833 9.5 85.5 28.5s35.5 41.833 35.5 68.5v0zM255.997 408c0 17.333 -7.33301 32 -22 44s-32 18 -52 18c-20.667 0 -38.167 -6 -52.5 -18
s-21.5 -26.667 -21.5 -44c0 -16.667 7.16699 -31.167 21.5 -43.5s31.833 -18.5 52.5 -18.5c20 0 37.333 6.16699 52 18.5s22 26.833 22 43.5v0z" />
    <glyph glyph-name="nine" unicode="9" horiz-adv-x="374" 
d="M317 141l-182 -219.001l-34 28l110 133c-4 -0.666992 -8.16699 -1.16699 -12.5 -1.5s-8.83301 -0.5 -13.5 -0.5c-18.667 0 -37.334 3.33301 -56.001 10s-36 16.667 -52 30c-18.667 15.333 -33 33.833 -43 55.5s-15.667 43.834 -17 66.501v4v4
c0 19.333 3.33301 38.333 10 57s16.334 36 29.001 52c17.333 20 37.5 35 60.5 45s46.833 15 71.5 15h6.5h6.5c16.667 -1.33301 33.167 -5.33301 49.5 -12s31.5 -15.667 45.5 -27c20 -16.667 35.167 -36.5 45.5 -59.5s15.5 -46.833 15.5 -71.5
c0 -19.333 -3.33301 -38.5 -10 -57.5s-16.667 -36.167 -30 -51.5v0zM284 168.999c9.33301 11.333 16.499 23.9971 21.499 37.9971s7.5 28.333 7.5 43c0 18 -3.83301 35.5 -11.5 52.5s-19.167 31.833 -34.5 44.5c-11.333 10 -24 17.333 -38 22s-28.333 7 -43 7h-4.5h-4.5
c-16 -1.33301 -31.667 -5.66602 -47 -12.999s-28.666 -17.666 -39.999 -30.999c-10 -12 -17.333 -25 -22 -39s-7 -28.333 -7 -43c0 -18 3.66699 -35.5 11 -52.5s18.333 -31.5 33 -43.5c12 -10 25 -17.5 39 -22.5s28.333 -7.5 43 -7.5c18 0 35.5 3.83301 52.5 11.5
s31.833 18.834 44.5 33.501v0z" />
    <glyph glyph-name="colon" unicode=":" horiz-adv-x="136" 
d="M114 144c0 -14.667 -5 -27 -15 -37s-22.333 -15 -37 -15c-14 0 -26.167 5 -36.5 15s-15.5 22.333 -15.5 37s5.16699 27 15.5 37s22.5 15 36.5 15c14.667 0 27 -5 37 -15s15 -22.333 15 -37v0zM114 304c0 -14.667 -5 -27 -15 -37s-22.333 -15 -37 -15
c-14 0 -26.167 5 -36.5 15s-15.5 22.333 -15.5 37s5.16699 27 15.5 37s22.5 15 36.5 15c14.667 0 27 -5 37 -15s15 -22.333 15 -37v0z" />
    <glyph glyph-name="semicolon" unicode=";" horiz-adv-x="136" 
d="M110 144c0 -20 -4.00293 -38.0068 -12.0029 -54.0068s-20 -30.667 -36 -44c-2.66699 -2.66699 -5.5 -4.5 -8.5 -5.5s-5.83301 -1.16699 -8.5 -0.5c-4.66699 0 -8.66699 1.83301 -12 5.5s-4.66602 7.83398 -3.99902 12.501c0 3.33301 0.666992 6.33301 2 9
s3.33301 5.33398 6 8.00098c0.666992 0.666992 1.33398 1.5 2.00098 2.5s1.33398 1.83301 2.00098 2.5s1.16699 1.33398 1.5 2.00098s0.5 1.33398 0.5 2.00098c1.33301 1.33301 2.5 2.83301 3.5 4.5s1.83301 2.83398 2.5 3.50098c-12 2.66699 -22.167 8.83398 -30.5 18.501
s-12.5 20.834 -12.5 33.501c0 14 5.16699 26.167 15.5 36.5s22.5 15.5 36.5 15.5c14.667 0 27 -5.16699 37 -15.5s15 -22.5 15 -36.5v0zM113.997 303.993c0 -14.667 -5 -27 -15 -37s-22.333 -15 -37 -15c-14 0 -26.167 5 -36.5 15s-15.5 22.333 -15.5 37s5.16699 27 15.5 37
s22.5 15 36.5 15c14.667 0 27 -5 37 -15s15 -22.333 15 -37v0z" />
    <glyph glyph-name="less" unicode="&#x3c;" 
 />
    <glyph glyph-name="equal" unicode="=" horiz-adv-x="411" 
d="M381 267h-334v45h334v-45v0zM381 369h-334v45h334v-45v0z" />
    <glyph glyph-name="greater" unicode="&#x3e;" 
 />
    <glyph glyph-name="question" unicode="?" horiz-adv-x="282" 
d="M158 93c0 -9.33301 -3.5 -17.666 -10.5 -24.999s-15.5 -11 -25.5 -11s-18.5 3.66699 -25.5 11s-10.5 15.666 -10.5 24.999c0 10 3.5 18.667 10.5 26s15.5 11 25.5 11s18.5 -3.66699 25.5 -11s10.5 -16 10.5 -26v0zM225 600c15.333 -14.667 26.5 -30.6689 33.5 -48.002
s10.5 -35.333 10.5 -54c0 -19.333 -3.83301 -38.166 -11.5 -56.499s-18.834 -35.166 -33.501 -50.499l-55 -55c-8.66699 -6.66699 -15.5 -15.167 -20.5 -25.5s-7.5 -21.166 -7.5 -32.499v-81h-43v81c0 17.333 3.83301 33.666 11.5 48.999s17.834 28 30.501 38l14 14v213
c-5.33301 2 -10.833 3.33301 -16.5 4s-11.5 1 -17.5 1h-4.5h-4.5c-12 -1.33301 -23.833 -4.5 -35.5 -9.5s-21.834 -12.167 -30.501 -21.5l-32 32c14.667 15.333 31.334 26.833 50.001 34.5s37.667 11.5 57 11.5s38 -3.66699 56 -11s34.333 -18.333 49 -33v0z" />
    <glyph glyph-name="at" unicode="@" horiz-adv-x="725" 
d="M489 656l-188.993 -557.003c-7.33301 -22 -20.5 -39.667 -39.5 -53s-39.5 -20 -61.5 -20c-4.66699 0 -9.16699 0.333008 -13.5 1s-8.83301 1.66699 -13.5 3c-3.33301 1.33301 -6.16602 3.33301 -8.49902 6s-3.5 5.66699 -3.5 9v1.5v1.5
c1.33301 3.33301 3.16602 6 5.49902 8s4.83301 3 7.5 3c1.33301 -0.666992 2.16602 -1 2.49902 -1h1.5c3.33301 -0.666992 6.5 -1.16699 9.5 -1.5s5.83301 -0.5 8.5 -0.5c17.333 0 33.166 5 47.499 15s24.166 23.333 29.499 40l170 499
c-6.66699 -2.66699 -13.5 -4.66699 -20.5 -6s-14.167 -2 -21.5 -2h-2.5c-1 0 -2.16699 0.333008 -3.5 1h-2.5h-3.5c-21.333 3.33301 -41 7.83301 -59 13.5s-35 11.5 -51 17.5c-2 0.666992 -4 1.5 -6 2.5s-4 1.83301 -6 2.5l-29.5 11.5
c-9.66699 3.66699 -19.5 6.83398 -29.5 9.50098c-7.33301 2 -14.833 3.66699 -22.5 5s-15.5 2 -23.5 2c-4.66699 0 -11.334 -0.333008 -20.001 -1s-17.667 -2.66699 -27 -6c-10 -3.33301 -19.5 -8.33301 -28.5 -15s-15.5 -16.334 -19.5 -29.001
c-0.666992 -2 -1.16699 -3.83301 -1.5 -5.5s-0.5 -3.5 -0.5 -5.5c-0.666992 -2 -1 -3.83301 -1 -5.5v-5.5c0 -6 0.666992 -11.667 2 -17s3.33301 -10.666 6 -15.999c4 -6.66699 9.16699 -12.5 15.5 -17.5s13.166 -8.5 20.499 -10.5
c3.33301 -1.33301 6.16602 -3.5 8.49902 -6.5s3.5 -6.16699 3.5 -9.5v-1.5v-1.5c-0.666992 -2.66699 -2.33398 -5.16699 -5.00098 -7.5s-5.66699 -3.16602 -9 -2.49902h-1.5h-1.5c-12 3.33301 -22.833 8.83301 -32.5 16.5s-17.834 16.834 -24.501 27.501
c-4 7.33301 -7 15 -9 23s-3 16.333 -3 25c0 2.66699 0.166992 5.33398 0.5 8.00098s0.5 5.33398 0.5 8.00098c0.666992 2 1.33398 4.33301 2.00098 7l2 8c8 22.667 22.667 40.167 44 52.5s47 17.833 77 16.5c16 -0.666992 31.167 -2.66699 45.5 -6
s28.5 -7.66602 42.5 -12.999c4.66699 -2 9.33398 -3.83301 14.001 -5.5s9.33398 -3.5 14.001 -5.5l6 -2c2 -0.666992 3.66699 -1.33398 5 -2.00098c15.333 -6 31.5 -11.667 48.5 -17s35.5 -9.33301 55.5 -12c2 -0.666992 4 -1 6 -1h5c13.333 0 25.666 3 36.999 9
s19 14.667 23 26c1.33301 3.33301 3.16602 5.66602 5.49902 6.99902s4.83301 2 7.5 2h3.5c1 0 1.83301 -0.333008 2.5 -1c3.33301 -0.666992 5.83301 -2.33398 7.5 -5.00098s2.5 -5.66699 2.5 -9v-1.5v-0.5c0 -0.666992 -0.166992 -1.16699 -0.5 -1.5
s-0.5 -0.833008 -0.5 -1.5v0zM600.007 656.997c0 -4 -1.33105 -7.33008 -3.99805 -9.99707s-6 -4 -10 -4c-2 0 -3.83301 -0.166992 -5.5 -0.5s-3.5 -0.833008 -5.5 -1.5c-7.33301 -2.66699 -14 -6.83398 -20 -12.501s-10.333 -11.834 -13 -18.501l-115 -339
c2 1.33301 3.83301 2.66602 5.5 3.99902s3.5 2.66602 5.5 3.99902c8.66699 6.66699 17.167 11.667 25.5 15s16.166 5 23.499 5c6 0 11.667 -1.16699 17 -3.5s9.66602 -6.16602 12.999 -11.499c4 -5.33301 6.66699 -11.333 8 -18s2 -13.667 2 -21v-6c0 -2 -0.333008 -4 -1 -6
c-0.666992 -8 -1.66699 -15.667 -3 -23s-3 -14.333 -5 -21l-4 -11.5c-1.33301 -3.66699 -2.33301 -6.5 -3 -8.5c-0.666992 -2.66699 -2 -4.66699 -4 -6s-4 -2.33301 -6 -3h-1.5h-1.5h-2.5c-1 0 -2.16699 0.333008 -3.5 1c-2.66699 1.33301 -5 3.5 -7 6.5s-3 5.83301 -3 8.5
v2.5c0 1 0.333008 1.83301 1 2.5c5.33301 14 9.16602 26.833 11.499 38.5s3.5 21.5 3.5 29.5c0 4.66699 -0.333008 8.5 -1 11.5s-1.66699 5.5 -3 7.5c-0.666992 0.666992 -1.33398 1.16699 -2.00098 1.5s-1.66699 0.5 -3 0.5c-5.33301 0 -12 -2.16699 -20 -6.5
s-16.333 -10.5 -25 -18.5c-9.33301 -8.66699 -18.333 -18.667 -27 -30s-15.667 -23.666 -21 -36.999l-3 -9c-0.666992 -2.66699 -2.16699 -4.83398 -4.5 -6.50098s-5.16602 -2.5 -8.49902 -2.5h-2.5c-1 0 -2.16699 0.333008 -3.5 1c-3.33301 1.33301 -6 3.5 -8 6.5
s-3 6.16699 -3 9.5c0.666992 0.666992 1 1.16699 1 1.5v1.5c0 1.33301 0.166992 2.33301 0.5 3s0.833008 1.33398 1.5 2.00098l1.5 3c0.333008 0.666992 0.5 1.33398 0.5 2.00098l27.5 82.5l43.5 128.5l51.5 151l23.5 69c4.66699 13.333 12.834 24.666 24.501 33.999
s24.167 15 37.5 17h4h4c4 0 7.5 -1.33301 10.5 -4s4.83301 -6.33398 5.5 -11.001v0zM692.009 259l0.000976562 -1h-1v-0.5v-0.5v-0.5v-0.5v0v0c-0.666992 0 -1 -0.166992 -1 -0.5v-0.5v0v0c0 -0.666992 -0.166992 -1 -0.5 -1h-0.5v0v0c0 -0.666992 -0.166992 -1 -0.5 -1
h-0.5v0v0c0 -0.666992 -0.166992 -1 -0.5 -1h-0.5v0v0c0 -0.666992 -0.166992 -1 -0.5 -1h-0.5v0h-1l-110 -58c0.666992 -0.666992 1.16699 -1 1.5 -1h1.5c2.66699 -0.666992 5.5 -1.33398 8.5 -2.00098s5.83301 -1 8.5 -1c5.33301 0 11 1 17 3s12 4.33301 18 7
c6.66699 3.33301 12.667 7.5 18 12.5s10 10.5 14 16.5c1.33301 2 3 3.66699 5 5s4.33301 2 7 2c1.33301 0 2.66602 -0.166992 3.99902 -0.5s2.66602 -1.16602 3.99902 -2.49902c2 -1.33301 3.5 -2.83301 4.5 -4.5s1.83301 -3.5 2.5 -5.5v-2v-2
c0 -0.666992 -0.166992 -1.5 -0.5 -2.5s-0.833008 -2.16699 -1.5 -3.5c-4.66699 -8.66699 -10.5 -16.167 -17.5 -22.5s-15.167 -11.833 -24.5 -16.5c-4 -2 -8.16699 -3.83301 -12.5 -5.5s-8.5 -3.16699 -12.5 -4.5l-12.5 -2c-4.33301 -0.666992 -8.5 -1 -12.5 -1
c-4.66699 0 -9 0.333008 -13 1s-8 1.66699 -12 3c-6.66699 2.66699 -12.834 6.16699 -18.501 10.5s-10.167 9.83301 -13.5 16.5c-2 4 -3.5 8 -4.5 12s-1.5 8.33301 -1.5 13v3.5v3.5c2 12 7.33301 23.833 16 35.5s20.334 21.5 35.001 29.5c4 2 8 3.83301 12 5.5
s8.33301 2.83398 13 3.50098c4 1.33301 8 2.16602 12 2.49902s8 0.5 12 0.5c4.66699 0 9.16699 -0.333008 13.5 -1s8.5 -1.66699 12.5 -3c7.33301 -2 13.833 -5.16699 19.5 -9.5s9.83398 -9.5 12.501 -15.5v-1h1v-1v0v-0.5c0 -0.333008 0.333008 -0.5 1 -0.5v-0.5v-0.5v-1
v-0.5v-0.5v-0.5v-0.5v-1v-1v-0.5v-0.5v-0.5v-0.5v-1v0zM653.01 268l-1.5 -0.000976562c-0.333008 0 -0.5 0.333008 -0.5 1c-2.66699 1.33301 -5.16699 2 -7.5 2h-8.5c-2.66699 0 -5.66699 -0.166992 -9 -0.5s-6.33301 -0.833008 -9 -1.5
c-3.33301 -0.666992 -6.5 -1.66699 -9.5 -3s-6.16699 -2.66602 -9.5 -3.99902c-6.66699 -3.33301 -12.5 -7.5 -17.5 -12.5s-9.16699 -9.83301 -12.5 -14.5c-1.33301 -2.66699 -2.5 -5.16699 -3.5 -7.5s-1.83301 -4.83301 -2.5 -7.5l91 48v0z" />
    <glyph glyph-name="A" unicode="A" horiz-adv-x="847" 
d="M808 2h-33h1h-123l-99 200h-363l-101 -200h-52l102 200h-58v43h80l238 470h47l361 -713v0zM532 245l-158 317l-160 -317h318v0z" />
    <glyph glyph-name="B" unicode="B" horiz-adv-x="526" 
d="M502 515c0 -41.333 -11.5 -78.6699 -34.5 -112.003s-53.167 -57.666 -90.5 -72.999c25.333 -15.333 45.5 -36.166 60.5 -62.499s22.5 -55.166 22.5 -86.499c0 -49.333 -17.333 -91.5 -52 -126.5s-76.667 -52.5 -126 -52.5h-187v314h-71v42h71v357h208
c55.333 0 102.333 -19.5 141 -58.5s58 -86.167 58 -141.5v0zM418 180.996c0 37.333 -11.833 69.167 -35.5 95.5s-54.167 39.5 -91.5 39.5h-68v-272h59c39.333 0 71.833 12.833 97.5 38.5s38.5 58.5 38.5 98.5v0zM460 514.997c0 44.667 -15.167 82 -45.5 112
s-67.5 45 -111.5 45h-80v-314h80c44 0 81.167 15.167 111.5 45.5s45.5 67.5 45.5 111.5v0z" />
    <glyph glyph-name="C" unicode="C" horiz-adv-x="677" 
d="M646 106c-32.667 -32 -70.835 -57.332 -114.502 -75.999s-90.167 -28 -139.5 -28c-99.333 0 -184.333 35.333 -255 106s-106 155.667 -106 255s35.333 184.333 106 255s155.667 106 255 106c49.333 0 95.833 -9.33301 139.5 -28s81.834 -44.334 114.501 -77.001l-35 -34
c-28 28 -60.833 50.333 -98.5 67s-77.834 25 -120.501 25c-36.667 0 -71.334 -6 -104.001 -18s-62.334 -28.667 -89.001 -50v-492c26.667 -20.667 56.334 -37 89.001 -49s67.334 -18 104.001 -18c42.667 0 82.834 8.16699 120.501 24.5s70.834 38.5 99.501 66.5l34 -35v0z
" />
    <glyph glyph-name="D" unicode="D" horiz-adv-x="651" 
d="M622 358c0 -98 -34.833 -181.833 -104.5 -251.5s-153.834 -104.5 -252.501 -104.5h-235v712h235c98.667 0 182.834 -34.833 252.501 -104.5s104.5 -153.5 104.5 -251.5v0zM577 358c0 85.333 -30.5 158.667 -91.5 220s-134.5 92 -220.5 92h-90v-624h90
c86 0 159.5 30.5 220.5 91.5s91.5 134.5 91.5 220.5v0z" />
    <glyph glyph-name="E" unicode="E" horiz-adv-x="645" 
d="M616 202h-367v-156h352v-44h-488v200h-84v44h84v468h487v-43h-351v-425h367v-44v0z" />
    <glyph glyph-name="F" unicode="F" horiz-adv-x="645" 
d="M616 202h-371v-200h-88h-44v200h-84v44h84v468h487v-43h-355v-425h371v-44v0z" />
    <glyph glyph-name="G" unicode="G" horiz-adv-x="772" 
d="M737 235c-24.667 -70.667 -67.998 -128.666 -129.998 -173.999s-132.333 -68 -211 -68c-98.667 0 -183.5 35.333 -254.5 106s-106.5 155.667 -106.5 255s35.5 184.166 106.5 254.499s155.833 105.5 254.5 105.5c46.667 0 91 -8.5 133 -25.5s79 -40.5 111 -70.5l-34 -34
c-28 26 -59.833 46.333 -95.5 61s-73.834 22 -114.501 22c-35.333 0 -69 -5.66699 -101 -17s-61.333 -27 -88 -47v-499c26.667 -20 56 -35.5 88 -46.5s65.667 -16.5 101 -16.5c56.667 0 108.667 13.833 156 41.5s84.666 64.167 111.999 109.5h-361v43h434v0z" />
    <glyph glyph-name="H" unicode="H" horiz-adv-x="645" 
d="M616 2h-44v200h-356v-200h-122h-7v200h-58v43h58v469h129v-469h356v469h44v-712v0z" />
    <glyph glyph-name="I" unicode="I" horiz-adv-x="164" 
d="M136 2h-130v712h130v-712v0z" />
    <glyph glyph-name="J" unicode="J" horiz-adv-x="619" 
d="M591 293c0 -80.667 -28.5 -149.334 -85.5 -206.001s-125.5 -85 -205.5 -85c-62 0 -117.5 17.167 -166.5 51.5s-84.167 78.5 -105.5 132.5l40 21c17.333 -46.667 47 -85.167 89 -115.5s89.667 -45.5 143 -45.5c29.333 0 57 4.83301 83 14.5s49.333 22.834 70 39.501v614
h129v-1h9v-420v0z" />
    <glyph glyph-name="K" unicode="K" horiz-adv-x="543" 
d="M518 4l-48 -0.000976562c-0.666992 84.667 -31.5 157.334 -92.5 218.001s-134.167 91 -219.5 91v-311h-129v2h-4v710h4h129v-315l280 315h69l-320 -354c92 -8 170 -46 234 -114s96.333 -148.667 97 -242v0z" />
    <glyph glyph-name="L" unicode="L" horiz-adv-x="550" 
d="M525 3l-500 -1v713h137v-669h363v-43v0z" />
    <glyph glyph-name="M" unicode="M" horiz-adv-x="655" 
d="M625 2h-130v528l-207 -265l-214 270v-533h-44v714h119l219 -276l215 275h3l39 -1v-712v0z" />
    <glyph glyph-name="N" unicode="N" horiz-adv-x="657" 
d="M627 3h-113l-440 496v-497h-44v714h65l488 -549v548h44v-169.5v-171.5v-186.5v-184.5v0z" />
    <glyph glyph-name="O" unicode="O" horiz-adv-x="795" 
d="M759 361c0 -99.333 -35.5 -184.333 -106.5 -255s-156.167 -106 -255.5 -106c-98.667 -0 -183.5 35.333 -254.5 106s-106.5 155.667 -106.5 255s35.5 184.333 106.5 255s155.833 106 254.5 106c99.333 0 184.5 -35.333 255.5 -106s106.5 -155.667 106.5 -255v0zM711 361
c0 85.333 -30.833 158.833 -92.5 220.5s-135.5 92.5 -221.5 92.5c-34 0 -66.5 -5.16699 -97.5 -15.5s-59.5 -25.166 -85.5 -44.499v-507c26 -18.667 54.5 -33.334 85.5 -44.001s63.5 -16 97.5 -16c86 0 159.833 30.833 221.5 92.5s92.5 135.5 92.5 221.5v0z" />
    <glyph glyph-name="P" unicode="P" horiz-adv-x="570" 
d="M544 459c0 -71.333 -25 -132 -75 -182s-110.667 -75 -182 -75h-124v-200h-137v712h261c71.333 0 132 -25 182 -75s75 -110 75 -180v0zM501 459c0 59.333 -20.667 109.667 -62 151s-92 62 -152 62h-124v-427h124c60 0 110.667 20.667 152 62s62 92 62 152v0z" />
    <glyph glyph-name="Q" unicode="Q" horiz-adv-x="795" 
d="M759 361c0 -68.667 -17.665 -131.167 -52.998 -187.5s-81 -100.166 -137 -131.499l47 -48c7.33301 -6.66699 15.666 -11.834 24.999 -15.501s18.666 -5.16699 27.999 -4.5c9.33301 0 18.666 1.66699 27.999 5s17.333 8.33301 24 15l31 -32
c-11.333 -10.667 -24.166 -18.667 -38.499 -24s-29.166 -8 -44.499 -8c-14.667 0 -29.334 3 -44.001 9s-27.667 14.667 -39 26l-59 58c-20 -8 -40.833 -13.833 -62.5 -17.5s-44.167 -5.5 -67.5 -5.5c-98.667 -0 -183.5 35.333 -254.5 106s-106.5 155.667 -106.5 255
s35.5 184.333 106.5 255s155.833 106 254.5 106c99.333 0 184.5 -35.333 255.5 -106s106.5 -155.667 106.5 -255v0zM711.002 361c0 85.333 -30.834 158.834 -92.501 220.501s-135.5 92.5 -221.5 92.5c-34 0 -66.667 -5.33301 -98 -16s-60 -25.667 -86 -45v-505
c26 -18.667 54.667 -33.5 86 -44.5s64 -16.5 98 -16.5c16 0 31.667 1.16699 47 3.5s30.333 5.83301 45 10.5l-103 103c-6 5.33301 -12.5 9.66602 -19.5 12.999s-14.167 5.66602 -21.5 6.99902c-2 0.666992 -3.83301 1 -5.5 1h-5.5c-9.33301 0 -18.5 -1.66699 -27.5 -5
s-17.167 -8.66602 -24.5 -15.999l-30 31c11.333 11.333 24.333 19.833 39 25.5s29.334 8.5 44.001 8.5c15.333 0 30 -2.83301 44 -8.5s26.667 -14.167 38 -25.5l116 -117c52.667 25.333 95.5 63.333 128.5 114s49.5 107 49.5 169v0z" />
    <glyph glyph-name="R" unicode="R" horiz-adv-x="621" 
d="M593 7l-29 -32.001l-372 300v43h142c46.667 0 87.667 17.833 123 53.5s53 76.834 53 123.501s-17.667 87.667 -53 123s-76.333 53 -123 53h-179v-672h-127v717h306c60.667 0 112.5 -21.833 155.5 -65.5s64.5 -95.5 64.5 -155.5c0 -60.667 -21.5 -112.5 -64.5 -155.5
s-94.833 -64.5 -155.5 -64.5h-24h-48l331 -268v0z" />
    <glyph glyph-name="S" unicode="S" horiz-adv-x="620" 
d="M592 596l-33.002 -27.998c-16.667 32.667 -46.5 59.334 -89.5 80.001s-92.167 31 -147.5 31c-18 0 -35.167 -1 -51.5 -3s-32.166 -5 -47.499 -9v-292l149 -26c52 -8.66699 95.167 -26.334 129.5 -53.001s51.5 -66.667 51.5 -120c0 -50.667 -25.167 -92.667 -75.5 -126
s-111.166 -50 -182.499 -50c-46.667 0 -89.334 7.83301 -128.001 23.5s-69.667 36.5 -93 62.5l29 32c18 -22.667 44 -41.334 78 -56.001s72 -22 114 -22c59.333 0 109.833 13 151.5 39s62.5 58.333 62.5 97c0 39.333 -15 69.166 -45 89.499s-65.667 33.833 -107 40.5
l-155 25c-44 7.33301 -84 26.166 -120 56.499s-54 75.5 -54 135.5c0 56.667 28.833 103.834 86.5 141.501s126.834 56.5 207.501 56.5c60.667 0 115.167 -11.5 163.5 -34.5s83.833 -53.167 106.5 -90.5v0z" />
    <glyph glyph-name="T" unicode="T" horiz-adv-x="550" 
d="M525 671h-189v-669h-122v669h-189v44h500v-44v0z" />
    <glyph glyph-name="U" unicode="U" horiz-adv-x="641" 
d="M612 293c0 -80.667 -28.499 -149.5 -85.499 -206.5s-125.833 -85.5 -206.5 -85.5c-80 0 -148.5 28.5 -205.5 85.5s-85.5 125.833 -85.5 206.5v420h132v-609c21.333 -18 45.666 -32.167 72.999 -42.5s56 -15.5 86 -15.5c68.667 0 127 24 175 72s72 106.333 72 175v420h45
v-420v0z" />
    <glyph glyph-name="V" unicode="V" horiz-adv-x="839" 
d="M801 713l-353 -711h-53l-357 711h146l282 -568l285 568h50v0z" />
    <glyph glyph-name="W" unicode="W" horiz-adv-x="1053" 
d="M1005 714l-373 -712h-25l-80 166l-83 -166h2v-1h-51l-347 712l143 1l277 -566l34 70l-242 496h149l169 -341l167 340h48l-190 -389l78 -153l276 543h48v0z" />
    <glyph glyph-name="X" unicode="X" horiz-adv-x="821" 
d="M784 713l-327 -403l258 -309h-58l-229 274l-224 -275h-167l306 377l-282 336h58l253 -301l245 301h167v0z" />
    <glyph glyph-name="Y" unicode="Y" horiz-adv-x="749" 
d="M715 712l-267 -341v-368h-147v356l-267 356h200l202 -287l245 313l34 -29v0z" />
    <glyph glyph-name="Z" unicode="Z" horiz-adv-x="754" 
d="M717 712l-470 -668h391v-44h-607l471 669h-425v43h640v0z" />
    <glyph glyph-name="bracketleft" unicode="[" 
 />
    <glyph glyph-name="backslash" unicode="\" horiz-adv-x="300" 
d="M369 -165h-78l-330 980h78l330 -980v0z" />
    <glyph glyph-name="bracketright" unicode="]" 
 />
    <glyph glyph-name="asciicircum" unicode="^" horiz-adv-x="175" 
d="M167 616h-39l-40 66l-41 -66h-39l61 99h38l60 -99v0z" />
    <glyph glyph-name="underscore" unicode="_" horiz-adv-x="800" 
d="M818 54h-830v46h830v-46v0z" />
    <glyph glyph-name="grave" unicode="`" horiz-adv-x="104" 
d="M95 633l-27 0.000976562l-37 53c-4 5.33301 -7 10.166 -9 14.499s-3 8.16602 -3 11.499c0 6.66699 2.33301 11.834 7 15.501s10.334 5.5 17.001 5.5c9.33301 0 16.166 -1.83301 20.499 -5.5s7.83301 -10.5 10.5 -20.5l21 -74v0z" />
    <glyph glyph-name="a" unicode="a" horiz-adv-x="275" 
d="M262 76l-42.9971 -0.000976562v101c-4 -8 -8.33301 -15.333 -13 -22s-9.33398 -12.667 -14.001 -18c-8 -9.33301 -15.667 -17 -23 -23s-13.666 -10.333 -18.999 -13c-0.666992 -0.666992 -1.33398 -1.16699 -2.00098 -1.5s-1.33398 -0.833008 -2.00098 -1.5
c-8.66699 -4.66699 -18.834 -9 -30.501 -13s-23.5 -6.33301 -35.5 -7h-3.5h-3.5c-8.66699 0 -17 1.33301 -25 4s-15.333 7.33398 -22 14.001c-4.66699 5.33301 -8.16699 11.166 -10.5 17.499s-3.5 13.166 -3.5 20.499c0 4.66699 0.5 9.66699 1.5 15
s2.16699 10.666 3.5 15.999c3.33301 12 8.16602 23.667 14.499 35s12.833 21 19.5 29l2.5 2.5l2.5 2.5c14 14.667 31.833 27.834 53.5 39.501s43.834 20.834 66.501 27.501c11.333 2.66699 22.333 4.83398 33 6.50098s21 2.5 31 2.5h22v-234v0zM213.003 267.999
c-6 0 -12.666 -1.17188 -19.999 -3.50488s-14.666 -5.16602 -21.999 -8.49902c-6.66699 -2.66699 -13.167 -5.83398 -19.5 -9.50098s-12.166 -7.5 -17.499 -11.5c-9.33301 -5.33301 -17.333 -10.666 -24 -15.999l-15 -12c-2 -2 -4.16699 -4.5 -6.5 -7.5
s-4.83301 -6.5 -7.5 -10.5c-2 -3.33301 -4.16699 -6.66602 -6.5 -9.99902s-4.5 -7 -6.5 -11c-2.66699 -5.33301 -4.83398 -10.666 -6.50098 -15.999s-2.5 -10 -2.5 -14c0 -2 0.333008 -3.83301 1 -5.5s1.33398 -3.16699 2.00098 -4.5c1.33301 -1.33301 3 -2.33301 5 -3
s4.33301 -1 7 -1c4 0 8.33301 0.666992 13 2s9.66699 3 15 5c3.33301 1.33301 6.83301 3 10.5 5s7.16699 3.66699 10.5 5c3.33301 2.66699 6.5 5 9.5 7l7.5 5c3.33301 2.66699 8.16602 7.33398 14.499 14.001s13.166 14.667 20.499 24c4.66699 6 9.16699 12.167 13.5 18.5
s8.16602 12.833 11.499 19.5c4 6.66699 7.16699 13.334 9.5 20.001s3.5 13 3.5 19v0z" />
    <glyph glyph-name="b" unicode="b" horiz-adv-x="276" 
d="M263 193c0 -32 -11.333 -59.5029 -34 -82.5029s-50.334 -34.5 -83.001 -34.5c-6.66699 0 -13.334 0.5 -20.001 1.5s-13.334 2.5 -20.001 4.5c-8.66699 2.66699 -17.167 5.83398 -25.5 9.50098s-16.5 7.83398 -24.5 12.501v-28h-43v631h43v-427
c8 5.33301 16.167 9.83301 24.5 13.5s16.833 6.83398 25.5 9.50098c6.66699 2 13.334 3.5 20.001 4.5s13.334 1.5 20.001 1.5c32.667 0 60.334 -11.333 83.001 -34s34 -50 34 -82v0zM220 192.997c0 20 -7.33301 37.1689 -22 51.502s-32 21.5 -52 21.5
c-5.33301 0 -11.166 -0.666992 -17.499 -2s-12.833 -3 -19.5 -5c-10 -4 -19.667 -8.83301 -29 -14.5s-17.333 -11.834 -24 -18.501v-67c6.66699 -6.66699 14.667 -12.834 24 -18.501s19 -10.5 29 -14.5c6.66699 -2 13.167 -3.66699 19.5 -5s12.166 -2 17.499 -2
c20 0 37.333 7.33301 52 22s22 32 22 52v0z" />
    <glyph glyph-name="c" unicode="c" horiz-adv-x="242" 
d="M231 107c-9.33301 -8.66699 -20.498 -15.665 -33.498 -20.998s-26.5 -8.33301 -40.5 -9c-2.66699 -0.666992 -5.16699 -1 -7.5 -1h-6.5h-5.5h-5.5c-30 3.33301 -57.667 16.166 -83 38.499s-38 48.5 -38 78.5s12.667 56.167 38 78.5s53 34.833 83 37.5h5.5h5.5
c4.66699 0 10.5 -0.5 17.5 -1.5s14.167 -2.5 21.5 -4.5c9.33301 -2.66699 18.166 -5.83398 26.499 -9.50098s14.5 -7.5 18.5 -11.5l-29 -35c-6.66699 4.66699 -13.667 8.66699 -21 12s-15 5.33301 -23 6c-1.33301 0.666992 -3 1 -5 1h-6
c-3.33301 0 -6.5 -0.166992 -9.5 -0.5s-6.16699 -0.833008 -9.5 -1.5c-17.333 -4 -33.333 -12.667 -48 -26s-22 -28.333 -22 -45s7.33301 -31.667 22 -45s30.667 -22.333 48 -27c3.33301 -0.666992 6.5 -1.16699 9.5 -1.5s6.16699 -0.5 9.5 -0.5
c2.66699 0 5.16699 0.166992 7.5 0.5s4.83301 0.5 7.5 0.5c6.66699 2 13.667 4.66699 21 8s13.666 7.33301 18.999 12l33 -33v0z" />
    <glyph glyph-name="d" unicode="d" horiz-adv-x="275" 
d="M262 76l-43.0029 -0.000976562v101c-4 -8 -8.5 -15.333 -13.5 -22l-14.5 -19c-7.33301 -8.66699 -14.666 -15.834 -21.999 -21.501s-13.666 -10.167 -18.999 -13.5c-8.66699 -5.33301 -19 -10.166 -31 -14.499s-24.333 -7.16602 -37 -8.49902h-4h-4
c-8.66699 0 -17.167 1.33301 -25.5 4s-15.833 7.33398 -22.5 14.001c-4.66699 5.33301 -8.16699 11.166 -10.5 17.499s-3.5 13.166 -3.5 20.499c0 4.66699 0.333008 9.5 1 14.5s2 10.167 4 15.5c3.33301 12 8.16602 23.667 14.499 35s12.833 21 19.5 29
c0.666992 1.33301 1.5 2.5 2.5 3.5l2.5 2.5c3.33301 3.33301 7.33301 7 12 11s9.66699 8 15 12c14.667 11.333 33.334 21.833 56.001 31.5s49.334 15.834 80.001 18.501v400h43v-631v0zM213.997 267.999c-6 0 -12.4971 -1.00586 -19.4971 -3.00586
s-14.167 -4.66699 -21.5 -8l-20 -10.5c-6.66699 -3.66699 -13 -7.5 -19 -11.5c-8.66699 -5.33301 -16.5 -10.666 -23.5 -15.999s-11.833 -9.33301 -14.5 -12c-2 -2 -4 -4.16699 -6 -6.5s-4 -5.16602 -6 -8.49902c-2.66699 -3.33301 -5.33398 -7.16602 -8.00098 -11.499
s-5 -8.5 -7 -12.5c-2.66699 -5.33301 -4.83398 -10.666 -6.50098 -15.999s-2.5 -10 -2.5 -14c0 -2 0.333008 -3.83301 1 -5.5s1.33398 -3.16699 2.00098 -4.5c1.33301 -1.33301 3 -2.33301 5 -3s4.33301 -1 7 -1c4 0 8.33301 0.666992 13 2s9.66699 3 15 5
c3.33301 1.33301 6.83301 3 10.5 5s6.83398 3.66699 9.50098 5l10.5 7l7.5 5c3.33301 2.66699 8.16602 7.33398 14.499 14.001s13.166 14.667 20.499 24c4.66699 6 9.16699 12.167 13.5 18.5s8.16602 12.833 11.499 19.5c4 6.66699 7.16699 13.334 9.5 20.001s3.5 13 3.5 19
v0z" />
    <glyph glyph-name="e" unicode="e" horiz-adv-x="257" 
d="M245 193c0 -4.66699 -2.00195 -8.66699 -6.00195 -12s-9 -5 -15 -5h-167c3.33301 -16 11.833 -29.5 25.5 -40.5s28.834 -16.5 45.501 -16.5c10 0 19.5 2 28.5 6s16.5 9.33301 22.5 16l31 -31c-10.667 -10.667 -23 -19 -37 -25s-29 -9 -45 -9c-32 0 -59.333 11.5 -82 34.5
s-34 50.5 -34 82.5s11.333 59.333 34 82s50 34 82 34c32.667 0 60.334 -11.333 83.001 -34s34 -50 34 -82v0zM195.998 220c-5.33301 13.333 -14.167 24.333 -26.5 33s-26.166 13 -41.499 13c-14.667 0 -28.334 -4.33301 -41.001 -13s-21.667 -19.667 -27 -33h136v0z" />
    <glyph glyph-name="f" unicode="f" horiz-adv-x="258" 
d="M247 635l-41.001 -16c-2.66699 12 -9.16699 22.5 -19.5 31.5s-22.166 13.5 -35.499 13.5c-15.333 0 -28.5 -5.66699 -39.5 -17s-16.5 -24.666 -16.5 -39.999v-298h107v-43h-108v-326h-44v326h-38v43h38v298c0 27.333 10 50.833 30 70.5s43.667 29.5 71 29.5
c22.667 0 42.667 -6.83301 60 -20.5s29.333 -30.834 36 -51.501v0z" />
    <glyph glyph-name="g" unicode="g" horiz-adv-x="274" 
d="M262 70c0 -30 -10.5029 -56.4971 -31.5029 -79.4971s-44.167 -38.167 -69.5 -45.5c-4.66699 -1.33301 -9.33398 -2.33301 -14.001 -3s-9.33398 -1 -14.001 -1c-28.667 0 -50.5 5 -65.5 15s-28.167 23 -39.5 39l35 24c7.33301 -11.333 16 -20 26 -26s25 -9 45 -9h4h4
c19.333 2.66699 37 12 53 28s24 35.333 24 58v107c-4 -8 -8.33301 -15.167 -13 -21.5l-14 -18.5c-8 -9.33301 -15.667 -17 -23 -23s-13.666 -10.333 -18.999 -13c-2 -0.666992 -3.83301 -1.5 -5.5 -2.5s-3.5 -1.83301 -5.5 -2.5c-7.33301 -4 -15.666 -7.5 -24.999 -10.5
s-18.666 -5.16699 -27.999 -6.5h-6.5h-6.5c-8.66699 0 -17 1.16699 -25 3.5s-15.333 6.83301 -22 13.5c-4.66699 5.33301 -8 11.166 -10 17.499s-3 12.833 -3 19.5c0 4.66699 0.333008 9.5 1 14.5s1.66699 9.83301 3 14.5c3.33301 12 7.83301 23.667 13.5 35
s11.834 21 18.501 29c1.33301 1.33301 2.5 2.66602 3.5 3.99902s2.16699 2.66602 3.5 3.99902c14 14 31.833 27 53.5 39s43.834 21 66.501 27c11.333 3.33301 22.333 5.83301 33 7.5s21 2.5 31 2.5h22v-240v0zM212.997 268.003c-6 0 -12.6699 -1.16895 -20.0029 -3.50195
s-14.666 -5.16602 -21.999 -8.49902c-6.66699 -2.66699 -13.167 -5.83398 -19.5 -9.50098s-12.166 -7.5 -17.499 -11.5c-9.33301 -5.33301 -17.333 -10.666 -24 -15.999l-15 -12c-2 -2 -4.16699 -4.5 -6.5 -7.5s-4.83301 -6.5 -7.5 -10.5
c-2 -3.33301 -4.16699 -6.66602 -6.5 -9.99902s-4.5 -7 -6.5 -11c-2.66699 -5.33301 -4.83398 -10.666 -6.50098 -15.999s-2.5 -10 -2.5 -14c0 -2 0.333008 -3.83301 1 -5.5s1.33398 -3.16699 2.00098 -4.5c1.33301 -1.33301 3 -2.33301 5 -3s4 -1 6 -1
c4 0 8.33301 0.666992 13 2s9.33398 3 14.001 5c3.33301 1.33301 6.66602 2.83301 9.99902 4.5l9 4.5c4.66699 2.66699 8.83398 5.16699 12.501 7.5l8.5 5.5c2.66699 2 7.33398 6.5 14.001 13.5s13.667 15.5 21 25.5c4.66699 5.33301 9.16699 11.166 13.5 17.499
s8.16602 12.5 11.499 18.5c3.33301 7.33301 6.33301 14.333 9 21s4 13 4 19v0z" />
    <glyph glyph-name="h" unicode="h" horiz-adv-x="257" 
d="M245 76l-44.001 0.00195312v145v3.5c0 1 -0.333008 2.16699 -1 3.5c-2 9.33301 -7.16699 17.666 -15.5 24.999s-18.166 11 -29.499 11c-2.66699 0 -5.16699 -0.166992 -7.5 -0.5s-4.83301 -1.16602 -7.5 -2.49902l-44 -17v-167h-44v146l-19 -8l-21 39l40 18v435h44v-416
l44 14c3.33301 1.33301 6.83301 2.16602 10.5 2.49902s7.16699 0.5 10.5 0.5c22 0 41.5 -8.83301 58.5 -26.5s25.5 -37.834 25.5 -60.501v-145v0z" />
    <glyph glyph-name="i" unicode="i" horiz-adv-x="87" 
d="M66 76h-44v233h44v-233v0zM80 465c0 -9.33301 -3.5 -17.5 -10.5 -24.5s-15.167 -10.5 -24.5 -10.5s-17.5 3.5 -24.5 10.5s-10.5 15.167 -10.5 24.5s3.5 17.5 10.5 24.5s15.167 10.5 24.5 10.5s17.5 -3.5 24.5 -10.5s10.5 -15.167 10.5 -24.5v0z" />
    <glyph glyph-name="j" unicode="j" horiz-adv-x="90" 
d="M70 40c0 -26.667 -9.83203 -49.833 -29.499 -69.5s-42.834 -29.5 -69.501 -29.5l-1 42c16 0.666992 29.333 6.5 40 17.5s16 24.167 16 39.5v269h44v-269v0zM81.001 465.001c0 -9.33301 -3.5 -17.5 -10.5 -24.5s-15.167 -10.5 -24.5 -10.5s-17.5 3.5 -24.5 10.5
s-10.5 15.167 -10.5 24.5s3.5 17.5 10.5 24.5s15.167 10.5 24.5 10.5s17.5 -3.5 24.5 -10.5s10.5 -15.167 10.5 -24.5v0z" />
    <glyph glyph-name="k" unicode="k" horiz-adv-x="289" 
d="M276 43c-4.66699 -10 -11.666 -18.001 -20.999 -24.001s-19.666 -9 -30.999 -9c-16.667 0 -30.667 5.83301 -42 17.5s-17 25.5 -17 41.5v76v2c0 0.666992 -0.333008 1.33398 -1 2.00098c-0.666992 2 -1.83398 3.83301 -3.50098 5.5s-3.5 2.83398 -5.5 3.50098
c-0.666992 0.666992 -1.33398 1 -2.00098 1h-2h-93v-83h-45v632h45v-496l163 117l26 -36l-130 -92h34c15.333 0 28.5 -5.5 39.5 -16.5s16.5 -24.167 16.5 -39.5v-76c0 -4.66699 1.66699 -8.83398 5 -12.501s7.33301 -5.5 12 -5.5c4 0 7.66699 1.66699 11 5s5 7.33301 5 12
l36 -25v0z" />
    <glyph glyph-name="l" unicode="l" horiz-adv-x="77" 
d="M56 76h-43v631h43v-631v0z" />
    <glyph glyph-name="m" unicode="m" horiz-adv-x="405" 
d="M386 77l-44.0039 0.000976562v144v2.5v2.5c-1.33301 10 -5.5 19.333 -12.5 28s-16.5 13 -28.5 13c-4 0 -10.5 -2 -19.5 -6s-18.833 -8.66699 -29.5 -14c-1.33301 -0.666992 -2.5 -1.33398 -3.5 -2.00098s-2.16699 -1.33398 -3.5 -2.00098
c-2.66699 -1.33301 -5.16699 -2.66602 -7.5 -3.99902s-4.83301 -2.66602 -7.5 -3.99902v-4c0 -1.33301 0.333008 -2.33301 1 -3v-3.5v-3.5v-145h-44v145v3.5c0 1 -0.333008 2.16699 -1 3.5c-1.33301 9.33301 -5.5 18 -12.5 26s-15.833 12 -26.5 12
c-4 0 -11.167 -2.33301 -21.5 -7s-21.166 -10.334 -32.499 -17.001c-2 -1.33301 -4 -2.5 -6 -3.5s-4 -2.16699 -6 -3.5c-3.33301 -2 -6.66602 -3.83301 -9.99902 -5.5s-6.33301 -3.5 -9 -5.5v-148h-44v233h44v-37c2 1.33301 4.33301 2.5 7 3.5s5 2.16699 7 3.5l3 1.5l3 1.5
c12.667 6.66699 24.667 12.667 36 18s19.333 8.33301 24 9c2 0.666992 4 1 6 1h5c12.667 0 24.334 -3.16699 35.001 -9.5s19.334 -14.833 26.001 -25.5c3.33301 2 7 3.83301 11 5.5s8 3.5 12 5.5c0.666992 0 1.5 0.166992 2.5 0.5s1.83301 0.833008 2.5 1.5l34 14.5
c10.667 4.33301 18 6.83301 22 7.5h2c0.666992 0 1.66699 0.333008 3 1h2h2c21.333 -0.666992 39.833 -9.66699 55.5 -27s23.5 -38.333 23.5 -63v-144v0z" />
    <glyph glyph-name="n" unicode="n" horiz-adv-x="244" 
d="M233 77l-44.002 0.000976562v144v2.5v2.5c-1.33301 10 -5.5 19.333 -12.5 28s-16.5 13 -28.5 13c-3.33301 0 -10.166 -2.5 -20.499 -7.5l-32.5 -16.5l-4 -2c-1.33301 -0.666992 -2.33301 -1.33398 -3 -2.00098l-17.5 -10l-15.5 -9v-144h-44v233h44v-41
c3.33301 2 7 4 11 6l12 6c0.666992 0.666992 1.66699 1.16699 3 1.5s2.33301 0.833008 3 1.5c12.667 6.66699 24.834 12.667 36.501 18s19.5 8.33301 23.5 9c2 0.666992 4 1 6 1h6c21.333 0 39.5 -9 54.5 -27s22.5 -39 22.5 -63v-144v0z" />
    <glyph glyph-name="o" unicode="o" horiz-adv-x="257" 
d="M245 193c0 -32 -11.333 -59.5 -34 -82.5s-50.334 -34.5 -83.001 -34.5c-32 0 -59.333 11.5 -82 34.5s-34 50.5 -34 82.5s11.333 59.333 34 82s50 34 82 34c32.667 0 60.334 -11.333 83.001 -34s34 -50 34 -82v0zM202 193c0 20 -7.33301 37.167 -22 51.5
s-32 21.5 -52 21.5s-37.167 -7.16699 -51.5 -21.5s-21.5 -31.5 -21.5 -51.5s7.16699 -37.333 21.5 -52s31.5 -22 51.5 -22s37.333 7.33301 52 22s22 32 22 52v0z" />
    <glyph glyph-name="p" unicode="p" horiz-adv-x="274" 
d="M261 193c0 -32 -11.3311 -59.501 -33.998 -82.501s-50.334 -34.5 -83.001 -34.5c-4 0 -9.33301 0.166992 -16 0.5s-13.334 0.833008 -20.001 1.5c-4 0 -8 0.333008 -12 1s-7.66699 1.33398 -11 2.00098v-141h-43v300
c-6.66699 -2.66699 -12.834 -5.33398 -18.501 -8.00098s-9.5 -4.66699 -11.5 -6v50c2.66699 1.33301 6.66699 2.83301 12 4.5s11.333 3.83398 18 6.50098v23h43v-11c12 2.66699 23.167 5 33.5 7s18.833 3 25.5 3c32.667 0 60.334 -11.333 83.001 -34s34 -50 34 -82v0z
M218.002 192.999c0 20 -7.33398 37.166 -22.001 51.499s-32 21.5 -52 21.5c-6.66699 0 -15.167 -1.16699 -25.5 -3.5s-21.5 -5.16602 -33.5 -8.49902v-125c3.33301 -1.33301 7 -2.5 11 -3.5s8 -1.83301 12 -2.5c6.66699 -1.33301 13.334 -2.33301 20.001 -3s12 -1 16 -1
c20 0 37.333 7.33301 52 22s22 32 22 52v0z" />
    <glyph glyph-name="q" unicode="q" horiz-adv-x="275" 
d="M262 -49l-42.9971 0.000976562v238c-4 -8 -8.33301 -15.333 -13 -22s-9.33398 -12.667 -14.001 -18c-8 -9.33301 -15.667 -17 -23 -23s-13.666 -10.667 -18.999 -14c-0.666992 -0.666992 -1.33398 -1.16699 -2.00098 -1.5s-1.33398 -0.833008 -2.00098 -1.5
c-8.66699 -4.66699 -18.834 -9 -30.501 -13s-23.5 -6.33301 -35.5 -7h-3.5h-3.5c-8.66699 0 -17 1.33301 -25 4s-15.333 7.33398 -22 14.001c-4.66699 5.33301 -8.16699 11.166 -10.5 17.499s-3.5 13.166 -3.5 20.499c0 4.66699 0.5 9.66699 1.5 15
s2.16699 10.666 3.5 15.999c3.33301 12 8.16602 23.667 14.499 35s12.833 21 19.5 29l2.5 2.5l2.5 2.5c14 14.667 31.833 28 53.5 40s43.834 21.333 66.501 28c11.333 2.66699 22.333 4.83398 33 6.50098s21 2.5 31 2.5h22v-371v0zM213.003 279.001
c-6 0 -12.667 -1.00098 -20 -3.00098s-14.666 -4.66699 -21.999 -8l-20 -10.5c-6.66699 -3.66699 -13 -7.5 -19 -11.5c-8.66699 -5.33301 -16.167 -10.5 -22.5 -15.5s-11.166 -9.16699 -14.499 -12.5c-2 -2 -4.16699 -4.5 -6.5 -7.5l-7.5 -9.5
c-2.66699 -3.33301 -5.16699 -7 -7.5 -11s-4.5 -8 -6.5 -12c-2.66699 -5.33301 -4.66699 -10.5 -6 -15.5s-2 -9.5 -2 -13.5c0 -2 0.333008 -3.83301 1 -5.5s1.33398 -3.16699 2.00098 -4.5c1.33301 -1.33301 3 -2.33301 5 -3s4.33301 -1 7 -1c4 0 8.33301 0.666992 13 2
s9.66699 3 15 5c3.33301 1.33301 6.83301 3 10.5 5s7.16699 3.66699 10.5 5c3.33301 2.66699 6.5 5 9.5 7l7.5 5c3.33301 2.66699 8.16602 7.33398 14.499 14.001s13.166 14.667 20.499 24l12.5 18c4.33301 6 8.16602 12.333 11.499 19c4 6.66699 7.33301 13.5 10 20.5
s4 13.5 4 19.5v0z" />
    <glyph glyph-name="r" unicode="r" horiz-adv-x="315" 
d="M300 258c0 -14.667 -4.33008 -27.5029 -12.9971 -38.5029s-19.667 -18.167 -33 -21.5l-13 41c5.33301 0.666992 9.66602 2.83398 12.999 6.50098s5 7.83398 5 12.501c0 6.66699 -2 11.667 -6 15s-9 5 -15 5c-1.33301 0 -2.5 -0.166992 -3.5 -0.5s-1.83301 -0.5 -2.5 -0.5
c-0.666992 -0.666992 -1.16699 -1 -1.5 -1h-0.5c-0.666992 -0.666992 -1.33398 -1 -2.00098 -1h-2c-0.666992 0 -5.5 -3.5 -14.5 -10.5l-29.5 -23.5c0 -0.666992 -0.166992 -1 -0.5 -1h-0.5l-21 -17.5l-16 -13.5v-122h-42v171c0 6 -1.83301 10.833 -5.5 14.5
s-8.5 5.5 -14.5 5.5c-2.66699 0 -5 -0.166992 -7 -0.5s-3.66699 -1.16602 -5 -2.49902l-35 -21l-21 35l33 21c4.66699 3.33301 10 6 16 8s12.333 3 19 3c16.667 0 30.834 -5.66699 42.501 -17s18.167 -25 19.5 -41l56 46c5.33301 3.33301 11.166 6.33301 17.499 9
s13.166 4 20.499 4c17.333 0 32 -6.16699 44 -18.5s18 -27.5 18 -45.5v0z" />
    <glyph glyph-name="s" unicode="s" horiz-adv-x="170" 
d="M162 301l-25.001 -34.999c-4.66699 4 -9.83398 7.33301 -15.501 10s-12.167 4 -19.5 4c-13.333 0 -24.833 -4.33301 -34.5 -13s-14.5 -18.334 -14.5 -29.001s2.83301 -19.167 8.5 -25.5s12.834 -11.166 21.501 -14.499l18 -5c13.333 -4.66699 24.333 -11.667 33 -21
s13 -20 13 -32c0 -16 -7.16699 -29.667 -21.5 -41s-31.833 -17 -52.5 -17c-8.66699 0 -17.167 1.16699 -25.5 3.5s-15.833 5.83301 -22.5 10.5l26 31c2.66699 -2 5.83398 -3.66699 9.50098 -5s7.83398 -2 12.501 -2c8 0 15.167 1.33301 21.5 4s9.5 7 9.5 13
c0 3.33301 -1.5 6.33301 -4.5 9s-6.5 4.66699 -10.5 6l-0.5 0.5c-0.333008 0.333008 -0.833008 0.5 -1.5 0.5l-14 6c-18.667 5.33301 -34.167 14.666 -46.5 27.999s-18.5 30.333 -18.5 51v1.5v1.5c0.666992 20 10.167 38.333 28.5 55s40.166 25 65.499 25
c11.333 0 22 -1.83301 32 -5.5s19.333 -8.5 28 -14.5v0z" />
    <glyph glyph-name="t" unicode="t" horiz-adv-x="254" 
d="M243 115c-8.66699 -10.667 -19.5 -19.3311 -32.5 -25.998s-26.833 -10 -41.5 -10c-25.333 0 -46.833 9.16699 -64.5 27.5s-26.5 40.166 -26.5 65.499v105h-66v44h66v171h44v-171h93v-44h-93v-105c0 -12.667 4.66699 -23.834 14 -33.501s20.333 -14.5 33 -14.5
c9.33301 0 17.5 2.33301 24.5 7s12.833 10.667 17.5 18l32 -34v0z" />
    <glyph glyph-name="u" unicode="u" horiz-adv-x="257" 
d="M245 204c0 -32 -11.332 -59.5 -33.999 -82.5s-50.334 -34.5 -83.001 -34.5c-32 0 -59.333 11.5 -82 34.5s-34 50.5 -34 82.5v117h43v-117c0 -20 7.16699 -37.167 21.5 -51.5s31.5 -21.5 51.5 -21.5s37.333 7.16699 52 21.5s22 31.5 22 51.5v117h43v-117v0z" />
    <glyph glyph-name="v" unicode="v" horiz-adv-x="302" 
d="M288 321l-119 -234h-36l-119 234h49l88 -172l88 172h49v0z" />
    <glyph glyph-name="w" unicode="w" horiz-adv-x="406" 
d="M387 309l-117 -233h-40l-26 54l-28 -54h-39l-119 233h47l92 -178l23 46l-68 132h47l45 -85l44 85h46l-67 -132l23 -46l90 178h47v0z" />
    <glyph glyph-name="x" unicode="x" horiz-adv-x="281" 
d="M268 322l-100 -119l97 -115h-57l-68 82l-68 -82h-57l97 115l-99 119h54l73 -86l72 86h56v0z" />
    <glyph glyph-name="y" unicode="y" horiz-adv-x="257" 
d="M245 131l-40.002 -18.001v-73c0 -27.333 -9.66699 -50.833 -29 -70.5s-42.666 -29.5 -69.999 -29.5v43c15.333 0.666992 28.333 6.66699 39 18s16 24.333 16 39v54l-44 -14l-10 -2c-3.33301 -0.666992 -6.66602 -1 -9.99902 -1c-22 0 -41.667 9 -59 27s-26 38.333 -26 61
v144h43v-144v-2.5v-2.5c2 -10 7.33301 -19 16 -27s18.667 -12 30 -12c2.66699 0 5.16699 0.333008 7.5 1s4.83301 1.33398 7.5 2.00098l45 17v168h44v-147l19 8l21 -39v0z" />
    <glyph glyph-name="z" unicode="z" horiz-adv-x="242" 
d="M231 76h-131h-24v43l101 148h-89c-9.33301 0 -18.5 -2 -27.5 -6s-16.833 -9.33301 -23.5 -16l-26 36c10.667 8.66699 22.5 15.5 35.5 20.5s26.833 7.5 41.5 7.5h136v-49l-94 -140h101v-44v0z" />
    <glyph glyph-name="braceleft" unicode="{" 
 />
    <glyph glyph-name="bar" unicode="|" horiz-adv-x="75" 
d="M48 -200h-46v1000h46v-1000v0z" />
    <glyph glyph-name="braceright" unicode="}" 
 />
    <glyph glyph-name="asciitilde" unicode="~" horiz-adv-x="364" 
d="M348 418c0 -4 -0.171875 -8.16992 -0.504883 -12.5029s-0.833008 -8.5 -1.5 -12.5s-1.16699 -8.16699 -1.5 -12.5s-1.16602 -8.5 -2.49902 -12.5c-1.33301 -8 -3.5 -15.5 -6.5 -22.5s-6.5 -13.833 -10.5 -20.5c-3.33301 -6.66699 -7.5 -12.667 -12.5 -18
s-10.167 -9.66602 -15.5 -12.999s-11.5 -6 -18.5 -8s-14.833 -3 -23.5 -3c-8 0 -15.5 0.833008 -22.5 2.5s-13.5 4.16699 -19.5 7.5c-6.66699 3.33301 -13.167 8 -19.5 14s-13.166 13.333 -20.499 22c-8.66699 10.667 -16.167 19.334 -22.5 26.001
s-11.5 11.334 -15.5 14.001s-8 4.66699 -12 6s-8 2 -12 2c-8 0 -15.167 -1.83301 -21.5 -5.5s-11.5 -9.16699 -15.5 -16.5s-7.16699 -17 -9.5 -29s-4.16602 -26.333 -5.49902 -43h-42c0 4 0.166992 8 0.5 12s0.5 8.33301 0.5 13l2 12l2 12c2 8 4.33301 15.667 7 23
s6 14.333 10 21c3.33301 6 7.33301 11.5 12 16.5s10 9.5 16 13.5s12.5 7 19.5 9s14.5 3 22.5 3s15.5 -0.833008 22.5 -2.5s13.833 -4.16699 20.5 -7.5c6 -3.33301 12.333 -8 19 -14s13.667 -13.333 21 -22c6.66699 -8.66699 12.834 -16 18.501 -22l14.5 -15
c4.66699 -4 9.33398 -6.83301 14.001 -8.5s9.66699 -2.5 15 -2.5c8.66699 0 16.167 2 22.5 6s11.5 10.333 15.5 19s7.16699 18.667 9.5 30s3.5 24.333 3.5 39h43v0z" />
    <glyph glyph-name="exclamdown" unicode="&#xa1;" horiz-adv-x="188" 
d="M177 -182h-170l63 449h44l63 -449v0zM129 371c0 -10 -3.66699 -18.667 -11 -26s-16 -11 -26 -11c-9.33301 0 -17.666 3.66699 -24.999 11s-11 16 -11 26c0 9.33301 3.66699 17.666 11 24.999s15.666 11 24.999 11c10 0 18.667 -3.66699 26 -11s11 -15.666 11 -24.999v0z
" />
    <glyph glyph-name="cent" unicode="&#xa2;" horiz-adv-x="242" 
d="M231 184c-9.33301 -8.66699 -20.499 -15.666 -33.499 -20.999s-26.5 -8.33301 -40.5 -9c-2.66699 -0.666992 -5.16699 -1 -7.5 -1h-6.5v-76h-43v83c-24 8.66699 -44.833 23 -62.5 43s-26.5 42.333 -26.5 67s8.83301 47 26.5 67s38.5 34 62.5 42v142h43v-135
c4.66699 0 10.5 -0.5 17.5 -1.5s13.833 -2.5 20.5 -4.5c10 -2.66699 19.167 -5.83398 27.5 -9.50098s14.5 -7.5 18.5 -11.5l-29 -35c-6.66699 4.66699 -13.667 8.5 -21 11.5s-15 5.16699 -23 6.5c-1.33301 0.666992 -3 1 -5 1h-6v-147c2.66699 0 5.16699 0.166992 7.5 0.5
s4.83301 0.5 7.5 0.5c6.66699 2 13.667 4.66699 21 8s13.666 7.33301 18.999 12l33 -33v0zM100.001 207.001v125.001c-12.667 -6.66699 -23.5 -15.334 -32.5 -26.001s-13.5 -22.667 -13.5 -36s4.5 -25.5 13.5 -36.5s19.833 -19.833 32.5 -26.5v0z" />
    <glyph glyph-name="sterling" unicode="&#xa3;" horiz-adv-x="355" 
d="M338 105c-10 -8.66699 -21.334 -15.5 -34.001 -20.5s-26.667 -7.5 -42 -7.5h-246v43h59v66h-51v44h51v58c0 32 11.5 59.5 34.5 82.5s50.5 34.5 82.5 34.5c27.333 0 51.833 -9 73.5 -27s34.834 -40 39.501 -66h-44c-4.66699 14 -13.5 25.833 -26.5 35.5
s-27.167 14.5 -42.5 14.5c-20 0 -37.333 -7.33301 -52 -22s-22 -32 -22 -52v-58h140v-44h-140v-66h144c9.33301 0 18.5 1.83301 27.5 5.5s16.833 8.5 23.5 14.5l25 -35v0z" />
    <glyph glyph-name="currency" unicode="&#xa4;" horiz-adv-x="369" 
d="M352 126l-2.5 -2.51074l-3.5 -3.5c-16.667 -16.667 -35.5 -29.167 -56.5 -37.5s-42.5 -12.166 -64.5 -11.499c-21.333 0 -42.333 4 -63 12s-39.334 20.333 -56.001 37c-10.667 10.667 -19.5 22.334 -26.5 35.001s-12.5 25.667 -16.5 39h-46l22 38h18v7.5v7.5h-40l22 38
h24c4 13.333 9.5 26.333 16.5 39s15.833 24.334 26.5 35.001c16.667 16.667 35.5 29.167 56.5 37.5s42.5 12.166 64.5 11.499c21.333 0 42.333 -4 63 -12s39.334 -20.333 56.001 -37c1.33301 -0.666992 2.5 -1.66699 3.5 -3s1.83301 -2.66602 2.5 -3.99902l-32 -32
c-0.666992 0.666992 -1.16699 1.33398 -1.5 2.00098s-0.833008 1.33398 -1.5 2.00098c-0.666992 0 -1.16699 0.333008 -1.5 1s-0.833008 1.33398 -1.5 2.00098c-12 12 -25.667 21 -41 27s-31 9 -47 9s-31.5 -3 -46.5 -9s-28.5 -15 -40.5 -27
c-6.66699 -6 -12.167 -12.667 -16.5 -20s-8.16602 -14.666 -11.499 -21.999h183l-23 -38h-168v-7.5v-7.5h191l-23 -38h-160c3.33301 -7.33301 7.16602 -14.666 11.499 -21.999s9.83301 -14 16.5 -20c12 -12 25.667 -21 41 -27s31 -9 47 -9s31.5 3 46.5 9s28.5 15 40.5 27
c0.666992 0.666992 1.16699 1.33398 1.5 2.00098s0.833008 1.33398 1.5 2.00098c0.666992 0 1.16699 0.333008 1.5 1s0.833008 1.33398 1.5 2.00098l32 -33v0z" />
    <glyph glyph-name="yen" unicode="&#xa5;" horiz-adv-x="392" 
d="M374 405l-73 -94h49v-44h-84l-32 -41h116v-44h-132v-106h-43v106h-132v44h116l-34 42h-82v43h48l-73 94h55l123 -156l122 156h56v0z" />
    <glyph glyph-name="brokenbar" unicode="&#xa6;" horiz-adv-x="75" 
d="M48 -200h-46v490h46v-490v0zM48 360h-46v440h46v-440v0z" />
    <glyph glyph-name="section" unicode="&#xa7;" horiz-adv-x="418" 
d="M403 206c0 -62 -21.165 -112.501 -63.498 -151.501s-90.5 -58.5 -144.5 -58.5c-36.667 0 -66.167 3.66699 -88.5 11s-41.166 15.333 -56.499 24l55 106c1.33301 -0.666992 2.66602 -1.5 3.99902 -2.5s2.66602 -1.83301 3.99902 -2.5
c6.66699 -4.66699 14 -7.83398 22 -9.50098s17.333 -2.5 28 -2.5c12 0 22.5 5.33301 31.5 16s14.167 22.334 15.5 35.001v2.5v2.5c0 3.33301 -0.166992 6.5 -0.5 9.5s-0.5 5.83301 -0.5 8.5c-2.66699 18 -10.334 37.333 -23.001 58s-34.334 47.667 -65.001 81l-21.5 24
l-19.5 23c-20.667 25.333 -36.667 52 -48 80s-17 63.333 -17 106c0 62 21.167 112.667 63.5 152s90.5 59 144.5 59c36.667 0 66.167 -3.66699 88.5 -11s41.166 -15.666 56.499 -24.999l-55 -106c-1.33301 1.33301 -2.66602 2.33301 -3.99902 3l-4 2
c-6.66699 4.66699 -13.834 7.83398 -21.501 9.50098s-17.167 2.5 -28.5 2.5c-12 0 -22.5 -5.33301 -31.5 -16s-14.167 -22.334 -15.5 -35.001v-2.5v-2.5c0 -3.33301 0.166992 -6.5 0.5 -9.5s0.5 -5.83301 0.5 -8.5c2.66699 -18 10.334 -37.333 23.001 -58
s34.334 -47.667 65.001 -81l21.5 -24l19.5 -23c20.667 -25.333 36.667 -52 48 -80s17 -63.333 17 -106v0zM318.002 205.999c0 17.333 -1.33301 33 -4 47s-7.33398 27.667 -14.001 41c-6 12.667 -14.5 26 -25.5 40s-24.5 29.667 -40.5 47
c-5.33301 5.33301 -10.5 10.833 -15.5 16.5s-9.83301 11.5 -14.5 17.5c-23.333 26.667 -42.666 54.334 -57.999 83.001s-23 61.334 -23 98.001c0 5.33301 0.333008 11.166 1 17.499s2 12.5 4 18.5c1.33301 5.33301 3 10.666 5 15.999s4.66699 10.333 8 15
c-14 -14.667 -24.167 -29.667 -30.5 -45s-9.5 -31.666 -9.5 -48.999s1.33301 -33 4 -47s7.33398 -27.333 14.001 -40c6 -13.333 14.5 -27 25.5 -41s24.5 -29.667 40.5 -47c5.33301 -5.33301 10.5 -10.833 15.5 -16.5s9.83301 -11.5 14.5 -17.5
c23.333 -26.667 42.666 -54.334 57.999 -83.001s23 -61.334 23 -98.001c0 -5.33301 -0.333008 -11.166 -1 -17.499s-2 -12.5 -4 -18.5c-1.33301 -5.33301 -3 -10.666 -5 -15.999s-4.66699 -10.333 -8 -15c14 14.667 24.167 29.667 30.5 45s9.5 31.666 9.5 48.999v0z" />
    <glyph glyph-name="dieresis" unicode="&#xa8;" horiz-adv-x="155" 
d="M58 685c0 -6.66699 -2.5 -12.5 -7.5 -17.5s-11.167 -7.5 -18.5 -7.5c-6.66699 0 -12.5 2.5 -17.5 7.5s-7.5 10.833 -7.5 17.5c0 7.33301 2.5 13.333 7.5 18s10.833 7 17.5 7c7.33301 0 13.5 -2.33301 18.5 -7s7.5 -10.667 7.5 -18v0zM148 685
c0 -6.66699 -2.33301 -12.5 -7 -17.5s-10.667 -7.5 -18 -7.5c-6.66699 0 -12.667 2.5 -18 7.5s-8 10.833 -8 17.5c0 7.33301 2.66699 13.333 8 18s11.333 7 18 7s12.5 -2.33301 17.5 -7s7.5 -10.667 7.5 -18v0z" />
    <glyph glyph-name="copyright" unicode="&#xa9;" horiz-adv-x="593" 
d="M570 364c0 -74.667 -27 -138.665 -81 -191.998s-118 -80 -192 -80c-74.667 0 -138.834 26.5 -192.501 79.5s-80.5 117.167 -80.5 192.5s26.833 139.666 80.5 192.999s117.834 80 192.501 80c74 0 138 -26.833 192 -80.5s81 -117.834 81 -192.501v0zM538 364.002
c0 66 -23.833 122.833 -71.5 170.5s-104.167 71.5 -169.5 71.5c-66.667 0 -123.667 -23.667 -171 -71s-71 -104.333 -71 -171s23.667 -123.667 71 -171s104.333 -71 171 -71c66 0 122.667 23.667 170 71s71 104.333 71 171v0zM421 293.002
c-8 -24.667 -22.8311 -44.835 -44.498 -60.502s-46.167 -23.5 -73.5 -23.5c-46.667 0 -82.334 13.833 -107.001 41.5s-37 63.834 -37 108.501c0 45.333 12.167 81.833 36.5 109.5s59.833 41.5 106.5 41.5c25.333 0 48 -6 68 -18s35 -29.333 45 -52l-25 -7
c-10.667 18 -23 31.833 -37 41.5s-32.667 14.5 -56 14.5c-38 0 -65.667 -12.833 -83 -38.5s-26 -56.167 -26 -91.5c0 -36.667 8.5 -67 25.5 -91s45.167 -36 84.5 -36c22 0 42.167 6.33301 60.5 19s31.166 29.334 38.499 50.001l24 -8v0z" />
    <glyph glyph-name="ordfeminine" unicode="&#xaa;" horiz-adv-x="315" 
d="M270 351h-216v35h216v-35v0zM285 418c-3.33301 -0.666992 -6.49707 -1.32715 -9.49707 -1.99414s-6.16699 -1 -9.5 -1c-6.66699 0 -12.667 1.66699 -18 5s-9.66602 8.66602 -12.999 15.999l-11 24c-14.667 -12.667 -31.167 -23.167 -49.5 -31.5
s-37.166 -12.833 -56.499 -13.5c-24.667 -0.666992 -43.834 6.16602 -57.501 20.499s-20.5 31.833 -20.5 52.5c0 7.33301 1 14.833 3 22.5s5.33301 15.5 10 23.5c5.33301 10.667 13.333 20.834 24 30.501s23.667 18.167 39 25.5c0.666992 0 3 0.833008 7 2.5l13 5.5
c4.66699 1.33301 9.16699 2.83301 13.5 4.5l6.5 2.5l3 1l-8 17c-0.666992 1.33301 -1.16699 2.16602 -1.5 2.49902s-1.16602 0.166016 -2.49902 -0.500977l-95 -42c-2.66699 -0.666992 -5.16699 -1.33398 -7.5 -2.00098s-4.5 -1 -6.5 -1
c-4.66699 0 -8.33398 1.5 -11.001 4.5s-3.66699 6.5 -3 10.5c0 3.33301 1 6.66602 3 9.99902s4.66699 5.66602 8 6.99902l98 44c1.33301 0.666992 2.66602 1.16699 3.99902 1.5s2.66602 0.5 3.99902 0.5c1.33301 0.666992 2.66602 1 3.99902 1h4
c7.33301 0 13.833 -1.83301 19.5 -5.5s9.83398 -8.83398 12.501 -15.501l84 -187c0.666992 -1.33301 1.16699 -2.16602 1.5 -2.49902s0.833008 -0.5 1.5 -0.5h0.5c0.333008 0 0.833008 0.333008 1.5 1h0.5h0.5l10 2h1.5h1.5c3.33301 0 6.16602 -1.5 8.49902 -4.5
s3.83301 -6.5 4.5 -10.5v-0.5v-1.5c0 -3.33301 -0.833008 -6.5 -2.5 -9.5s-4.83398 -5.16699 -9.50098 -6.5v0zM210.003 492.007l-37.0029 82.999c-1.33301 0 -2.66602 -0.166992 -3.99902 -0.5s-2.66602 -0.833008 -3.99902 -1.5c-4 -1.33301 -8.33301 -3 -13 -5l-14 -6
c-16 -7.33301 -30.833 -16.833 -44.5 -28.5s-20.167 -26.167 -19.5 -43.5c0 -2.66699 0.166992 -5.16699 0.5 -7.5s0.833008 -5.16602 1.5 -8.49902c2.66699 -9.33301 7.66699 -16 15 -20s15.333 -6 24 -6c2.66699 0 5.16699 0.166992 7.5 0.5s4.83301 0.833008 7.5 1.5
c6.66699 1.33301 13.334 3 20.001 5s12.334 4.33301 17.001 7c7.33301 3.33301 14.666 7.5 21.999 12.5s14.333 10.833 21 17.5v0z" />
    <glyph glyph-name="guillemotleft" unicode="&#xab;" horiz-adv-x="256" 
d="M131 246l-126 128l126 122v-57l-69 -66l69 -70v-57v0zM241 246l-126 128l126 122v-57l-69 -66l69 -70v-57v0z" />
    <glyph glyph-name="logicalnot" unicode="&#xac;" horiz-adv-x="352" 
d="M330 219h-19v102h-291v18h308v-3h2v-117v0z" />
    <glyph glyph-name="sfthyphen" unicode="&#xad;" 
 />
    <glyph glyph-name="registered" unicode="&#xae;" horiz-adv-x="312" 
d="M293 593c0 -38 -13.667 -70.667 -41 -98s-60 -41 -98 -41s-70.667 13.5 -98 40.5s-41 59.833 -41 98.5c0 38 13.833 70.667 41.5 98s60.167 41 97.5 41s69.833 -13.833 97.5 -41.5s41.5 -60.167 41.5 -97.5v0zM273 593c0 32 -11.833 59.833 -35.5 83.5
s-51.5 35.5 -83.5 35.5c-32.667 0 -60.667 -11.667 -84 -35s-35 -51.333 -35 -84c0 -33.333 11.667 -61.333 35 -84s51.333 -34 84 -34s60.667 11.5 84 34.5s35 50.833 35 83.5v0zM222 519h-30l-32 65h-30v-65h-28v155h54c3.33301 0 6.83301 -0.166992 10.5 -0.5
s7.5 -0.833008 11.5 -1.5c11.333 -2.66699 21.5 -7 30.5 -13s13.5 -15 13.5 -27c0 -11.333 -3.16699 -20.5 -9.5 -27.5s-14.5 -12.167 -24.5 -15.5l34 -70v0zM188 629c0 6.66699 -2.66699 11.833 -8 15.5s-11 6.5 -17 8.5c-2 0 -4 0.166992 -6 0.5s-4 0.5 -6 0.5h-21v-49h30
c7.33301 0 13.833 2 19.5 6s8.5 10 8.5 18v0z" />
    <glyph glyph-name="overstore" unicode="&#xaf;" 
 />
    <glyph glyph-name="degree" unicode="&#xb0;" horiz-adv-x="306" 
d="M281 651c0 -34.667 -12.5 -64.334 -37.5 -89.001s-54.833 -37 -89.5 -37c-36 0 -66.5 12.333 -91.5 37s-37.5 54.334 -37.5 89.001s12.5 64.334 37.5 89.001s55.5 37 91.5 37c34.667 0 64.5 -12.333 89.5 -37s37.5 -54.334 37.5 -89.001v0zM198 651
c0 12.667 -4.33301 23.5 -13 32.5s-19.667 13.5 -33 13.5c-12.667 0 -23.5 -4.5 -32.5 -13.5s-13.5 -19.833 -13.5 -32.5s4.5 -23.667 13.5 -33s19.833 -14 32.5 -14c13.333 0 24.333 4.66699 33 14s13 20.333 13 33v0z" />
    <glyph glyph-name="plusminus" unicode="&#xb1;" horiz-adv-x="352" 
d="M341 70h-334v45h334v-45v0zM341 308h-145v-145h-45v145h-144v44h144v146h45v-146h145v-44v0z" />
    <glyph glyph-name="twosuperior" unicode="&#xb2;" horiz-adv-x="237" 
d="M214 608c0 -5.33301 -0.664062 -10.668 -1.99707 -16.001s-3 -11 -5 -17c-2.66699 -8 -6.16699 -15.833 -10.5 -23.5s-8.5 -14.5 -12.5 -20.5l-7.5 -9.5c-2.33301 -3 -4.5 -5.5 -6.5 -7.5l-59 -58h42l9 16c2.66699 4.66699 5.66699 7.83398 9 9.50098
s6.66602 2.5 9.99902 2.5c6 0 11.333 -2.16699 16 -6.5s7 -9.83301 7 -16.5c0 -1.33301 -0.166992 -3 -0.5 -5s-1.16602 -4 -2.49902 -6l-16 -26c-2 -4 -4.66699 -7 -8 -9s-7 -3 -11 -3h-109c-4.66699 0 -8.66699 1.16699 -12 3.5s-6 5.5 -8 9.5
c-0.666992 1.33301 -1.16699 2.83301 -1.5 4.5s-0.5 3.16699 -0.5 4.5c0 3.33301 0.5 6.16602 1.5 8.49902s2.83301 4.83301 5.5 7.5l96 96c1.33301 1.33301 2.83301 3 4.5 5s3.5 4.33301 5.5 7l8.5 12.5c3 4.33301 5.5 8.83301 7.5 13.5c2 4 3.5 8.16699 4.5 12.5
s1.5 8.16602 1.5 11.499c0 18.667 -5.33301 33.834 -16 45.501s-24.334 17.5 -41.001 17.5c-9.33301 0 -18.166 -3 -26.499 -9s-15.166 -14 -20.499 -24c-2 -4 -5 -7.16699 -9 -9.5s-8.33301 -3.5 -13 -3.5h-2c-0.666992 0 -1.33398 0.333008 -2.00098 1
c-0.666992 0 -1.33398 0.166992 -2.00098 0.5s-1.33398 0.5 -2.00098 0.5c-4 2 -7.16699 4.66699 -9.5 8s-3.5 7.33301 -3.5 12v2.5c0 1 0.333008 1.83301 1 2.5c0 0.666992 0.166992 1.5 0.5 2.5s0.833008 1.83301 1.5 2.5c9.33301 18 21.666 32.333 36.999 43s32 16 50 16
c29.333 0 53.5 -10.167 72.5 -30.5s28.5 -46.166 28.5 -77.499v0z" />
    <glyph glyph-name="threesuperior" unicode="&#xb3;" horiz-adv-x="228" 
d="M211 536c-0.666992 -8 -1.83105 -16.0029 -3.49805 -24.0029s-3.83398 -16.333 -6.50098 -25c-10.667 -28 -27.5 -55 -50.5 -81s-48.5 -45.333 -76.5 -58c-0.666992 -0.666992 -1.5 -1.16699 -2.5 -1.5s-1.83301 -0.5 -2.5 -0.5c-0.666992 -0.666992 -1.5 -1 -2.5 -1
h-2.5c-4.66699 0.666992 -8.83398 2.16699 -12.501 4.5s-6.16699 5.83301 -7.5 10.5c-0.666992 1.33301 -1.16699 2.83301 -1.5 4.5s-0.5 3.16699 -0.5 4.5c0 4 1.16699 7.66699 3.5 11s5.83301 6 10.5 8c21.333 10 41 24.833 59 44.5s31.667 40.167 41 61.5
c2.66699 7.33301 5 14.666 7 21.999s3 14.333 3 21c0.666992 8.66699 -0.166016 16.334 -2.49902 23.001s-5.83301 12 -10.5 16c-3.33301 3.33301 -7.33301 5.66602 -12 6.99902s-10 2 -16 2h-6c-2 0 -4.33301 -0.333008 -7 -1h-0.5h-1.5h-1.5h-0.5
c-4.66699 0 -8.83398 1.5 -12.501 4.5s-6.16699 6.83301 -7.5 11.5c-0.666992 1.33301 -1.16699 2.83301 -1.5 4.5s-0.166016 2.83398 0.500977 3.50098c0 4 1 7.83301 3 11.5s5.33301 5.83398 10 6.50098c4.66699 2.66699 9 5.33398 13 8.00098s7.33301 5.66699 10 9
c4 3.33301 7.16699 6.83301 9.5 10.5s3.5 7.16699 3.5 10.5v0.5v1.5c0 0.666992 -0.166992 1.16699 -0.5 1.5l-0.5 0.5c-0.666992 2 -1.83398 3.5 -3.50098 4.5s-3.5 1.5 -5.5 1.5h-3h-4c-3.33301 0 -6.66602 -0.333008 -9.99902 -1s-7 -1.66699 -11 -3
c-6.66699 -2 -13 -4.83301 -19 -8.5s-11 -7.5 -15 -11.5c-1.33301 -2 -3.16602 -3.5 -5.49902 -4.5s-4.5 -1.83301 -6.5 -2.5h-3h-2c-2.66699 0 -5.33398 0.5 -8.00098 1.5s-5 2.16699 -7 3.5c-2 2 -3.5 4.5 -4.5 7.5s-1.5 5.83301 -1.5 8.5c0 3.33301 0.5 6.33301 1.5 9
s2.5 5 4.5 7c7.33301 8.66699 17.166 16.334 29.499 23.001s25.166 11.334 38.499 14.001c3.33301 1.33301 7 2.16602 11 2.49902s8 0.5 12 0.5h2h3c0.666992 -0.666992 1.33398 -1 2.00098 -1h2c9.33301 -2 17.833 -5.66699 25.5 -11s13.5 -12.333 17.5 -21
c1.33301 -3.33301 2.5 -6.83301 3.5 -10.5s1.5 -7.5 1.5 -11.5c0 -3.33301 -0.333008 -6.83301 -1 -10.5s-1.66699 -7.5 -3 -11.5l-6 -11.5c-2 -3.66699 -4.33301 -7.16699 -7 -10.5c3.33301 -1.33301 6.83301 -3 10.5 -5s7.16699 -4.66699 10.5 -8
c10.667 -9.33301 18 -20.333 22 -33s5.66699 -25.667 5 -39v0z" />
    <glyph glyph-name="acute" unicode="&#xb4;" horiz-adv-x="104" 
d="M91 712c0 -3.33301 -1.00098 -7.16699 -3.00098 -11.5s-5 -9.16602 -9 -14.499l-37 -53h-27l21 74c3.33301 10 7 16.833 11 20.5s10.667 5.5 20 5.5c6.66699 0 12.334 -1.83301 17.001 -5.5s7 -8.83398 7 -15.501v0z" />
    <glyph glyph-name="mu" unicode="&#xb5;" horiz-adv-x="399" 
d="M375 452l-56.999 -267.999c-0.666992 -2.66699 -1 -5.5 -1 -8.5v-9.5c0 -11.333 3 -22.333 9 -33s18.667 -19.334 38 -26.001l-19 -42c-14 4 -26.167 9.66699 -36.5 17s-20.166 17.333 -29.499 30c-17.333 -15.333 -34.833 -27 -52.5 -35s-35.167 -12 -52.5 -12
c-10.667 0 -21.5 2 -32.5 6s-24.167 11.333 -39.5 22l-32 -153l-46 -2l111 516l43 -2c-2.66699 -14 -6.33398 -30.833 -11.001 -50.5l-14 -61.5c0 -2 -0.333008 -4 -1 -6s-1.33398 -4.33301 -2.00098 -7l-19 -94.5c-6 -29.667 -9 -49.167 -9 -58.5c0 -18.667 5 -34 15 -46
s24.333 -18 43 -18c4.66699 0 9.5 0.5 14.5 1.5s9.83301 2.5 14.5 4.5c14 5.33301 27.167 13.5 39.5 24.5s19.833 22.833 22.5 35.5l60 278l44 -2v0z" />
    <glyph glyph-name="paragraph" unicode="&#xb6;" horiz-adv-x="411" 
d="M243 -81l-44 -0.00292969v359c-52.667 9.33301 -95.5 33.5 -128.5 72.5s-49.5 83.167 -49.5 132.5c0 54.667 17.167 99.834 51.5 135.501s76.833 58.834 127.5 69.501c2.66699 0.666992 5.5 0.833984 8.5 0.500977s6.16699 -0.5 9.5 -0.5h5h6h6.5
c2.33301 0 4.83301 0.333008 7.5 1v-770v0zM388 643.997h-40v-725h-43v770h83v-45v0z" />
    <glyph glyph-name="middot" unicode="&#xb7;" 
 />
    <glyph glyph-name="cedilla" unicode="&#xb8;" horiz-adv-x="169" 
d="M161 -68c0 -14.667 -8.66797 -27.999 -26.001 -39.999s-38.666 -18 -63.999 -18c-14.667 0 -27 1.16699 -37 3.5s-18.667 5.16602 -26 8.49902l24 29c4.66699 -0.666992 10.167 -1.5 16.5 -2.5s13.833 -1.5 22.5 -1.5c13.333 0 24.5 2 33.5 6s13.5 9.33301 13.5 16
c0 6 -4.5 11 -13.5 15s-20.167 6 -33.5 6h-3.5h-3.5c-2.66699 -0.666992 -5.16699 -1.16699 -7.5 -1.5s-4.5 -0.5 -6.5 -0.5v81h43v-44c19.333 -2.66699 35.5 -9 48.5 -19s19.5 -22.333 19.5 -37v-1z" />
    <glyph glyph-name="onesuperior" unicode="&#xb9;" horiz-adv-x="153" 
d="M112 424l-53.0049 0.00390625c-7.33301 0 -13 2.16699 -17 6.5s-6.33301 8.83301 -7 13.5v1.5v1.5c0 5.33301 2 10.333 6 15s10 7 18 7h3v174l-5 -5c-1.33301 -1.33301 -2.66602 -2.5 -3.99902 -3.5s-2.66602 -1.5 -3.99902 -1.5
c-1.33301 -0.666992 -2.66602 -1.16699 -3.99902 -1.5s-2.66602 -0.5 -3.99902 -0.5c-6.66699 0 -12.334 2.33301 -17.001 7s-6.66699 10 -6 16c0 1.33301 0.166992 2.66602 0.5 3.99902s0.833008 2.66602 1.5 3.99902c0 1.33301 0.5 2.66602 1.5 3.99902
s2.16699 2.66602 3.5 3.99902l43 48c2 2 4.33301 3.5 7 4.5s5.33398 1.5 8.00098 1.5c6 0 11.5 -2 16.5 -6s7.5 -9.66699 7.5 -17v-232h5c7.33301 0 12.833 -2.16699 16.5 -6.5s5.83398 -8.83301 6.50098 -13.5v-1.5v-1.5c0 -5.33301 -2 -10.333 -6 -15s-9.66699 -7 -17 -7
v0z" />
    <glyph glyph-name="ordmasculine" unicode="&#xba;" horiz-adv-x="315" 
d="M280 351h-256v35h256v-35v0zM278 538c0 -34 -12.167 -63.333 -36.5 -88s-53.5 -37 -87.5 -37c-34.667 0 -64.167 12.333 -88.5 37s-36.5 54 -36.5 88c0 34.667 12.167 64.167 36.5 88.5s53.833 36.5 88.5 36.5c34 0 63.167 -12.167 87.5 -36.5s36.5 -53.833 36.5 -88.5v0
zM245 538c0 25.333 -8.83301 47 -26.5 65s-39.167 27 -64.5 27s-47 -9 -65 -27s-27 -39.667 -27 -65c0 -24.667 9 -46 27 -64s39.667 -27 65 -27s46.833 9 64.5 27s26.5 39.333 26.5 64v0z" />
    <glyph glyph-name="guillemotright" unicode="&#xbb;" horiz-adv-x="256" 
d="M143 374l-126 -128v57l69 70l-69 66v57l126 -122v0zM253 374l-126 -128v57l69 70l-69 66v57l126 -122v0z" />
    <glyph glyph-name="onequarter" unicode="&#xbc;" 
 />
    <glyph glyph-name="onehalf" unicode="&#xbd;" 
 />
    <glyph glyph-name="threequarters" unicode="&#xbe;" 
 />
    <glyph glyph-name="questiondown" unicode="&#xbf;" horiz-adv-x="282" 
d="M277 -146c-14.667 -14.667 -31.3359 -25.833 -50.0029 -33.5s-37.667 -11.5 -57 -11.5c-18.667 0 -37.167 3.66699 -55.5 11s-34.833 18.333 -49.5 33s-25.667 30.667 -33 48s-11 35.333 -11 54c0 19.333 3.83301 38.166 11.5 56.499s18.834 34.833 33.501 49.5l55 55
c8.66699 7.33301 15.5 16 20.5 26s7.5 20.667 7.5 32v81h43v-81c0 -17.333 -3.66699 -33.666 -11 -48.999s-17.666 -28 -30.999 -38l-14 -14v-213c5.33301 -1.33301 10.833 -2.33301 16.5 -3s11.5 -1 17.5 -1h4.5h4.5c12 1.33301 23.833 4.5 35.5 9.5
s21.834 12.167 30.501 21.5l32 -33v0zM203.998 359.001c0 -10 -3.5 -18.667 -10.5 -26s-15.5 -11 -25.5 -11s-18.5 3.66699 -25.5 11s-10.5 16 -10.5 26c0 9.33301 3.5 17.666 10.5 24.999s15.5 11 25.5 11s18.5 -3.66699 25.5 -11s10.5 -15.666 10.5 -24.999v0z" />
    <glyph glyph-name="Agrave" unicode="&#xc0;" horiz-adv-x="808" 
d="M808 2h-33h1h-123l-99 200h-363l-101 -200h-52l102 200h-58v43h80l238 470h47l361 -713v0zM532 245l-158 317l-160 -317h318v0zM321 709l-27 0.000976562l-37 53c-4 5.33301 -7 10.166 -9 14.499s-3 8.16602 -3 11.499c0 6.66699 2.33301 11.834 7 15.501
s10.334 5.5 17.001 5.5c9.33301 0 16.166 -1.83301 20.499 -5.5s7.83301 -10.5 10.5 -20.5l21 -74v0z" />
    <glyph glyph-name="Aacute" unicode="&#xc1;" horiz-adv-x="811" 
d="M808 2h-33h1h-123l-99 200h-363l-101 -200h-52l102 200h-58v43h80l238 470h47l361 -713v0zM532 245l-158 317l-160 -317h318v0zM360 774c0 -3.33301 -1.00098 -7.16699 -3.00098 -11.5s-5 -9.16602 -9 -14.499l-37 -53h-27l21 74c3.33301 10 7 16.833 11 20.5
s10.667 5.5 20 5.5c6.66699 0 12.334 -1.83301 17.001 -5.5s7 -8.83398 7 -15.501v0z" />
    <glyph glyph-name="Acircumflex" unicode="&#xc2;" horiz-adv-x="804" 
d="M808 2h-33h1h-123l-99 200h-363l-101 -200h-52l102 200h-58v43h80l238 470h47l361 -713v0zM532 245l-158 317l-160 -317h318v0zM371 684h-39l-40 66l-41 -66h-39l61 99h38l60 -99v0z" />
    <glyph glyph-name="Atilde" unicode="&#xc3;" horiz-adv-x="811" 
d="M808 2h-33h1h-123l-99 200h-363l-101 -200h-52l102 200h-58v43h80l238 470h47l361 -713v0zM532 245l-158 317l-160 -317h318v0zM413 766v-14.5c0 -5.66699 -0.333008 -11.167 -1 -16.5c-2 -12 -6 -22.833 -12 -32.5s-16.333 -14.5 -31 -14.5c-8 0 -14.5 1 -19.5 3
s-9.83301 4.66699 -14.5 8c-1.33301 1.33301 -2.83301 2.5 -4.5 3.5s-3.16699 2.16699 -4.5 3.5l-48 34c-4 2.66699 -7.33301 5 -10 7s-5 3.33301 -7 4c-1.33301 0.666992 -2.83301 1.16699 -4.5 1.5s-3.16699 0.5 -4.5 0.5c-8 0 -13.333 -4 -16 -12s-4 -16.667 -4 -26v-6
v-6h-27c0 4 0.166992 9 0.5 15s0.833008 12 1.5 18c2 11.333 6 21.5 12 30.5s16 13.5 30 13.5c6 0 11.5 -0.833008 16.5 -2.5s9.83301 -3.83398 14.5 -6.50098c2 -1.33301 4 -2.83301 6 -4.5s4 -3.16699 6 -4.5l46 -33l11 -7.5
c3.33301 -2.33301 6.66602 -4.16602 9.99902 -5.49902c1.33301 0 2.5 -0.166992 3.5 -0.5s2.16699 -0.5 3.5 -0.5c7.33301 0 12.333 3.33301 15 10s4.33398 14 5.00098 22v10v9h27v0z" />
    <glyph glyph-name="Adieresis" unicode="&#xc4;" horiz-adv-x="815" 
d="M808 2h-33h1h-123l-99 200h-363l-101 -200h-52l102 200h-58v43h80l238 470h47l361 -713v0zM532 245l-158 317l-160 -317h318v0zM274 715c0 -6.66699 -2.5 -12.5 -7.5 -17.5s-11.167 -7.5 -18.5 -7.5c-6.66699 0 -12.5 2.5 -17.5 7.5s-7.5 10.833 -7.5 17.5
c0 7.33301 2.5 13.333 7.5 18s10.833 7 17.5 7c7.33301 0 13.5 -2.33301 18.5 -7s7.5 -10.667 7.5 -18v0zM364 715c0 -6.66699 -2.33301 -12.5 -7 -17.5s-10.667 -7.5 -18 -7.5c-6.66699 0 -12.667 2.5 -18 7.5s-8 10.833 -8 17.5c0 7.33301 2.66699 13.333 8 18
s11.333 7 18 7s12.5 -2.33301 17.5 -7s7.5 -10.667 7.5 -18v0z" />
    <glyph glyph-name="Aring" unicode="&#xc5;" horiz-adv-x="818" 
d="M808 2h-32h-123l-99 200h-363l-101 -200h-52l102 200h-58v43h80l233 459c-8 4.66699 -14.333 11 -19 19s-7 17 -7 27c0 14.667 5.16699 27.167 15.5 37.5s22.833 15.5 37.5 15.5c15.333 0 28.166 -5.16699 38.499 -15.5s15.5 -22.833 15.5 -37.5
c0 -9.33301 -2.16699 -17.833 -6.5 -25.5s-10.166 -14.167 -17.499 -19.5l356 -703v0zM532 245l-158 317l-160 -317h318v0zM451 750c0 8 -2.83301 14.833 -8.5 20.5s-12.5 8.5 -20.5 8.5s-14.833 -2.83301 -20.5 -8.5s-8.5 -12.5 -8.5 -20.5s2.83301 -15 8.5 -21
s12.5 -9 20.5 -9s14.833 3 20.5 9s8.5 13 8.5 21v0z" />
    <glyph glyph-name="AE" unicode="&#xc6;" horiz-adv-x="980" 
d="M936 202h-367v-156h352v-44h-488v200h-236l-101 -200h-51l101 200h-58v43h80l238 470l515 2l-1 -46h-351v-425h367v-44v0zM433 246v421l-213 -422l213 1v0z" />
    <glyph glyph-name="Ccedilla" unicode="&#xc7;" horiz-adv-x="677" 
d="M646 96c-30.667 -30 -66.0029 -53.9971 -106.003 -71.9971s-83 -28.333 -129 -31v-20c19.333 -2.66699 35.5 -9 48.5 -19s19.5 -22.333 19.5 -37c0 -15.333 -8.66699 -29 -26 -41s-38.666 -18 -63.999 -18c-14.667 0 -27 1.16699 -37 3.5s-18.667 5.16602 -26 8.49902
l24 29c4.66699 -0.666992 10.167 -1.5 16.5 -2.5s13.833 -1.5 22.5 -1.5c13.333 0 24.5 2 33.5 6s13.5 9.33301 13.5 16c0 6 -4.5 11 -13.5 15s-20.167 6 -33.5 6h-3.5h-3.5c-2.66699 -0.666992 -5.16699 -1.16699 -7.5 -1.5s-4.5 -0.5 -6.5 -0.5v57
c-94 6 -173.667 43.667 -239 113s-98 151.666 -98 246.999c0 99.333 35.333 184.333 106 255s155.667 106 255 106c49.333 0 95.833 -9.33301 139.5 -28s81.834 -44.334 114.501 -77.001l-35 -34c-28 28 -60.833 50.333 -98.5 67s-77.834 25 -120.501 25
c-36.667 0 -71.334 -6 -104.001 -18s-62.334 -28.667 -89.001 -50v-492c26.667 -20.667 56.334 -37 89.001 -49s67.334 -18 104.001 -18c42.667 0 82.834 8.16699 120.501 24.5s70.834 38.5 99.501 66.5l34 -35v0z" />
    <glyph glyph-name="Egrave" unicode="&#xc8;" horiz-adv-x="637" 
d="M616 202h-367v-156h352v-44h-488v200h-84v44h84v468h487v-43h-351v-425h367v-44v0zM244 699l-27 0.000976562l-37 53c-4 5.33301 -7 10.166 -9 14.499s-3 8.16602 -3 11.499c0 6.66699 2.33301 11.834 7 15.501s10.334 5.5 17.001 5.5
c9.33301 0 16.166 -1.83301 20.499 -5.5s7.83301 -10.5 10.5 -20.5l21 -74v0z" />
    <glyph glyph-name="Eacute" unicode="&#xc9;" horiz-adv-x="629" 
d="M616 202h-367v-156h352v-44h-488v200h-84v44h84v468h487v-43h-351v-425h367v-44v0zM292 772c0 -3.33301 -1.00098 -7.16699 -3.00098 -11.5s-5 -9.16602 -9 -14.499l-37 -53h-27l21 74c3.33301 10 7 16.833 11 20.5s10.667 5.5 20 5.5
c6.66699 0 12.334 -1.83301 17.001 -5.5s7 -8.83398 7 -15.501v0z" />
    <glyph glyph-name="Ecircumflex" unicode="&#xca;" horiz-adv-x="634" 
d="M616 202h-367v-156h352v-44h-488v200h-84v44h84v468h487v-43h-351v-425h367v-44v0zM305 686h-39l-40 66l-41 -66h-39l61 99h38l60 -99v0z" />
    <glyph glyph-name="Edieresis" unicode="&#xcb;" horiz-adv-x="623" 
d="M616 202h-367v-156h352v-44h-488v200h-84v44h84v468h487v-43h-351v-425h367v-44v0zM216 721c0 -6.66699 -2.5 -12.5 -7.5 -17.5s-11.167 -7.5 -18.5 -7.5c-6.66699 0 -12.5 2.5 -17.5 7.5s-7.5 10.833 -7.5 17.5c0 7.33301 2.5 13.333 7.5 18s10.833 7 17.5 7
c7.33301 0 13.5 -2.33301 18.5 -7s7.5 -10.667 7.5 -18v0zM306 721c0 -6.66699 -2.33301 -12.5 -7 -17.5s-10.667 -7.5 -18 -7.5c-6.66699 0 -12.667 2.5 -18 7.5s-8 10.833 -8 17.5c0 7.33301 2.66699 13.333 8 18s11.333 7 18 7s12.5 -2.33301 17.5 -7
s7.5 -10.667 7.5 -18v0z" />
    <glyph glyph-name="Igrave" unicode="&#xcc;" horiz-adv-x="162" 
d="M136 2h-130v712h130v-712v0zM79 843l-27 0.000976562l-37 53c-4 5.33301 -7 10.166 -9 14.499s-3 8.16602 -3 11.499c0 6.66699 2.33301 11.834 7 15.501s10.334 5.5 17.001 5.5c9.33301 0 16.166 -1.83301 20.499 -5.5s7.83301 -10.5 10.5 -20.5l21 -74v0z" />
    <glyph glyph-name="Iacute" unicode="&#xcd;" horiz-adv-x="165" 
d="M136 2h-130v712h130v-712v0zM75 929c0 -3.33301 -1.00098 -7.16699 -3.00098 -11.5s-5 -9.16602 -9 -14.499l-37 -53h-27l21 74c3.33301 10 7 16.833 11 20.5s10.667 5.5 20 5.5c6.66699 0 12.334 -1.83301 17.001 -5.5s7 -8.83398 7 -15.501v0z" />
    <glyph glyph-name="Icircumflex" unicode="&#xce;" horiz-adv-x="162" 
d="M136 2h-130v712h130v-712v0zM189 816h-39l-40 66l-41 -66h-39l61 99h38l60 -99v0z" />
    <glyph glyph-name="Idieresis" unicode="&#xcf;" horiz-adv-x="162" 
d="M136 2h-130v712h130v-712v0zM33 873c0 -6.66699 -2.49902 -12.5 -7.49902 -17.5s-11.167 -7.5 -18.5 -7.5c-6.66699 0 -12.334 2.5 -17.001 7.5s-7 10.833 -7 17.5c0 7.33301 2.5 13.333 7.5 18s10.5 7 16.5 7c7.33301 0 13.5 -2.33301 18.5 -7s7.5 -10.667 7.5 -18v0z
M123.001 873c0 -6.66699 -2.33301 -12.5 -7 -17.5s-10.667 -7.5 -18 -7.5c-6.66699 0 -12.667 2.5 -18 7.5s-8 10.833 -8 17.5c0 7.33301 2.66699 13.333 8 18s11.333 7 18 7s12.5 -2.33301 17.5 -7s7.5 -10.667 7.5 -18v0z" />
    <glyph glyph-name="Eth" unicode="&#xd0;" horiz-adv-x="752" 
d="M718 356c0 -98 -34.833 -181.833 -104.5 -251.5s-153.834 -104.5 -252.501 -104.5h-236v205h-91v43h91v464h236c98.667 0 182.834 -34.833 252.501 -104.5s104.5 -153.5 104.5 -251.5v0zM673 356c0 85.333 -30.667 158.667 -92 220s-134.666 92 -219.999 92h-93v-420h119
v-43h-119v-160h93c85.333 0 158.666 30.333 219.999 91s92 134 92 220v0z" />
    <glyph glyph-name="Ntilde" unicode="&#xd1;" horiz-adv-x="639" 
d="M627 3h-113l-440 496v-497h-44v714h65l488 -549v548h44v-169.5v-171.5v-186.5v-184.5v0zM302 934v-14.5c0 -5.66699 -0.333008 -11.167 -1 -16.5c-2 -12 -6 -22.833 -12 -32.5s-16.333 -14.5 -31 -14.5c-8 0 -14.5 1 -19.5 3s-9.83301 4.66699 -14.5 8
c-1.33301 1.33301 -2.83301 2.5 -4.5 3.5s-3.16699 2.16699 -4.5 3.5l-48 34c-4 2.66699 -7.33301 5 -10 7s-5 3.33301 -7 4c-1.33301 0.666992 -2.83301 1.16699 -4.5 1.5s-3.16699 0.5 -4.5 0.5c-8 0 -13.333 -4 -16 -12s-4 -16.667 -4 -26v-6v-6h-27
c0 4 0.166992 9 0.5 15s0.833008 12 1.5 18c2 11.333 6 21.5 12 30.5s16 13.5 30 13.5c6 0 11.5 -0.833008 16.5 -2.5s9.83301 -3.83398 14.5 -6.50098c2 -1.33301 4 -2.83301 6 -4.5s4 -3.16699 6 -4.5l46 -33l11 -7.5c3.33301 -2.33301 6.66602 -4.16602 9.99902 -5.49902
c1.33301 0 2.5 -0.166992 3.5 -0.5s2.16699 -0.5 3.5 -0.5c7.33301 0 12.333 3.33301 15 10s4.33398 14 5.00098 22v10v9h27v0z" />
    <glyph glyph-name="Ograve" unicode="&#xd2;" 
 />
    <glyph glyph-name="Oacute" unicode="&#xd3;" horiz-adv-x="775" 
d="M759 361c0 -99.333 -35.5 -184.333 -106.5 -255s-156.167 -106 -255.5 -106c-98.667 -0 -183.5 35.333 -254.5 106s-106.5 155.667 -106.5 255s35.5 184.333 106.5 255s155.833 106 254.5 106c99.333 0 184.5 -35.333 255.5 -106s106.5 -155.667 106.5 -255v0zM711 361
c0 85.333 -30.833 158.833 -92.5 220.5s-135.5 92.5 -221.5 92.5c-34 0 -66.5 -5.16699 -97.5 -15.5s-59.5 -25.166 -85.5 -44.499v-507c26 -18.667 54.5 -33.334 85.5 -44.001s63.5 -16 97.5 -16c86 0 159.833 30.833 221.5 92.5s92.5 135.5 92.5 221.5v0zM155 924
c0 -3.33301 -1.00098 -7.16699 -3.00098 -11.5s-5 -9.16602 -9 -14.499l-37 -53h-27l21 74c3.33301 10 7 16.833 11 20.5s10.667 5.5 20 5.5c6.66699 0 12.334 -1.83301 17.001 -5.5s7 -8.83398 7 -15.501v0z" />
    <glyph glyph-name="Ocircumflex" unicode="&#xd4;" horiz-adv-x="768" 
d="M759 361c0 -99.333 -35.5 -184.333 -106.5 -255s-156.167 -106 -255.5 -106c-98.667 -0 -183.5 35.333 -254.5 106s-106.5 155.667 -106.5 255s35.5 184.333 106.5 255s155.833 106 254.5 106c99.333 0 184.5 -35.333 255.5 -106s106.5 -155.667 106.5 -255v0zM711 361
c0 85.333 -30.833 158.833 -92.5 220.5s-135.5 92.5 -221.5 92.5c-34 0 -66.5 -5.16699 -97.5 -15.5s-59.5 -25.166 -85.5 -44.499v-507c26 -18.667 54.5 -33.334 85.5 -44.001s63.5 -16 97.5 -16c86 0 159.833 30.833 221.5 92.5s92.5 135.5 92.5 221.5v0zM234 810h-39
l-40 66l-41 -66h-39l61 99h38l60 -99v0z" />
    <glyph glyph-name="Otilde" unicode="&#xd5;" horiz-adv-x="782" 
d="M759 361c0 -99.333 -35.5 -184.333 -106.5 -255s-156.167 -106 -255.5 -106c-98.667 -0 -183.5 35.333 -254.5 106s-106.5 155.667 -106.5 255s35.5 184.333 106.5 255s155.833 106 254.5 106c99.333 0 184.5 -35.333 255.5 -106s106.5 -155.667 106.5 -255v0zM711 361
c0 85.333 -30.833 158.833 -92.5 220.5s-135.5 92.5 -221.5 92.5c-34 0 -66.5 -5.16699 -97.5 -15.5s-59.5 -25.166 -85.5 -44.499v-507c26 -18.667 54.5 -33.334 85.5 -44.001s63.5 -16 97.5 -16c86 0 159.833 30.833 221.5 92.5s92.5 135.5 92.5 221.5v0zM293 940v-14.5
c0 -5.66699 -0.333008 -11.167 -1 -16.5c-2 -12 -6 -22.833 -12 -32.5s-16.333 -14.5 -31 -14.5c-8 0 -14.5 1 -19.5 3s-9.83301 4.66699 -14.5 8c-1.33301 1.33301 -2.83301 2.5 -4.5 3.5s-3.16699 2.16699 -4.5 3.5l-48 34c-4 2.66699 -7.33301 5 -10 7s-5 3.33301 -7 4
c-1.33301 0.666992 -2.83301 1.16699 -4.5 1.5s-3.16699 0.5 -4.5 0.5c-8 0 -13.333 -4 -16 -12s-4 -16.667 -4 -26v-6v-6h-27c0 4 0.166992 9 0.5 15s0.833008 12 1.5 18c2 11.333 6 21.5 12 30.5s16 13.5 30 13.5c6 0 11.5 -0.833008 16.5 -2.5
s9.83301 -3.83398 14.5 -6.50098c2 -1.33301 4 -2.83301 6 -4.5s4 -3.16699 6 -4.5l46 -33l11 -7.5c3.33301 -2.33301 6.66602 -4.16602 9.99902 -5.49902c1.33301 0 2.5 -0.166992 3.5 -0.5s2.16699 -0.5 3.5 -0.5c7.33301 0 12.333 3.33301 15 10s4.33398 14 5.00098 22
v10v9h27v0z" />
    <glyph glyph-name="Odieresis" unicode="&#xd6;" horiz-adv-x="771" 
d="M759 361c0 -99.333 -35.5 -184.333 -106.5 -255s-156.167 -106 -255.5 -106c-98.667 -0 -183.5 35.333 -254.5 106s-106.5 155.667 -106.5 255s35.5 184.333 106.5 255s155.833 106 254.5 106c99.333 0 184.5 -35.333 255.5 -106s106.5 -155.667 106.5 -255v0zM711 361
c0 85.333 -30.833 158.833 -92.5 220.5s-135.5 92.5 -221.5 92.5c-34 0 -66.5 -5.16699 -97.5 -15.5s-59.5 -25.166 -85.5 -44.499v-507c26 -18.667 54.5 -33.334 85.5 -44.001s63.5 -16 97.5 -16c86 0 159.833 30.833 221.5 92.5s92.5 135.5 92.5 221.5v0zM82 869
c0 -6.66699 -2.5 -12.5 -7.5 -17.5s-11.167 -7.5 -18.5 -7.5c-6.66699 0 -12.5 2.5 -17.5 7.5s-7.5 10.833 -7.5 17.5c0 7.33301 2.5 13.333 7.5 18s10.833 7 17.5 7c7.33301 0 13.5 -2.33301 18.5 -7s7.5 -10.667 7.5 -18v0zM172 869c0 -6.66699 -2.33301 -12.5 -7 -17.5
s-10.667 -7.5 -18 -7.5c-6.66699 0 -12.667 2.5 -18 7.5s-8 10.833 -8 17.5c0 7.33301 2.66699 13.333 8 18s11.333 7 18 7s12.5 -2.33301 17.5 -7s7.5 -10.667 7.5 -18v0z" />
    <glyph glyph-name="multiply" unicode="&#xd7;" horiz-adv-x="352" 
d="M312 298l-107 -108l106 -109l-29 -30l-107 108l-110 -108l-29 30l107 108l-108 110l29 29l109 -106l110 106l29 -30v0z" />
    <glyph glyph-name="Oslash" unicode="&#xd8;" horiz-adv-x="795" 
d="M759 361c0 -99.333 -35.498 -184.334 -106.498 -255.001s-156.167 -106 -255.5 -106c-44.667 0 -87.334 7.83301 -128.001 23.5s-77 37.5 -109 65.5l-39 -39l-31 31l39 38c-28.667 32.667 -51.334 69.5 -68.001 110.5s-25 84.833 -25 131.5
c0 99.333 35.5 184.333 106.5 255s155.833 106 254.5 106c46.667 0 90.667 -8.16699 132 -24.5s78 -39.166 110 -68.499l50 50l31 -31l-51 -50c28 -31.333 50 -67.333 66 -108s24 -83.667 24 -129v0zM711.002 360.999c0 38.667 -6.66699 75.334 -20 110.001
s-32 65.667 -56 93l-421 -421v-36c26 -18.667 54.5 -33.334 85.5 -44.001s63.5 -16 97.5 -16c86 0 159.833 30.833 221.5 92.5s92.5 135.5 92.5 221.5v0zM605.002 594.999c-28 24.667 -59.833 43.999 -95.5 57.999s-73.167 21 -112.5 21c-34 0 -66.5 -5.16699 -97.5 -15.5
s-59.5 -25.166 -85.5 -44.499v-409l391 390v0z" />
    <glyph glyph-name="Ugrave" unicode="&#xd9;" horiz-adv-x="631" 
d="M612 293c0 -80.667 -28.499 -149.5 -85.499 -206.5s-125.833 -85.5 -206.5 -85.5c-80 0 -148.5 28.5 -205.5 85.5s-85.5 125.833 -85.5 206.5v420h132v-609c21.333 -18 45.666 -32.167 72.999 -42.5s56 -15.5 86 -15.5c68.667 0 127 24 175 72s72 106.333 72 175v420h45
v-420v0zM152.001 845l-27 0.000976562l-37 53c-4 5.33301 -7 10.166 -9 14.499s-3 8.16602 -3 11.499c0 6.66699 2.33301 11.834 7 15.501s10.334 5.5 17.001 5.5c9.33301 0 16.166 -1.83301 20.499 -5.5s7.83301 -10.5 10.5 -20.5l21 -74v0z" />
    <glyph glyph-name="Uacute" unicode="&#xda;" horiz-adv-x="631" 
d="M612 293c0 -80.667 -28.499 -149.5 -85.499 -206.5s-125.833 -85.5 -206.5 -85.5c-80 0 -148.5 28.5 -205.5 85.5s-85.5 125.833 -85.5 206.5v420h132v-609c21.333 -18 45.666 -32.167 72.999 -42.5s56 -15.5 86 -15.5c68.667 0 127 24 175 72s72 106.333 72 175v420h45
v-420v0zM170.001 926c0 -3.33301 -1.00098 -7.16699 -3.00098 -11.5s-5 -9.16602 -9 -14.499l-37 -53h-27l21 74c3.33301 10 7 16.833 11 20.5s10.667 5.5 20 5.5c6.66699 0 12.334 -1.83301 17.001 -5.5s7 -8.83398 7 -15.501v0z" />
    <glyph glyph-name="Ucircumflex" unicode="&#xdb;" horiz-adv-x="627" 
d="M612 293c0 -80.667 -28.499 -149.5 -85.499 -206.5s-125.833 -85.5 -206.5 -85.5c-80 0 -148.5 28.5 -205.5 85.5s-85.5 125.833 -85.5 206.5v420h132v-609c21.333 -18 45.666 -32.167 72.999 -42.5s56 -15.5 86 -15.5c68.667 0 127 24 175 72s72 106.333 72 175v420h45
v-420v0zM238.001 810h-39l-40 66l-41 -66h-39l61 99h38l60 -99v0z" />
    <glyph glyph-name="Udieresis" unicode="&#xdc;" horiz-adv-x="635" 
d="M612 293c0 -80.667 -28.499 -149.5 -85.499 -206.5s-125.833 -85.5 -206.5 -85.5c-80 0 -148.5 28.5 -205.5 85.5s-85.5 125.833 -85.5 206.5v420h132v-609c21.333 -18 45.666 -32.167 72.999 -42.5s56 -15.5 86 -15.5c68.667 0 127 24 175 72s72 106.333 72 175v420h45
v-420v0zM90.001 872c0 -6.66699 -2.5 -12.5 -7.5 -17.5s-11.167 -7.5 -18.5 -7.5c-6.66699 0 -12.5 2.5 -17.5 7.5s-7.5 10.833 -7.5 17.5c0 7.33301 2.5 13.333 7.5 18s10.833 7 17.5 7c7.33301 0 13.5 -2.33301 18.5 -7s7.5 -10.667 7.5 -18v0zM180.001 872
c0 -6.66699 -2.33301 -12.5 -7 -17.5s-10.667 -7.5 -18 -7.5c-6.66699 0 -12.667 2.5 -18 7.5s-8 10.833 -8 17.5c0 7.33301 2.66699 13.333 8 18s11.333 7 18 7s12.5 -2.33301 17.5 -7s7.5 -10.667 7.5 -18v0z" />
    <glyph glyph-name="Yacute" unicode="&#xdd;" 
 />
    <glyph glyph-name="Thorn" unicode="&#xde;" horiz-adv-x="629" 
d="M600 371c0 -70.667 -24.833 -128.999 -74.5 -174.999s-110.167 -69 -181.5 -69h-186v-127h-129v712h129v-98h186c71.333 0 131.833 -22.833 181.5 -68.5s74.5 -103.834 74.5 -174.501v0zM557 371.001c0 59.333 -20.667 107.667 -62 145s-91.666 56 -150.999 56h-186v-401
h186c59.333 0 109.666 18.5 150.999 55.5s62 85.167 62 144.5v0z" />
    <glyph glyph-name="germandbls" unicode="&#xdf;" horiz-adv-x="278" 
d="M265 193c0 -32 -11.334 -59.5029 -34.001 -82.5029s-50.334 -34.5 -83.001 -34.5c-12.667 0 -24.667 1.83301 -36 5.5s-21.666 8.83398 -30.999 15.501l18 42c6.66699 -6 14.167 -10.667 22.5 -14s17.166 -5 26.499 -5c20 0 37.333 7.16699 52 21.5s22 31.5 22 51.5
c0 10.667 -2.83301 20 -8.5 28s-11.834 15.333 -18.501 22c-2 2 -3.83301 3.66699 -5.5 5s-3.5 3 -5.5 5c-0.666992 1.33301 -1.5 2.5 -2.5 3.5l-3.5 3.5l-90 99l-1.5 1.5c-0.333008 0.333008 -0.5 0.833008 -0.5 1.5c-0.666992 0 -1.16699 0.166992 -1.5 0.5
s-0.5 0.833008 -0.5 1.5c-4 4.66699 -7.5 9.5 -10.5 14.5s-4.5 10.833 -4.5 17.5c0 4 0.666992 8.33301 2 13s3.33301 9.66699 6 15l72 134c5.33301 8.66699 9 17.167 11 25.5s3 16.166 3 23.499c0 5.33301 -0.666992 10.333 -2 15s-3.66602 8.66699 -6.99902 12
c-4.66699 6 -10.667 10.833 -18 14.5s-14.666 5.5 -21.999 5.5c-16 0 -29.667 -5.66699 -41 -17s-17 -24.666 -17 -39.999v-667h-43v667c0 27.333 9.83301 51 29.5 71s42.834 30 69.501 30c13.333 0 26.333 -2.66699 39 -8s23.334 -12.666 32.001 -21.999
c9.33301 -8.66699 15.833 -18.667 19.5 -30s5.5 -23 5.5 -35c0 -10.667 -1.33301 -21.167 -4 -31.5s-6.66699 -20.166 -12 -29.499l-77 -143l97 -110c2 -2.66699 4.16699 -5.16699 6.5 -7.5l7.5 -7.5c9.33301 -10.667 18.166 -22.667 26.499 -36s12.5 -28.333 12.5 -45v0z
" />
    <glyph glyph-name="agrave" unicode="&#xe0;" horiz-adv-x="278" 
d="M262 76l-42.9971 -0.000976562v101c-4 -8 -8.33301 -15.333 -13 -22s-9.33398 -12.667 -14.001 -18c-8 -9.33301 -15.667 -17 -23 -23s-13.666 -10.333 -18.999 -13c-0.666992 -0.666992 -1.33398 -1.16699 -2.00098 -1.5s-1.33398 -0.833008 -2.00098 -1.5
c-8.66699 -4.66699 -18.834 -9 -30.501 -13s-23.5 -6.33301 -35.5 -7h-3.5h-3.5c-8.66699 0 -17 1.33301 -25 4s-15.333 7.33398 -22 14.001c-4.66699 5.33301 -8.16699 11.166 -10.5 17.499s-3.5 13.166 -3.5 20.499c0 4.66699 0.5 9.66699 1.5 15
s2.16699 10.666 3.5 15.999c3.33301 12 8.16602 23.667 14.499 35s12.833 21 19.5 29l2.5 2.5l2.5 2.5c14 14.667 31.833 27.834 53.5 39.501s43.834 20.834 66.501 27.501c11.333 2.66699 22.333 4.83398 33 6.50098s21 2.5 31 2.5h22v-234v0zM213.003 267.999
c-6 0 -12.666 -1.17188 -19.999 -3.50488s-14.666 -5.16602 -21.999 -8.49902c-6.66699 -2.66699 -13.167 -5.83398 -19.5 -9.50098s-12.166 -7.5 -17.499 -11.5c-9.33301 -5.33301 -17.333 -10.666 -24 -15.999l-15 -12c-2 -2 -4.16699 -4.5 -6.5 -7.5
s-4.83301 -6.5 -7.5 -10.5c-2 -3.33301 -4.16699 -6.66602 -6.5 -9.99902s-4.5 -7 -6.5 -11c-2.66699 -5.33301 -4.83398 -10.666 -6.50098 -15.999s-2.5 -10 -2.5 -14c0 -2 0.333008 -3.83301 1 -5.5s1.33398 -3.16699 2.00098 -4.5c1.33301 -1.33301 3 -2.33301 5 -3
s4.33301 -1 7 -1c4 0 8.33301 0.666992 13 2s9.66699 3 15 5c3.33301 1.33301 6.83301 3 10.5 5s7.16699 3.66699 10.5 5c3.33301 2.66699 6.5 5 9.5 7l7.5 5c3.33301 2.66699 8.16602 7.33398 14.499 14.001s13.166 14.667 20.499 24c4.66699 6 9.16699 12.167 13.5 18.5
s8.16602 12.833 11.499 19.5c4 6.66699 7.16699 13.334 9.5 20.001s3.5 13 3.5 19v0zM215.004 342.994l-27 0.000976562l-37 53c-4 5.33301 -7 10.166 -9 14.499s-3 8.16602 -3 11.499c0 6.66699 2.33301 11.834 7 15.501s10.334 5.5 17.001 5.5
c9.33301 0 16.166 -1.83301 20.499 -5.5s7.83301 -10.5 10.5 -20.5l21 -74v0z" />
    <glyph glyph-name="aacute" unicode="&#xe1;" horiz-adv-x="286" 
d="M262 76l-42.9971 -0.000976562v101c-4 -8 -8.33301 -15.333 -13 -22s-9.33398 -12.667 -14.001 -18c-8 -9.33301 -15.667 -17 -23 -23s-13.666 -10.333 -18.999 -13c-0.666992 -0.666992 -1.33398 -1.16699 -2.00098 -1.5s-1.33398 -0.833008 -2.00098 -1.5
c-8.66699 -4.66699 -18.834 -9 -30.501 -13s-23.5 -6.33301 -35.5 -7h-3.5h-3.5c-8.66699 0 -17 1.33301 -25 4s-15.333 7.33398 -22 14.001c-4.66699 5.33301 -8.16699 11.166 -10.5 17.499s-3.5 13.166 -3.5 20.499c0 4.66699 0.5 9.66699 1.5 15
s2.16699 10.666 3.5 15.999c3.33301 12 8.16602 23.667 14.499 35s12.833 21 19.5 29l2.5 2.5l2.5 2.5c14 14.667 31.833 27.834 53.5 39.501s43.834 20.834 66.501 27.501c11.333 2.66699 22.333 4.83398 33 6.50098s21 2.5 31 2.5h22v-234v0zM213.003 267.999
c-6 0 -12.666 -1.17188 -19.999 -3.50488s-14.666 -5.16602 -21.999 -8.49902c-6.66699 -2.66699 -13.167 -5.83398 -19.5 -9.50098s-12.166 -7.5 -17.499 -11.5c-9.33301 -5.33301 -17.333 -10.666 -24 -15.999l-15 -12c-2 -2 -4.16699 -4.5 -6.5 -7.5
s-4.83301 -6.5 -7.5 -10.5c-2 -3.33301 -4.16699 -6.66602 -6.5 -9.99902s-4.5 -7 -6.5 -11c-2.66699 -5.33301 -4.83398 -10.666 -6.50098 -15.999s-2.5 -10 -2.5 -14c0 -2 0.333008 -3.83301 1 -5.5s1.33398 -3.16699 2.00098 -4.5c1.33301 -1.33301 3 -2.33301 5 -3
s4.33301 -1 7 -1c4 0 8.33301 0.666992 13 2s9.66699 3 15 5c3.33301 1.33301 6.83301 3 10.5 5s7.16699 3.66699 10.5 5c3.33301 2.66699 6.5 5 9.5 7l7.5 5c3.33301 2.66699 8.16602 7.33398 14.499 14.001s13.166 14.667 20.499 24c4.66699 6 9.16699 12.167 13.5 18.5
s8.16602 12.833 11.499 19.5c4 6.66699 7.16699 13.334 9.5 20.001s3.5 13 3.5 19v0zM252.004 419.994c0 -3.33301 -1.00098 -7.16699 -3.00098 -11.5s-5 -9.16602 -9 -14.499l-37 -53h-27l21 74c3.33301 10 7 16.833 11 20.5s10.667 5.5 20 5.5
c6.66699 0 12.334 -1.83301 17.001 -5.5s7 -8.83398 7 -15.501v0z" />
    <glyph glyph-name="acircumflex" unicode="&#xe2;" horiz-adv-x="282" 
d="M262 76l-42.9971 -0.000976562v101c-4 -8 -8.33301 -15.333 -13 -22s-9.33398 -12.667 -14.001 -18c-8 -9.33301 -15.667 -17 -23 -23s-13.666 -10.333 -18.999 -13c-0.666992 -0.666992 -1.33398 -1.16699 -2.00098 -1.5s-1.33398 -0.833008 -2.00098 -1.5
c-8.66699 -4.66699 -18.834 -9 -30.501 -13s-23.5 -6.33301 -35.5 -7h-3.5h-3.5c-8.66699 0 -17 1.33301 -25 4s-15.333 7.33398 -22 14.001c-4.66699 5.33301 -8.16699 11.166 -10.5 17.499s-3.5 13.166 -3.5 20.499c0 4.66699 0.5 9.66699 1.5 15
s2.16699 10.666 3.5 15.999c3.33301 12 8.16602 23.667 14.499 35s12.833 21 19.5 29l2.5 2.5l2.5 2.5c14 14.667 31.833 27.834 53.5 39.501s43.834 20.834 66.501 27.501c11.333 2.66699 22.333 4.83398 33 6.50098s21 2.5 31 2.5h22v-234v0zM213.003 267.999
c-6 0 -12.666 -1.17188 -19.999 -3.50488s-14.666 -5.16602 -21.999 -8.49902c-6.66699 -2.66699 -13.167 -5.83398 -19.5 -9.50098s-12.166 -7.5 -17.499 -11.5c-9.33301 -5.33301 -17.333 -10.666 -24 -15.999l-15 -12c-2 -2 -4.16699 -4.5 -6.5 -7.5
s-4.83301 -6.5 -7.5 -10.5c-2 -3.33301 -4.16699 -6.66602 -6.5 -9.99902s-4.5 -7 -6.5 -11c-2.66699 -5.33301 -4.83398 -10.666 -6.50098 -15.999s-2.5 -10 -2.5 -14c0 -2 0.333008 -3.83301 1 -5.5s1.33398 -3.16699 2.00098 -4.5c1.33301 -1.33301 3 -2.33301 5 -3
s4.33301 -1 7 -1c4 0 8.33301 0.666992 13 2s9.66699 3 15 5c3.33301 1.33301 6.83301 3 10.5 5s7.16699 3.66699 10.5 5c3.33301 2.66699 6.5 5 9.5 7l7.5 5c3.33301 2.66699 8.16602 7.33398 14.499 14.001s13.166 14.667 20.499 24c4.66699 6 9.16699 12.167 13.5 18.5
s8.16602 12.833 11.499 19.5c4 6.66699 7.16699 13.334 9.5 20.001s3.5 13 3.5 19v0zM259.004 335.994h-39l-40 66l-41 -66h-39l61 99h38l60 -99v0z" />
    <glyph glyph-name="atilde" unicode="&#xe3;" horiz-adv-x="282" 
d="M262 76l-42.9971 -0.000976562v101c-4 -8 -8.33301 -15.333 -13 -22s-9.33398 -12.667 -14.001 -18c-8 -9.33301 -15.667 -17 -23 -23s-13.666 -10.333 -18.999 -13c-0.666992 -0.666992 -1.33398 -1.16699 -2.00098 -1.5s-1.33398 -0.833008 -2.00098 -1.5
c-8.66699 -4.66699 -18.834 -9 -30.501 -13s-23.5 -6.33301 -35.5 -7h-3.5h-3.5c-8.66699 0 -17 1.33301 -25 4s-15.333 7.33398 -22 14.001c-4.66699 5.33301 -8.16699 11.166 -10.5 17.499s-3.5 13.166 -3.5 20.499c0 4.66699 0.5 9.66699 1.5 15
s2.16699 10.666 3.5 15.999c3.33301 12 8.16602 23.667 14.499 35s12.833 21 19.5 29l2.5 2.5l2.5 2.5c14 14.667 31.833 27.834 53.5 39.501s43.834 20.834 66.501 27.501c11.333 2.66699 22.333 4.83398 33 6.50098s21 2.5 31 2.5h22v-234v0zM213.003 267.999
c-6 0 -12.666 -1.17188 -19.999 -3.50488s-14.666 -5.16602 -21.999 -8.49902c-6.66699 -2.66699 -13.167 -5.83398 -19.5 -9.50098s-12.166 -7.5 -17.499 -11.5c-9.33301 -5.33301 -17.333 -10.666 -24 -15.999l-15 -12c-2 -2 -4.16699 -4.5 -6.5 -7.5
s-4.83301 -6.5 -7.5 -10.5c-2 -3.33301 -4.16699 -6.66602 -6.5 -9.99902s-4.5 -7 -6.5 -11c-2.66699 -5.33301 -4.83398 -10.666 -6.50098 -15.999s-2.5 -10 -2.5 -14c0 -2 0.333008 -3.83301 1 -5.5s1.33398 -3.16699 2.00098 -4.5c1.33301 -1.33301 3 -2.33301 5 -3
s4.33301 -1 7 -1c4 0 8.33301 0.666992 13 2s9.66699 3 15 5c3.33301 1.33301 6.83301 3 10.5 5s7.16699 3.66699 10.5 5c3.33301 2.66699 6.5 5 9.5 7l7.5 5c3.33301 2.66699 8.16602 7.33398 14.499 14.001s13.166 14.667 20.499 24c4.66699 6 9.16699 12.167 13.5 18.5
s8.16602 12.833 11.499 19.5c4 6.66699 7.16699 13.334 9.5 20.001s3.5 13 3.5 19v0zM279.004 407.994v-14.5c0 -5.66699 -0.333008 -11.167 -1 -16.5c-2 -12 -6 -22.833 -12 -32.5s-16.333 -14.5 -31 -14.5c-8 0 -14.5 1 -19.5 3s-9.83301 4.66699 -14.5 8
c-1.33301 1.33301 -2.83301 2.5 -4.5 3.5s-3.16699 2.16699 -4.5 3.5l-48 34c-4 2.66699 -7.33301 5 -10 7s-5 3.33301 -7 4c-1.33301 0.666992 -2.83301 1.16699 -4.5 1.5s-3.16699 0.5 -4.5 0.5c-8 0 -13.333 -4 -16 -12s-4 -16.667 -4 -26v-6v-6h-27
c0 4 0.166992 9 0.5 15s0.833008 12 1.5 18c2 11.333 6 21.5 12 30.5s16 13.5 30 13.5c6 0 11.5 -0.833008 16.5 -2.5s9.83301 -3.83398 14.5 -6.50098c2 -1.33301 4 -2.83301 6 -4.5s4 -3.16699 6 -4.5l46 -33l11 -7.5c3.33301 -2.33301 6.66602 -4.16602 9.99902 -5.49902
c1.33301 0 2.5 -0.166992 3.5 -0.5s2.16699 -0.5 3.5 -0.5c7.33301 0 12.333 3.33301 15 10s4.33398 14 5.00098 22v10v9h27v0z" />
    <glyph glyph-name="adieresis" unicode="&#xe4;" horiz-adv-x="275" 
d="M262 76l-42.9971 -0.000976562v101c-4 -8 -8.33301 -15.333 -13 -22s-9.33398 -12.667 -14.001 -18c-8 -9.33301 -15.667 -17 -23 -23s-13.666 -10.333 -18.999 -13c-0.666992 -0.666992 -1.33398 -1.16699 -2.00098 -1.5s-1.33398 -0.833008 -2.00098 -1.5
c-8.66699 -4.66699 -18.834 -9 -30.501 -13s-23.5 -6.33301 -35.5 -7h-3.5h-3.5c-8.66699 0 -17 1.33301 -25 4s-15.333 7.33398 -22 14.001c-4.66699 5.33301 -8.16699 11.166 -10.5 17.499s-3.5 13.166 -3.5 20.499c0 4.66699 0.5 9.66699 1.5 15
s2.16699 10.666 3.5 15.999c3.33301 12 8.16602 23.667 14.499 35s12.833 21 19.5 29l2.5 2.5l2.5 2.5c14 14.667 31.833 27.834 53.5 39.501s43.834 20.834 66.501 27.501c11.333 2.66699 22.333 4.83398 33 6.50098s21 2.5 31 2.5h22v-234v0zM213.003 267.999
c-6 0 -12.666 -1.17188 -19.999 -3.50488s-14.666 -5.16602 -21.999 -8.49902c-6.66699 -2.66699 -13.167 -5.83398 -19.5 -9.50098s-12.166 -7.5 -17.499 -11.5c-9.33301 -5.33301 -17.333 -10.666 -24 -15.999l-15 -12c-2 -2 -4.16699 -4.5 -6.5 -7.5
s-4.83301 -6.5 -7.5 -10.5c-2 -3.33301 -4.16699 -6.66602 -6.5 -9.99902s-4.5 -7 -6.5 -11c-2.66699 -5.33301 -4.83398 -10.666 -6.50098 -15.999s-2.5 -10 -2.5 -14c0 -2 0.333008 -3.83301 1 -5.5s1.33398 -3.16699 2.00098 -4.5c1.33301 -1.33301 3 -2.33301 5 -3
s4.33301 -1 7 -1c4 0 8.33301 0.666992 13 2s9.66699 3 15 5c3.33301 1.33301 6.83301 3 10.5 5s7.16699 3.66699 10.5 5c3.33301 2.66699 6.5 5 9.5 7l7.5 5c3.33301 2.66699 8.16602 7.33398 14.499 14.001s13.166 14.667 20.499 24c4.66699 6 9.16699 12.167 13.5 18.5
s8.16602 12.833 11.499 19.5c4 6.66699 7.16699 13.334 9.5 20.001s3.5 13 3.5 19v0zM165.004 366.994c0 -6.66699 -2.5 -12.5 -7.5 -17.5s-11.167 -7.5 -18.5 -7.5c-6.66699 0 -12.5 2.5 -17.5 7.5s-7.5 10.833 -7.5 17.5c0 7.33301 2.5 13.333 7.5 18s10.833 7 17.5 7
c7.33301 0 13.5 -2.33301 18.5 -7s7.5 -10.667 7.5 -18v0zM255.004 366.994c0 -6.66699 -2.33301 -12.5 -7 -17.5s-10.667 -7.5 -18 -7.5c-6.66699 0 -12.667 2.5 -18 7.5s-8 10.833 -8 17.5c0 7.33301 2.66699 13.333 8 18s11.333 7 18 7s12.5 -2.33301 17.5 -7
s7.5 -10.667 7.5 -18v0z" />
    <glyph glyph-name="aring" unicode="&#xe5;" horiz-adv-x="275" 
d="M262 76l-42.9971 -0.000976562v101c-4 -8 -8.33301 -15.333 -13 -22s-9.33398 -12.667 -14.001 -18c-8 -9.33301 -15.667 -17 -23 -23s-13.666 -10.333 -18.999 -13c-0.666992 -0.666992 -1.33398 -1.16699 -2.00098 -1.5s-1.33398 -0.833008 -2.00098 -1.5
c-8.66699 -4.66699 -18.834 -9 -30.501 -13s-23.5 -6.33301 -35.5 -7h-3.5h-3.5c-8.66699 0 -17 1.33301 -25 4s-15.333 7.33398 -22 14.001c-4.66699 5.33301 -8.16699 11.166 -10.5 17.499s-3.5 13.166 -3.5 20.499c0 4.66699 0.5 9.66699 1.5 15
s2.16699 10.666 3.5 15.999c3.33301 12 8.16602 23.667 14.499 35s12.833 21 19.5 29l2.5 2.5l2.5 2.5c14 14.667 31.833 27.834 53.5 39.501s43.834 20.834 66.501 27.501c11.333 2.66699 22.333 4.83398 33 6.50098s21 2.5 31 2.5h22v-234v0zM213.003 267.999
c-6 0 -12.666 -1.17188 -19.999 -3.50488s-14.666 -5.16602 -21.999 -8.49902c-6.66699 -2.66699 -13.167 -5.83398 -19.5 -9.50098s-12.166 -7.5 -17.499 -11.5c-9.33301 -5.33301 -17.333 -10.666 -24 -15.999l-15 -12c-2 -2 -4.16699 -4.5 -6.5 -7.5
s-4.83301 -6.5 -7.5 -10.5c-2 -3.33301 -4.16699 -6.66602 -6.5 -9.99902s-4.5 -7 -6.5 -11c-2.66699 -5.33301 -4.83398 -10.666 -6.50098 -15.999s-2.5 -10 -2.5 -14c0 -2 0.333008 -3.83301 1 -5.5s1.33398 -3.16699 2.00098 -4.5c1.33301 -1.33301 3 -2.33301 5 -3
s4.33301 -1 7 -1c4 0 8.33301 0.666992 13 2s9.66699 3 15 5c3.33301 1.33301 6.83301 3 10.5 5s7.16699 3.66699 10.5 5c3.33301 2.66699 6.5 5 9.5 7l7.5 5c3.33301 2.66699 8.16602 7.33398 14.499 14.001s13.166 14.667 20.499 24c4.66699 6 9.16699 12.167 13.5 18.5
s8.16602 12.833 11.499 19.5c4 6.66699 7.16699 13.334 9.5 20.001s3.5 13 3.5 19v0zM247.004 378.994c0 -13.333 -4.83301 -24.833 -14.5 -34.5s-21.167 -14.5 -34.5 -14.5s-24.833 4.83301 -34.5 14.5s-14.5 21.167 -14.5 34.5s4.83301 24.833 14.5 34.5
s21.167 14.5 34.5 14.5s24.833 -4.83301 34.5 -14.5s14.5 -21.167 14.5 -34.5v0zM233.004 378.994c0 10 -3.5 18.333 -10.5 25s-15.167 10 -24.5 10s-17.5 -3.33301 -24.5 -10s-10.5 -15 -10.5 -25c0 -9.33301 3.5 -17.5 10.5 -24.5s15.167 -10.5 24.5 -10.5
s17.5 3.5 24.5 10.5s10.5 15.167 10.5 24.5v0z" />
    <glyph glyph-name="ae" unicode="&#xe6;" horiz-adv-x="481" 
d="M459 193c0 -4.66699 -2.00098 -8.66504 -6.00098 -11.998s-9 -5 -15 -5h-167v-5c5.33301 -14.667 14.5 -26.834 27.5 -36.501s27.833 -14.5 44.5 -14.5c9.33301 0 18.5 1.83301 27.5 5.5s16.5 8.83398 22.5 15.501l31 -31c-10.667 -10.667 -23 -19 -37 -25
s-28.667 -9 -44 -9c-13.333 0 -26.166 2.16699 -38.499 6.5s-23.5 10.166 -33.5 17.499v-22h-43v88v2.5c0 1 -0.333008 1.83301 -1 2.5c0 0.666992 -0.166992 1.5 -0.5 2.5s-0.5 1.83301 -0.5 2.5c-4 -7.33301 -8.33301 -14.166 -13 -20.499l-13 -17.5
c-8 -9.33301 -15.667 -16.833 -23 -22.5s-13.666 -10.167 -18.999 -13.5c-0.666992 -0.666992 -1.33398 -1.16699 -2.00098 -1.5s-1.33398 -0.833008 -2.00098 -1.5c-8 -4 -17.167 -7.83301 -27.5 -11.5s-21.166 -6.16699 -32.499 -7.5c-2 -0.666992 -4 -1 -6 -1h-6
c-8.66699 0 -17 1.33301 -25 4s-15.333 7.33398 -22 14.001c-4.66699 5.33301 -8 11.166 -10 17.499s-3 12.833 -3 19.5c0 4.66699 0.333008 9.5 1 14.5s1.66699 9.83301 3 14.5c3.33301 12 7.83301 23.667 13.5 35s11.834 21 18.501 29
c1.33301 1.33301 2.5 2.66602 3.5 3.99902s2.16699 2.66602 3.5 3.99902c14.667 14.667 32.667 27.834 54 39.501s43.333 20.5 66 26.5c11.333 3.33301 22.5 5.83301 33.5 7.5s21.5 2.5 31.5 2.5h21v-25c10 7.33301 21.167 13.166 33.5 17.499s25.166 6.5 38.499 6.5
c32 0 59.333 -11.5 82 -34.5s34 -50.5 34 -82.5v0zM221.999 269.002c-6 0 -12.6631 -1.16797 -19.9961 -3.50098s-14.666 -5.16602 -21.999 -8.49902c-6.66699 -2.66699 -13.167 -5.83398 -19.5 -9.50098l-18.5 -10.5c-8.66699 -6 -16.334 -11.667 -23.001 -17l-15 -12
c-2 -2 -4 -4.16699 -6 -6.5s-4 -4.83301 -6 -7.5l-8 -12c-2.66699 -4 -5 -8.33301 -7 -13c-2.66699 -5.33301 -4.83398 -10.5 -6.50098 -15.5s-2.5 -9.5 -2.5 -13.5c0 -2 0.333008 -3.83301 1 -5.5s1.33398 -3.16699 2.00098 -4.5c1.33301 -2 3.16602 -3.33301 5.49902 -4
s4.83301 -1 7.5 -1c4 0 8.33301 0.666992 13 2s9.66699 3 15 5l9 4.5c3.33301 1.66699 6.66602 3.5 9.99902 5.5c4 2 7.66699 4.16699 11 6.5l8 5.5l14 14.5c6.66699 7 13.667 15.167 21 24.5c4.66699 6 9.16699 12.167 13.5 18.5s8.16602 12.5 11.499 18.5
c3.33301 6.66699 6.16602 13.334 8.49902 20.001s3.5 13 3.5 19v0zM410.003 220.001c-5.33301 13.333 -14.167 24.5 -26.5 33.5s-25.833 13.5 -40.5 13.5c-15.333 0 -29.333 -4.5 -42 -13.5s-21.667 -20.167 -27 -33.5h136v0z" />
    <glyph glyph-name="ccedilla" unicode="&#xe7;" horiz-adv-x="242" 
d="M231 107c-9.33301 -8.66699 -20.666 -15.667 -33.999 -21s-27 -8.66602 -41 -9.99902v-20c19.333 -2.66699 35.333 -9.16699 48 -19.5s19 -22.5 19 -36.5c0 -14.667 -8.66699 -28 -26 -40s-38.666 -18 -63.999 -18c-14.667 0 -27 1 -37 3s-18.667 4.66699 -26 8l25 29
c4.66699 -0.666992 10 -1.5 16 -2.5s13.333 -1.5 22 -1.5c13.333 0 24.5 2 33.5 6s13.5 9.33301 13.5 16c0 6 -4.5 11 -13.5 15s-20.167 6 -33.5 6h-3.5c-1 0 -2.16699 -0.333008 -3.5 -1h-4c-1.33301 0 -2.33301 -0.333008 -3 -1c-1.33301 0 -2.5 -0.166992 -3.5 -0.5
s-2.16699 -0.5 -3.5 -0.5v62c-26.667 6.66699 -50.167 20.5 -70.5 41.5s-30.5 44.833 -30.5 71.5c0 30 12.667 56.167 38 78.5s53 34.833 83 37.5h5.5h5.5c4.66699 0 10.5 -0.5 17.5 -1.5s14.167 -2.5 21.5 -4.5c9.33301 -2.66699 18.166 -5.83398 26.499 -9.50098
s14.5 -7.5 18.5 -11.5l-29 -35c-6.66699 4.66699 -13.667 8.66699 -21 12s-15 5.33301 -23 6c-1.33301 0.666992 -3 1 -5 1h-6c-3.33301 0 -6.5 -0.166992 -9.5 -0.5s-6.16699 -0.833008 -9.5 -1.5c-17.333 -4 -33.333 -12.667 -48 -26s-22 -28.333 -22 -45
s7.33301 -31.667 22 -45s30.667 -22.333 48 -27c3.33301 -0.666992 6.5 -1.16699 9.5 -1.5s6.16699 -0.5 9.5 -0.5c2.66699 0 5.16699 0.166992 7.5 0.5s4.83301 0.5 7.5 0.5c6.66699 2 13.667 4.66699 21 8s13.666 7.33301 18.999 12l33 -33v0z" />
    <glyph glyph-name="egrave" unicode="&#xe8;" horiz-adv-x="260" 
d="M245 193c0 -4.66699 -2.00195 -8.66699 -6.00195 -12s-9 -5 -15 -5h-167c3.33301 -16 11.833 -29.5 25.5 -40.5s28.834 -16.5 45.501 -16.5c10 0 19.5 2 28.5 6s16.5 9.33301 22.5 16l31 -31c-10.667 -10.667 -23 -19 -37 -25s-29 -9 -45 -9c-32 0 -59.333 11.5 -82 34.5
s-34 50.5 -34 82.5s11.333 59.333 34 82s50 34 82 34c32.667 0 60.334 -11.333 83.001 -34s34 -50 34 -82v0zM195.998 220c-5.33301 13.333 -14.167 24.333 -26.5 33s-26.166 13 -41.499 13c-14.667 0 -28.334 -4.33301 -41.001 -13s-21.667 -19.667 -27 -33h136v0z
M155.997 330l-27 0.000976562l-37 53c-4 5.33301 -7 10.166 -9 14.499s-3 8.16602 -3 11.499c0 6.66699 2.33301 11.834 7 15.501s10.334 5.5 17.001 5.5c9.33301 0 16.166 -1.83301 20.499 -5.5s7.83301 -10.5 10.5 -20.5l21 -74v0z" />
    <glyph glyph-name="eacute" unicode="&#xe9;" horiz-adv-x="260" 
d="M245 193c0 -4.66699 -2.00195 -8.66699 -6.00195 -12s-9 -5 -15 -5h-167c3.33301 -16 11.833 -29.5 25.5 -40.5s28.834 -16.5 45.501 -16.5c10 0 19.5 2 28.5 6s16.5 9.33301 22.5 16l31 -31c-10.667 -10.667 -23 -19 -37 -25s-29 -9 -45 -9c-32 0 -59.333 11.5 -82 34.5
s-34 50.5 -34 82.5s11.333 59.333 34 82s50 34 82 34c32.667 0 60.334 -11.333 83.001 -34s34 -50 34 -82v0zM195.998 220c-5.33301 13.333 -14.167 24.333 -26.5 33s-26.166 13 -41.499 13c-14.667 0 -28.334 -4.33301 -41.001 -13s-21.667 -19.667 -27 -33h136v0z
M204.997 409c0 -3.33301 -1.00098 -7.16699 -3.00098 -11.5s-5 -9.16602 -9 -14.499l-37 -53h-27l21 74c3.33301 10 7 16.833 11 20.5s10.667 5.5 20 5.5c6.66699 0 12.334 -1.83301 17.001 -5.5s7 -8.83398 7 -15.501v0z" />
    <glyph glyph-name="ecircumflex" unicode="&#xea;" horiz-adv-x="264" 
d="M245 193c0 -4.66699 -2.00195 -8.66699 -6.00195 -12s-9 -5 -15 -5h-167c3.33301 -16 11.833 -29.5 25.5 -40.5s28.834 -16.5 45.501 -16.5c10 0 19.5 2 28.5 6s16.5 9.33301 22.5 16l31 -31c-10.667 -10.667 -23 -19 -37 -25s-29 -9 -45 -9c-32 0 -59.333 11.5 -82 34.5
s-34 50.5 -34 82.5s11.333 59.333 34 82s50 34 82 34c32.667 0 60.334 -11.333 83.001 -34s34 -50 34 -82v0zM195.998 220c-5.33301 13.333 -14.167 24.333 -26.5 33s-26.166 13 -41.499 13c-14.667 0 -28.334 -4.33301 -41.001 -13s-21.667 -19.667 -27 -33h136v0z
M209.997 330h-39l-40 66l-41 -66h-39l61 99h38l60 -99v0z" />
    <glyph glyph-name="edieresis" unicode="&#xeb;" horiz-adv-x="260" 
d="M245 193c0 -4.66699 -2.00195 -8.66699 -6.00195 -12s-9 -5 -15 -5h-167c3.33301 -16 11.833 -29.5 25.5 -40.5s28.834 -16.5 45.501 -16.5c10 0 19.5 2 28.5 6s16.5 9.33301 22.5 16l31 -31c-10.667 -10.667 -23 -19 -37 -25s-29 -9 -45 -9c-32 0 -59.333 11.5 -82 34.5
s-34 50.5 -34 82.5s11.333 59.333 34 82s50 34 82 34c32.667 0 60.334 -11.333 83.001 -34s34 -50 34 -82v0zM195.998 220c-5.33301 13.333 -14.167 24.333 -26.5 33s-26.166 13 -41.499 13c-14.667 0 -28.334 -4.33301 -41.001 -13s-21.667 -19.667 -27 -33h136v0z
M115.997 360c0 -6.66699 -2.5 -12.5 -7.5 -17.5s-11.167 -7.5 -18.5 -7.5c-6.66699 0 -12.5 2.5 -17.5 7.5s-7.5 10.833 -7.5 17.5c0 7.33301 2.5 13.333 7.5 18s10.833 7 17.5 7c7.33301 0 13.5 -2.33301 18.5 -7s7.5 -10.667 7.5 -18v0zM205.997 360
c0 -6.66699 -2.33301 -12.5 -7 -17.5s-10.667 -7.5 -18 -7.5c-6.66699 0 -12.667 2.5 -18 7.5s-8 10.833 -8 17.5c0 7.33301 2.66699 13.333 8 18s11.333 7 18 7s12.5 -2.33301 17.5 -7s7.5 -10.667 7.5 -18v0z" />
    <glyph glyph-name="igrave" unicode="&#xec;" horiz-adv-x="86" 
d="M66 76h-44v233h44v-233v0zM63 329l-26.999 0.000976562l-37 53c-3.33301 5.33301 -6 10.166 -8 14.499s-3 8.16602 -3 11.499c0 6.66699 2.16699 11.834 6.5 15.501s9.83301 5.5 16.5 5.5c9.33301 0 16.166 -1.83301 20.499 -5.5s7.83301 -10.5 10.5 -20.5l21 -74v0z" />
    <glyph glyph-name="iacute" unicode="&#xed;" horiz-adv-x="83" 
d="M66 76h-44v233h44v-233v0zM111 407c0 -3.33301 -1.00098 -7.16699 -3.00098 -11.5s-5 -9.16602 -9 -14.499l-37 -53h-27l21 74c3.33301 10 7 16.833 11 20.5s10.667 5.5 20 5.5c6.66699 0 12.334 -1.83301 17.001 -5.5s7 -8.83398 7 -15.501v0z" />
    <glyph glyph-name="icircumflex" unicode="&#xee;" horiz-adv-x="83" 
d="M66 76h-44v233h44v-233v0zM125 314h-39l-40 66l-41 -66h-39l61 99h38l60 -99v0z" />
    <glyph glyph-name="idieresis" unicode="&#xef;" horiz-adv-x="87" 
d="M66 76h-44v233h44v-233v0zM29 359c0 -6.66699 -2.49902 -12.5 -7.49902 -17.5s-11.167 -7.5 -18.5 -7.5c-6.66699 0 -12.334 2.5 -17.001 7.5s-7 10.833 -7 17.5c0 7.33301 2.5 13.333 7.5 18s10.5 7 16.5 7c7.33301 0 13.5 -2.33301 18.5 -7s7.5 -10.667 7.5 -18v0z
M119.001 359c0 -6.66699 -2.33301 -12.5 -7 -17.5s-10.667 -7.5 -18 -7.5c-6.66699 0 -12.667 2.5 -18 7.5s-8 10.833 -8 17.5c0 7.33301 2.66699 13.333 8 18s11.333 7 18 7s12.5 -2.33301 17.5 -7s7.5 -10.667 7.5 -18v0z" />
    <glyph glyph-name="eth" unicode="&#xf0;" horiz-adv-x="274" 
d="M246 245c4 -6 7.16895 -12.501 9.50195 -19.501s3.83301 -13.833 4.5 -20.5c0.666992 -3.33301 1.16699 -6.66602 1.5 -9.99902s0.5 -6.66602 0.5 -9.99902c-0.666992 -20 -6 -39 -16 -57s-24.333 -32.333 -43 -43c-8.66699 -5.33301 -18 -9.33301 -28 -12s-20 -4 -30 -4
c-20 0 -39.167 5.16699 -57.5 15.5s-33.166 24.833 -44.499 43.5c-4.66699 9.33301 -8.33398 18.833 -11.001 28.5s-4 19.5 -4 29.5c0 20 5 39.167 15 57.5s24.333 32.833 43 43.5c9.33301 5.33301 19 9.16602 29 11.499s20 3.5 30 3.5h4h5
c1.33301 0 2.66602 -0.166992 3.99902 -0.5s2.66602 -0.5 3.99902 -0.5l-40 68l-93 -38l-17 42l87 35l-47 81l40 23l49 -87l88 36l17 -42l-82 -33l82 -141v0zM209.002 223.999c-6.66699 11.333 -15.8359 19.9971 -27.5029 25.9971s-24.167 9 -37.5 9
c-2 0 -4 -0.166992 -6 -0.5s-4 -0.5 -6 -0.5c-4 -0.666992 -8 -1.66699 -12 -3s-8 -3.33301 -12 -6c-12 -6.66699 -21.167 -15.667 -27.5 -27s-9.16602 -23.333 -8.49902 -36c0 -6.66699 0.833008 -13.167 2.5 -19.5s4.16699 -12.166 7.5 -17.499c6.66699 -12 16 -21 28 -27
s24.333 -9 37 -9c6 0 12 0.833008 18 2.5s11.667 3.83398 17 6.50098c12 7.33301 21.167 16.833 27.5 28.5s9.5 23.834 9.5 36.501c0 3.33301 -0.166992 6.5 -0.5 9.5s-1.16602 6.16699 -2.49902 9.5c-0.666992 2.66699 -1.66699 5.66699 -3 9s-2.66602 6.33301 -3.99902 9
v0z" />
    <glyph glyph-name="ntilde" unicode="&#xf1;" horiz-adv-x="252" 
d="M233 77l-44.002 0.000976562v144v2.5v2.5c-1.33301 10 -5.5 19.333 -12.5 28s-16.5 13 -28.5 13c-3.33301 0 -10.166 -2.5 -20.499 -7.5l-32.5 -16.5l-4 -2c-1.33301 -0.666992 -2.33301 -1.33398 -3 -2.00098l-17.5 -10l-15.5 -9v-144h-44v233h44v-41
c3.33301 2 7 4 11 6l12 6c0.666992 0.666992 1.66699 1.16699 3 1.5s2.33301 0.833008 3 1.5c12.667 6.66699 24.834 12.667 36.501 18s19.5 8.33301 23.5 9c2 0.666992 4 1 6 1h6c21.333 0 39.5 -9 54.5 -27s22.5 -39 22.5 -63v-144v0zM223.998 412.001v-14.5
c0 -5.66699 -0.333008 -11.167 -1 -16.5c-2 -12 -6 -22.833 -12 -32.5s-16.333 -14.5 -31 -14.5c-8 0 -14.5 1 -19.5 3s-9.83301 4.66699 -14.5 8c-1.33301 1.33301 -2.83301 2.5 -4.5 3.5s-3.16699 2.16699 -4.5 3.5l-48 34c-4 2.66699 -7.33301 5 -10 7s-5 3.33301 -7 4
c-1.33301 0.666992 -2.83301 1.16699 -4.5 1.5s-3.16699 0.5 -4.5 0.5c-8 0 -13.333 -4 -16 -12s-4 -16.667 -4 -26v-6v-6h-27c0 4 0.166992 9 0.5 15s0.833008 12 1.5 18c2 11.333 6 21.5 12 30.5s16 13.5 30 13.5c6 0 11.5 -0.833008 16.5 -2.5
s9.83301 -3.83398 14.5 -6.50098c2 -1.33301 4 -2.83301 6 -4.5s4 -3.16699 6 -4.5l46 -33l11 -7.5c3.33301 -2.33301 6.66602 -4.16602 9.99902 -5.49902c1.33301 0 2.5 -0.166992 3.5 -0.5s2.16699 -0.5 3.5 -0.5c7.33301 0 12.333 3.33301 15 10s4.33398 14 5.00098 22
v10v9h27v0z" />
    <glyph glyph-name="ograve" unicode="&#xf2;" horiz-adv-x="254" 
d="M245 193c0 -32 -11.333 -59.5 -34 -82.5s-50.334 -34.5 -83.001 -34.5c-32 0 -59.333 11.5 -82 34.5s-34 50.5 -34 82.5s11.333 59.333 34 82s50 34 82 34c32.667 0 60.334 -11.333 83.001 -34s34 -50 34 -82v0zM202 193c0 20 -7.33301 37.167 -22 51.5
s-32 21.5 -52 21.5s-37.167 -7.16699 -51.5 -21.5s-21.5 -31.5 -21.5 -51.5s7.16699 -37.333 21.5 -52s31.5 -22 51.5 -22s37.333 7.33301 52 22s22 32 22 52v0zM157 325l-27 0.000976562l-37 53c-4 5.33301 -7 10.166 -9 14.499s-3 8.16602 -3 11.499
c0 6.66699 2.33301 11.834 7 15.501s10.334 5.5 17.001 5.5c9.33301 0 16.166 -1.83301 20.499 -5.5s7.83301 -10.5 10.5 -20.5l21 -74v0z" />
    <glyph glyph-name="oacute" unicode="&#xf3;" horiz-adv-x="261" 
d="M245 193c0 -32 -11.333 -59.5 -34 -82.5s-50.334 -34.5 -83.001 -34.5c-32 0 -59.333 11.5 -82 34.5s-34 50.5 -34 82.5s11.333 59.333 34 82s50 34 82 34c32.667 0 60.334 -11.333 83.001 -34s34 -50 34 -82v0zM202 193c0 20 -7.33301 37.167 -22 51.5
s-32 21.5 -52 21.5s-37.167 -7.16699 -51.5 -21.5s-21.5 -31.5 -21.5 -51.5s7.16699 -37.333 21.5 -52s31.5 -22 51.5 -22s37.333 7.33301 52 22s22 32 22 52v0zM209 405c0 -3.33301 -1.00098 -7.16699 -3.00098 -11.5s-5 -9.16602 -9 -14.499l-37 -53h-27l21 74
c3.33301 10 7 16.833 11 20.5s10.667 5.5 20 5.5c6.66699 0 12.334 -1.83301 17.001 -5.5s7 -8.83398 7 -15.501v0z" />
    <glyph glyph-name="ocircumflex" unicode="&#xf4;" horiz-adv-x="257" 
d="M245 193c0 -32 -11.333 -59.5 -34 -82.5s-50.334 -34.5 -83.001 -34.5c-32 0 -59.333 11.5 -82 34.5s-34 50.5 -34 82.5s11.333 59.333 34 82s50 34 82 34c32.667 0 60.334 -11.333 83.001 -34s34 -50 34 -82v0zM202 193c0 20 -7.33301 37.167 -22 51.5
s-32 21.5 -52 21.5s-37.167 -7.16699 -51.5 -21.5s-21.5 -31.5 -21.5 -51.5s7.16699 -37.333 21.5 -52s31.5 -22 51.5 -22s37.333 7.33301 52 22s22 32 22 52v0zM206 317h-39l-40 66l-41 -66h-39l61 99h38l60 -99v0z" />
    <glyph glyph-name="otilde" unicode="&#xf5;" horiz-adv-x="261" 
d="M245 193c0 -32 -11.333 -59.5 -34 -82.5s-50.334 -34.5 -83.001 -34.5c-32 0 -59.333 11.5 -82 34.5s-34 50.5 -34 82.5s11.333 59.333 34 82s50 34 82 34c32.667 0 60.334 -11.333 83.001 -34s34 -50 34 -82v0zM202 193c0 20 -7.33301 37.167 -22 51.5
s-32 21.5 -52 21.5s-37.167 -7.16699 -51.5 -21.5s-21.5 -31.5 -21.5 -51.5s7.16699 -37.333 21.5 -52s31.5 -22 51.5 -22s37.333 7.33301 52 22s22 32 22 52v0zM243 408v-14.5c0 -5.66699 -0.333008 -11.167 -1 -16.5c-2 -12 -6 -22.833 -12 -32.5s-16.333 -14.5 -31 -14.5
c-8 0 -14.5 1 -19.5 3s-9.83301 4.66699 -14.5 8c-1.33301 1.33301 -2.83301 2.5 -4.5 3.5s-3.16699 2.16699 -4.5 3.5l-48 34c-4 2.66699 -7.33301 5 -10 7s-5 3.33301 -7 4c-1.33301 0.666992 -2.83301 1.16699 -4.5 1.5s-3.16699 0.5 -4.5 0.5c-8 0 -13.333 -4 -16 -12
s-4 -16.667 -4 -26v-6v-6h-27c0 4 0.166992 9 0.5 15s0.833008 12 1.5 18c2 11.333 6 21.5 12 30.5s16 13.5 30 13.5c6 0 11.5 -0.833008 16.5 -2.5s9.83301 -3.83398 14.5 -6.50098c2 -1.33301 4 -2.83301 6 -4.5s4 -3.16699 6 -4.5l46 -33l11 -7.5
c3.33301 -2.33301 6.66602 -4.16602 9.99902 -5.49902c1.33301 0 2.5 -0.166992 3.5 -0.5s2.16699 -0.5 3.5 -0.5c7.33301 0 12.333 3.33301 15 10s4.33398 14 5.00098 22v10v9h27v0z" />
    <glyph glyph-name="odieresis" unicode="&#xf6;" horiz-adv-x="257" 
d="M245 193c0 -32 -11.333 -59.5 -34 -82.5s-50.334 -34.5 -83.001 -34.5c-32 0 -59.333 11.5 -82 34.5s-34 50.5 -34 82.5s11.333 59.333 34 82s50 34 82 34c32.667 0 60.334 -11.333 83.001 -34s34 -50 34 -82v0zM202 193c0 20 -7.33301 37.167 -22 51.5
s-32 21.5 -52 21.5s-37.167 -7.16699 -51.5 -21.5s-21.5 -31.5 -21.5 -51.5s7.16699 -37.333 21.5 -52s31.5 -22 51.5 -22s37.333 7.33301 52 22s22 32 22 52v0zM111 366c0 -6.66699 -2.5 -12.5 -7.5 -17.5s-11.167 -7.5 -18.5 -7.5c-6.66699 0 -12.5 2.5 -17.5 7.5
s-7.5 10.833 -7.5 17.5c0 7.33301 2.5 13.333 7.5 18s10.833 7 17.5 7c7.33301 0 13.5 -2.33301 18.5 -7s7.5 -10.667 7.5 -18v0zM201 366c0 -6.66699 -2.33301 -12.5 -7 -17.5s-10.667 -7.5 -18 -7.5c-6.66699 0 -12.667 2.5 -18 7.5s-8 10.833 -8 17.5
c0 7.33301 2.66699 13.333 8 18s11.333 7 18 7s12.5 -2.33301 17.5 -7s7.5 -10.667 7.5 -18v0z" />
    <glyph glyph-name="divide" unicode="&#xf7;" horiz-adv-x="352" 
d="M212 231c0 -1.33301 -0.171875 -3 -0.504883 -5s-1.16602 -4 -2.49902 -6c-2 -4.66699 -5 -9 -9 -13s-8 -6.33301 -12 -7h-1.5h-1.5h-8c-1.33301 0 -2.66602 0.166992 -3.99902 0.5s-2.66602 0.833008 -3.99902 1.5c-3.33301 2 -6.66602 4.5 -9.99902 7.5
s-5.66602 6.16699 -6.99902 9.5c-0.666992 1.33301 -1.16699 2.5 -1.5 3.5s-0.5 2.16699 -0.5 3.5v8c0 5.33301 2.16699 10.333 6.5 15s8.83301 8 13.5 10c2 0.666992 3.83301 1.16699 5.5 1.5s3.16699 0.5 4.5 0.5c8 0 15.333 -3 22 -9s10 -13 10 -21v0zM340.995 308h-334
v44h334v-44v0zM211.995 424c0 -1.33301 -0.170898 -2.83301 -0.503906 -4.5s-0.833008 -3.5 -1.5 -5.5c-2 -4.66699 -5.16699 -9 -9.5 -13s-8.5 -6.33301 -12.5 -7h-1.5h-1.5h-8c-1.33301 0 -2.66602 0.166992 -3.99902 0.5s-2.66602 0.833008 -3.99902 1.5
c-3.33301 2 -6.66602 4.5 -9.99902 7.5s-5.66602 6.16699 -6.99902 9.5c-0.666992 1.33301 -1.16699 2.5 -1.5 3.5s-0.5 2.16699 -0.5 3.5v8c0 5.33301 2.16699 10.333 6.5 15s8.83301 8 13.5 10c2 0.666992 3.83301 1.16699 5.5 1.5s3.16699 0.5 4.5 0.5
c8 0 15.333 -3.16699 22 -9.5s10 -13.5 10 -21.5v0z" />
    <glyph glyph-name="oslash" unicode="&#xf8;" horiz-adv-x="321" 
d="M307 308l-49.001 -49.002c6.66699 -9.33301 11.667 -19.666 15 -30.999s5 -23 5 -35c0 -32 -11.333 -59.5 -34 -82.5s-50 -34.5 -82 -34.5c-12.667 0 -24.667 1.83301 -36 5.5s-21.666 8.83398 -30.999 15.501l-49 -50l-31 31l50 50
c-6.66699 9.33301 -11.667 19.5 -15 30.5s-5 22.5 -5 34.5c0 32 11.5 59.333 34.5 82s50.5 34 82.5 34c12 0 23.5 -1.66699 34.5 -5s20.833 -8 29.5 -14l50 49l31 -31v0zM234.999 192.998c0 6 -0.668945 12.001 -2.00195 18.001s-3.66602 11.667 -6.99902 17l-99 -100
c5.33301 -2.66699 10.833 -4.83398 16.5 -6.50098s11.834 -2.5 18.501 -2.5c20 0 37.167 7.33301 51.5 22s21.5 32 21.5 52v0zM194.997 257.999c-4.66699 2.66699 -9.83301 4.66602 -15.5 5.99902s-11.5 2 -17.5 2c-20 0 -37.333 -7.16699 -52 -21.5s-22 -31.5 -22 -51.5
c0 -6 0.666992 -11.667 2 -17s3.33301 -10.666 6 -15.999l99 98v0z" />
    <glyph glyph-name="ugrave" unicode="&#xf9;" horiz-adv-x="260" 
d="M245 204c0 -32 -11.332 -59.5 -33.999 -82.5s-50.334 -34.5 -83.001 -34.5c-32 0 -59.333 11.5 -82 34.5s-34 50.5 -34 82.5v117h43v-117c0 -20 7.16699 -37.167 21.5 -51.5s31.5 -21.5 51.5 -21.5s37.333 7.16699 52 21.5s22 31.5 22 51.5v117h43v-117v0zM161.001 316
l-27 0.000976562l-37 53c-4 5.33301 -7 10.166 -9 14.499s-3 8.16602 -3 11.499c0 6.66699 2.33301 11.834 7 15.501s10.334 5.5 17.001 5.5c9.33301 0 16.166 -1.83301 20.499 -5.5s7.83301 -10.5 10.5 -20.5l21 -74v0z" />
    <glyph glyph-name="uacute" unicode="&#xfa;" horiz-adv-x="257" 
d="M245 204c0 -32 -11.332 -59.5 -33.999 -82.5s-50.334 -34.5 -83.001 -34.5c-32 0 -59.333 11.5 -82 34.5s-34 50.5 -34 82.5v117h43v-117c0 -20 7.16699 -37.167 21.5 -51.5s31.5 -21.5 51.5 -21.5s37.333 7.16699 52 21.5s22 31.5 22 51.5v117h43v-117v0zM179.001 398
c0 -3.33301 -1.00098 -7.16699 -3.00098 -11.5s-5 -9.16602 -9 -14.499l-37 -53h-27l21 74c3.33301 10 7 16.833 11 20.5s10.667 5.5 20 5.5c6.66699 0 12.334 -1.83301 17.001 -5.5s7 -8.83398 7 -15.501v0z" />
    <glyph glyph-name="ucircumflex" unicode="&#xfb;" horiz-adv-x="260" 
d="M245 204c0 -32 -11.332 -59.5 -33.999 -82.5s-50.334 -34.5 -83.001 -34.5c-32 0 -59.333 11.5 -82 34.5s-34 50.5 -34 82.5v117h43v-117c0 -20 7.16699 -37.167 21.5 -51.5s31.5 -21.5 51.5 -21.5s37.333 7.16699 52 21.5s22 31.5 22 51.5v117h43v-117v0zM206.001 337
h-39l-40 66l-41 -66h-39l61 99h38l60 -99v0z" />
    <glyph glyph-name="udieresis" unicode="&#xfc;" horiz-adv-x="257" 
d="M245 204c0 -32 -11.332 -59.5 -33.999 -82.5s-50.334 -34.5 -83.001 -34.5c-32 0 -59.333 11.5 -82 34.5s-34 50.5 -34 82.5v117h43v-117c0 -20 7.16699 -37.167 21.5 -51.5s31.5 -21.5 51.5 -21.5s37.333 7.16699 52 21.5s22 31.5 22 51.5v117h43v-117v0zM110.001 366
c0 -6.66699 -2.5 -12.5 -7.5 -17.5s-11.167 -7.5 -18.5 -7.5c-6.66699 0 -12.5 2.5 -17.5 7.5s-7.5 10.833 -7.5 17.5c0 7.33301 2.5 13.333 7.5 18s10.833 7 17.5 7c7.33301 0 13.5 -2.33301 18.5 -7s7.5 -10.667 7.5 -18v0zM200.001 366
c0 -6.66699 -2.33301 -12.5 -7 -17.5s-10.667 -7.5 -18 -7.5c-6.66699 0 -12.667 2.5 -18 7.5s-8 10.833 -8 17.5c0 7.33301 2.66699 13.333 8 18s11.333 7 18 7s12.5 -2.33301 17.5 -7s7.5 -10.667 7.5 -18v0z" />
    <glyph glyph-name="yacute" unicode="&#xfd;" 
 />
    <glyph glyph-name="thorn" unicode="&#xfe;" horiz-adv-x="274" 
d="M261 194c0 -32 -11.3311 -59.502 -33.998 -82.502s-50.334 -34.5 -83.001 -34.5c-4 0 -9.33301 0.166992 -16 0.5s-13.334 0.833008 -20.001 1.5c-4 0 -8 0.333008 -12 1s-7.66699 1.33398 -11 2.00098v-141h-43v300
c-6.66699 -2.66699 -12.834 -5.33398 -18.501 -8.00098s-9.5 -4.66699 -11.5 -6v51c2.66699 0.666992 6.66699 1.83398 12 3.50098s11.333 3.83398 18 6.50098v500h43v-488c2 0.666992 3.83301 1.16699 5.5 1.5s3.16699 0.5 4.5 0.5c10 2 19.333 4 28 6s15.667 3 21 3
c32.667 0 60.334 -11.5 83.001 -34.5s34 -50.5 34 -82.5v0zM218.002 193.998c0 20 -7.33398 37.166 -22.001 51.499s-32 21.5 -52 21.5c-6.66699 0 -15.167 -1.16699 -25.5 -3.5s-21.5 -5.16602 -33.5 -8.49902v-125c3.33301 -1.33301 7 -2.5 11 -3.5s8 -1.83301 12 -2.5
c6.66699 -1.33301 13.334 -2.33301 20.001 -3s12 -1 16 -1c20 0 37.333 7.33301 52 22s22 32 22 52v0z" />
    <glyph glyph-name="ydieresis" unicode="&#xff;" horiz-adv-x="256" 
d="M245 131l-40.002 -18.001v-73c0 -27.333 -9.66699 -50.833 -29 -70.5s-42.666 -29.5 -69.999 -29.5v43c15.333 0.666992 28.333 6.66699 39 18s16 24.333 16 39v54l-44 -14l-10 -2c-3.33301 -0.666992 -6.66602 -1 -9.99902 -1c-22 0 -41.667 9 -59 27s-26 38.333 -26 61
v144h43v-144v-2.5v-2.5c2 -10 7.33301 -19 16 -27s18.667 -12 30 -12c2.66699 0 5.16699 0.333008 7.5 1s4.83301 1.33398 7.5 2.00098l45 17v168h44v-147l19 8l21 -39v0zM92.998 355.999c0 -6.66699 -2.5 -12.5 -7.5 -17.5s-11.167 -7.5 -18.5 -7.5
c-6.66699 0 -12.5 2.5 -17.5 7.5s-7.5 10.833 -7.5 17.5c0 7.33301 2.5 13.333 7.5 18s10.833 7 17.5 7c7.33301 0 13.5 -2.33301 18.5 -7s7.5 -10.667 7.5 -18v0zM182.998 355.999c0 -6.66699 -2.33301 -12.5 -7 -17.5s-10.667 -7.5 -18 -7.5
c-6.66699 0 -12.667 2.5 -18 7.5s-8 10.833 -8 17.5c0 7.33301 2.66699 13.333 8 18s11.333 7 18 7s12.5 -2.33301 17.5 -7s7.5 -10.667 7.5 -18v0z" />
    <glyph glyph-name="Abreve" unicode="&#x102;" 
 />
    <glyph glyph-name="abreve" unicode="&#x103;" 
 />
    <glyph glyph-name="Aogonek" unicode="&#x104;" 
 />
    <glyph glyph-name="aogonek" unicode="&#x105;" 
 />
    <glyph glyph-name="Cacute" unicode="&#x106;" 
 />
    <glyph glyph-name="cacute" unicode="&#x107;" 
 />
    <glyph glyph-name="Ccaron" unicode="&#x10c;" 
 />
    <glyph glyph-name="ccaron" unicode="&#x10d;" 
 />
    <glyph glyph-name="Dcaron" unicode="&#x10e;" 
 />
    <glyph glyph-name="dcaron" unicode="&#x10f;" 
 />
    <glyph glyph-name="Dslash" unicode="&#x110;" 
 />
    <glyph glyph-name="dslash" unicode="&#x111;" 
 />
    <glyph glyph-name="Eogonek" unicode="&#x118;" 
 />
    <glyph glyph-name="eogonek" unicode="&#x119;" 
 />
    <glyph glyph-name="Ecaron" unicode="&#x11a;" 
 />
    <glyph glyph-name="ecaron" unicode="&#x11b;" 
 />
    <glyph glyph-name="Gbreve" unicode="&#x11e;" 
 />
    <glyph glyph-name="gbreve" unicode="&#x11f;" 
 />
    <glyph glyph-name="Idot" unicode="&#x130;" 
 />
    <glyph glyph-name="dotlessi" unicode="&#x131;" horiz-adv-x="87" 
d="M66 76h-44v233h44v-233v0z" />
    <glyph glyph-name="Lacute" unicode="&#x139;" 
 />
    <glyph glyph-name="lacute" unicode="&#x13a;" 
 />
    <glyph glyph-name="Lcaron" unicode="&#x13d;" 
 />
    <glyph glyph-name="lcaron" unicode="&#x13e;" 
 />
    <glyph glyph-name="Ldot" unicode="&#x13f;" 
 />
    <glyph glyph-name="ldot" unicode="&#x140;" 
 />
    <glyph glyph-name="Lslash" unicode="&#x141;" 
 />
    <glyph glyph-name="lslash" unicode="&#x142;" 
 />
    <glyph glyph-name="Nacute" unicode="&#x143;" 
 />
    <glyph glyph-name="nacute" unicode="&#x144;" 
 />
    <glyph glyph-name="Ncaron" unicode="&#x147;" 
 />
    <glyph glyph-name="ncaron" unicode="&#x148;" 
 />
    <glyph glyph-name="Odblacute" unicode="&#x150;" 
 />
    <glyph glyph-name="odblacute" unicode="&#x151;" 
 />
    <glyph glyph-name="OE" unicode="&#x152;" horiz-adv-x="1066" 
d="M1034 200l-367 -0.000976562v-155h352v-45h-487v26c-22.667 -10 -46.167 -17.5 -70.5 -22.5s-49.5 -7.5 -75.5 -7.5c-98.667 0 -183.5 35.333 -254.5 106s-106.5 155.667 -106.5 255s35.5 184.333 106.5 255s155.833 106 254.5 106c26 0 51.167 -2.66699 75.5 -8
s47.833 -12.666 70.5 -21.999v25h487v-44h-352v-424h367v-45v0zM532 78.999v555.002c-22 11.333 -45.167 20.166 -69.5 26.499s-49.833 9.5 -76.5 9.5c-34 0 -66.5 -5.16699 -97.5 -15.5s-59.5 -25.166 -85.5 -44.499v-507c26 -18.667 54.5 -33.334 85.5 -44.001
s63.5 -16 97.5 -16c26.667 0 52.167 3.16699 76.5 9.5s47.5 15.166 69.5 26.499v0z" />
    <glyph glyph-name="oe" unicode="&#x153;" horiz-adv-x="464" 
d="M443 194c0 -4.66699 -2.00391 -8.83496 -6.00391 -12.502s-8.66699 -5.5 -14 -5.5h-168c4 -16 12.667 -29.333 26 -40s28.333 -16 45 -16c10.667 0 20.167 2 28.5 6s15.833 9.33301 22.5 16l32 -32c-10.667 -10 -23.167 -18 -37.5 -24s-29.5 -9 -45.5 -9
c-18.667 0 -36.167 4.33301 -52.5 13s-30.166 20.334 -41.499 35.001c-10.667 -14.667 -24.167 -26.5 -40.5 -35.5s-34.166 -13.5 -53.499 -13.5c-32 0 -59.5 11.5 -82.5 34.5s-34.5 50.5 -34.5 82.5s11.5 59.5 34.5 82.5s50.5 34.5 82.5 34.5
c19.333 0 37.166 -4.5 53.499 -13.5s29.833 -20.5 40.5 -34.5c10.667 14.667 24.334 26.5 41.001 35.5s34.334 13.5 53.001 13.5c32.667 0 60.334 -11.667 83.001 -35s34 -50.666 34 -81.999v0zM209.996 182.999v3.00098v3v2.5v2.5v5.5v4.5
c-2.66699 17.333 -10.834 32.166 -24.501 44.499s-29.5 18.5 -47.5 18.5c-20 0 -37.333 -7.33301 -52 -22s-22 -32 -22 -52s7.33301 -37.167 22 -51.5s32 -21.5 52 -21.5c18 0 33.833 6 47.5 18s21.834 27 24.501 45v0zM394.996 220c-6 13.333 -15.167 24.5 -27.5 33.5
s-26.166 13.5 -41.499 13.5c-14.667 0 -28.334 -4.5 -41.001 -13.5s-21.667 -20.167 -27 -33.5h137v0z" />
    <glyph glyph-name="Racute" unicode="&#x154;" 
 />
    <glyph glyph-name="racute" unicode="&#x155;" 
 />
    <glyph glyph-name="Rcaron" unicode="&#x158;" 
 />
    <glyph glyph-name="rcaron" unicode="&#x159;" 
 />
    <glyph glyph-name="Sacute" unicode="&#x15a;" 
 />
    <glyph glyph-name="sacute" unicode="&#x15b;" 
 />
    <glyph glyph-name="Scedilla" unicode="&#x15e;" 
 />
    <glyph glyph-name="scedilla" unicode="&#x15f;" 
 />
    <glyph glyph-name="Scaron" unicode="&#x160;" 
 />
    <glyph glyph-name="scaron" unicode="&#x161;" horiz-adv-x="309" 
d="M162 301l-25.001 -34.999c-4.66699 4 -9.83398 7.33301 -15.501 10s-12.167 4 -19.5 4c-13.333 0 -24.833 -4.33301 -34.5 -13s-14.5 -18.334 -14.5 -29.001s2.83301 -19.167 8.5 -25.5s12.834 -11.166 21.501 -14.499l18 -5c13.333 -4.66699 24.333 -11.667 33 -21
s13 -20 13 -32c0 -16 -7.16699 -29.667 -21.5 -41s-31.833 -17 -52.5 -17c-8.66699 0 -17.167 1.16699 -25.5 3.5s-15.833 5.83301 -22.5 10.5l26 31c2.66699 -2 5.83398 -3.66699 9.50098 -5s7.83398 -2 12.501 -2c8 0 15.167 1.33301 21.5 4s9.5 7 9.5 13
c0 3.33301 -1.5 6.33301 -4.5 9s-6.5 4.66699 -10.5 6l-0.5 0.5c-0.333008 0.333008 -0.833008 0.5 -1.5 0.5l-14 6c-18.667 5.33301 -34.167 14.666 -46.5 27.999s-18.5 30.333 -18.5 51v1.5v1.5c0.666992 20 10.167 38.333 28.5 55s40.166 25 65.499 25
c11.333 0 22 -1.83301 32 -5.5s19.333 -8.5 28 -14.5v0zM480.999 575.001l-60 -99h-38l-61 99h39l41 -66l40 66h39v0z" />
    <glyph glyph-name="Tcedilla" unicode="&#x162;" 
 />
    <glyph glyph-name="tcedilla" unicode="&#x163;" 
 />
    <glyph glyph-name="Tcaron" unicode="&#x164;" 
 />
    <glyph glyph-name="tcaron" unicode="&#x165;" 
 />
    <glyph glyph-name="Uring" unicode="&#x16e;" 
 />
    <glyph glyph-name="uring" unicode="&#x16f;" 
 />
    <glyph glyph-name="udblacute" unicode="&#x170;" 
 />
    <glyph glyph-name="Udblacute" unicode="&#x171;" 
 />
    <glyph glyph-name="Ydieresis" unicode="&#x178;" horiz-adv-x="450" 
d="M715 712l-267 -341v-368h-147v356l-267 356h200l202 -287l245 313l34 -29v0zM391 737c0 -6.66699 -2.5 -12.5 -7.5 -17.5s-11.167 -7.5 -18.5 -7.5c-6.66699 0 -12.5 2.5 -17.5 7.5s-7.5 10.833 -7.5 17.5c0 7.33301 2.5 13.333 7.5 18s10.833 7 17.5 7
c7.33301 0 13.5 -2.33301 18.5 -7s7.5 -10.667 7.5 -18v0zM481 737c0 -6.66699 -2.33301 -12.5 -7 -17.5s-10.667 -7.5 -18 -7.5c-6.66699 0 -12.667 2.5 -18 7.5s-8 10.833 -8 17.5c0 7.33301 2.66699 13.333 8 18s11.333 7 18 7s12.5 -2.33301 17.5 -7
s7.5 -10.667 7.5 -18v0z" />
    <glyph glyph-name="Zacute" unicode="&#x179;" 
 />
    <glyph glyph-name="zacute" unicode="&#x17a;" 
 />
    <glyph glyph-name="Zdot" unicode="&#x17b;" 
 />
    <glyph glyph-name="zdot" unicode="&#x17c;" 
 />
    <glyph glyph-name="Zcaron" unicode="&#x17d;" 
 />
    <glyph glyph-name="zcaron" unicode="&#x17e;" 
 />
    <glyph glyph-name="florin" unicode="&#x192;" horiz-adv-x="559" 
d="M534 638l-44.002 -15.001c-0.666992 12 -5 22.333 -13 31s-18.667 13 -32 13c-15.333 0 -29.666 -5.5 -42.999 -16.5s-21.666 -24.167 -24.999 -39.5l-63 -297h106l-9 -43h-105l-79 -368c-5.33301 -27.333 -20 -50.666 -44 -69.999s-50 -29 -78 -29
c-22 0 -40.333 7 -55 21s-23 31 -25 51l44 14c0.666992 -11.333 5.16699 -21.333 13.5 -30s18.833 -13 31.5 -13c16 0 30.5 5.5 43.5 16.5s21.167 24.5 24.5 40.5l78 367h-38l9 43h38l63 297c6 27.333 21 50.833 45 70.5s49.667 29.5 77 29.5c22.667 0 41.167 -7 55.5 -21
s22.5 -31.333 24.5 -52v0z" />
    <glyph glyph-name="hungarumlaut" unicode="&#x2ba;" horiz-adv-x="243" 
d="M132 748l-84 -91l-45 41l75 102l54 -52v0zM255 748l-84 -91l-45 41l74 102l55 -52v0z" />
    <glyph glyph-name="tilde" unicode="&#x2c6;" horiz-adv-x="228" 
d="M218 744v-14.5c0 -5.66699 -0.333008 -11.167 -1 -16.5c-2 -12 -6 -22.833 -12 -32.5s-16.333 -14.5 -31 -14.5c-8 0 -14.5 1 -19.5 3s-9.83301 4.66699 -14.5 8c-1.33301 1.33301 -2.83301 2.5 -4.5 3.5s-3.16699 2.16699 -4.5 3.5l-48 34c-4 2.66699 -7.33301 5 -10 7
s-5 3.33301 -7 4c-1.33301 0.666992 -2.83301 1.16699 -4.5 1.5s-3.16699 0.5 -4.5 0.5c-8 0 -13.333 -4 -16 -12s-4 -16.667 -4 -26v-6v-6h-27c0 4 0.166992 9 0.5 15s0.833008 12 1.5 18c2 11.333 6 21.5 12 30.5s16 13.5 30 13.5c6 0 11.5 -0.833008 16.5 -2.5
s9.83301 -3.83398 14.5 -6.50098c2 -1.33301 4 -2.83301 6 -4.5s4 -3.16699 6 -4.5l46 -33l11 -7.5c3.33301 -2.33301 6.66602 -4.16602 9.99902 -5.49902c1.33301 0 2.5 -0.166992 3.5 -0.5s2.16699 -0.5 3.5 -0.5c7.33301 0 12.333 3.33301 15 10s4.33398 14 5.00098 22
v10v9h27v0z" />
    <glyph glyph-name="caron" unicode="&#x2c7;" horiz-adv-x="175" 
d="M167 740l-60 -99h-38l-61 99h39l41 -66l40 66h39v0z" />
    <glyph glyph-name="macron" unicode="&#x2c9;" horiz-adv-x="362" 
d="M276 622h-208v125h208v-125v0z" />
    <glyph glyph-name="breve" unicode="&#x2d8;" horiz-adv-x="362" 
d="M314 658l-11.001 -7.5c-7.33301 -5 -17.333 -10.5 -30 -16.5s-27.667 -11.5 -45 -16.5s-35.666 -7.5 -54.999 -7.5s-37.666 2.5 -54.999 7.5s-32.333 10.5 -45 16.5s-22.667 11.5 -30 16.5l-11 7.5l59 102l6.5 -4.5c4.33301 -3 10.5 -6.5 18.5 -10.5
c7.33301 -4 16 -7.5 26 -10.5s20.333 -4.5 31 -4.5c11.333 0 22 1.5 32 4.5s18.667 6.5 26 10.5s13.166 7.5 17.499 10.5l6.5 4.5l59 -102v0z" />
    <glyph glyph-name="dotaccent" unicode="&#x2d9;" horiz-adv-x="184" 
d="M144 734c0 -14.667 -5 -27 -15 -37s-22.333 -15 -37 -15c-14 0 -26.167 5 -36.5 15s-15.5 22.333 -15.5 37s5.16699 27 15.5 37s22.5 15 36.5 15c14.667 0 27 -5 37 -15s15 -22.333 15 -37v0z" />
    <glyph glyph-name="ring" unicode="&#x2da;" horiz-adv-x="148" 
d="M120 743c0 -13.333 -4.83301 -24.833 -14.5 -34.5s-21.167 -14.5 -34.5 -14.5s-24.833 4.83301 -34.5 14.5s-14.5 21.167 -14.5 34.5s4.83301 24.833 14.5 34.5s21.167 14.5 34.5 14.5s24.833 -4.83301 34.5 -14.5s14.5 -21.167 14.5 -34.5v0zM106 743
c0 10 -3.5 18.333 -10.5 25s-15.167 10 -24.5 10s-17.5 -3.33301 -24.5 -10s-10.5 -15 -10.5 -25c0 -9.33301 3.5 -17.5 10.5 -24.5s15.167 -10.5 24.5 -10.5s17.5 3.5 24.5 10.5s10.5 15.167 10.5 24.5v0z" />
    <glyph glyph-name="ogonek" unicode="&#x2db;" horiz-adv-x="243" 
d="M182 12l-76 -43l-45 108l66 23l55 -88v0z" />
    <glyph glyph-name="circumflex" unicode="&#x2dc;" horiz-adv-x="175" 
d="M167 616h-39l-40 66l-41 -66h-39l61 99h38l60 -99v0z" />
    <glyph glyph-name="Gamma" unicode="&#x393;" 
 />
    <glyph glyph-name="Theta" unicode="&#x398;" 
 />
    <glyph glyph-name="summation" unicode="&#x3a3;" 
 />
    <glyph glyph-name="Phi" unicode="&#x3a6;" 
 />
    <glyph glyph-name="Omega" unicode="&#x3a9;" 
 />
    <glyph glyph-name="alpha" unicode="&#x3b1;" 
 />
    <glyph glyph-name="delta" unicode="&#x3b4;" 
 />
    <glyph glyph-name="epsilon" unicode="&#x3b5;" 
 />
    <glyph glyph-name="pi" unicode="&#x3c0;" 
 />
    <glyph glyph-name="sigma" unicode="&#x3c3;" 
 />
    <glyph glyph-name="tau" unicode="&#x3c4;" 
 />
    <glyph glyph-name="phi" unicode="&#x3c6;" 
 />
    <glyph glyph-name="endash" unicode="&#x2013;" horiz-adv-x="465" 
d="M420 308h-375v55h375v-55v0z" />
    <glyph glyph-name="emdash" unicode="&#x2014;" horiz-adv-x="565" 
d="M520 308h-475v55h475v-55v0z" />
    <glyph glyph-name="underscoredbl" unicode="&#x2017;" 
 />
    <glyph glyph-name="quoteleft" unicode="&#x2018;" horiz-adv-x="130" 
d="M120 638c0 -14 -5.16602 -26.1719 -15.499 -36.5049s-22.5 -15.5 -36.5 -15.5c-14.667 0 -27 5.16699 -37 15.5s-15 22.5 -15 36.5c0 20 4 38 12 54s20 30.667 36 44c3.33301 2.66699 6.33301 4.5 9 5.5s5.33398 1.16699 8.00098 0.5
c5.33301 -0.666992 9.5 -2.66699 12.5 -6s4.5 -7.66602 4.5 -12.999c0 -1.33301 -0.166992 -2.66602 -0.5 -3.99902s-0.833008 -2.66602 -1.5 -3.99902s-1.66699 -2.66602 -3 -3.99902l-4 -4c-0.666992 -0.666992 -1.33398 -1.5 -2.00098 -2.5
s-1.33398 -1.83301 -2.00098 -2.5s-1.16699 -1.33398 -1.5 -2.00098l-0.5 -1c-1.33301 -2 -2.5 -3.66699 -3.5 -5s-1.83301 -2.66602 -2.5 -3.99902c12 -2.66699 22.167 -8.66699 30.5 -18s12.5 -20.666 12.5 -33.999v0z" />
    <glyph glyph-name="quoteright" unicode="&#x2019;" horiz-adv-x="136" 
d="M110 664c0 -20 -4.00293 -38.0068 -12.0029 -54.0068s-20 -30.667 -36 -44c-2.66699 -2.66699 -5.5 -4.5 -8.5 -5.5s-5.83301 -1.16699 -8.5 -0.5c-4.66699 0 -8.66699 1.83301 -12 5.5s-4.66602 7.83398 -3.99902 12.501c0 3.33301 0.666992 6.33301 2 9
s3.33301 5.33398 6 8.00098c0.666992 0.666992 1.33398 1.5 2.00098 2.5s1.33398 1.83301 2.00098 2.5s1.16699 1.33398 1.5 2.00098s0.5 1.33398 0.5 2.00098c1.33301 1.33301 2.5 2.83301 3.5 4.5s1.83301 2.83398 2.5 3.50098c-12 2.66699 -22.167 8.83398 -30.5 18.501
s-12.5 20.834 -12.5 33.501c0 14 5.16699 26.167 15.5 36.5s22.5 15.5 36.5 15.5c14.667 0 27 -5.16699 37 -15.5s15 -22.5 15 -36.5v0z" />
    <glyph glyph-name="quotesinglbase" unicode="&#x201a;" horiz-adv-x="117" 
d="M110 144c0 -20 -4.00293 -38.0068 -12.0029 -54.0068s-20 -30.667 -36 -44c-2.66699 -2.66699 -5.5 -4.5 -8.5 -5.5s-5.83301 -1.16699 -8.5 -0.5c-4.66699 0 -8.66699 1.83301 -12 5.5s-4.66602 7.83398 -3.99902 12.501c0 3.33301 0.666992 6.33301 2 9
s3.33301 5.33398 6 8.00098c0.666992 0.666992 1.33398 1.5 2.00098 2.5s1.33398 1.83301 2.00098 2.5s1.16699 1.33398 1.5 2.00098s0.5 1.33398 0.5 2.00098c1.33301 1.33301 2.5 2.83301 3.5 4.5s1.83301 2.83398 2.5 3.50098c-12 2.66699 -22.167 8.83398 -30.5 18.501
s-12.5 20.834 -12.5 33.501c0 14 5.16699 26.167 15.5 36.5s22.5 15.5 36.5 15.5c14.667 0 27 -5.16699 37 -15.5s15 -22.5 15 -36.5v0z" />
    <glyph glyph-name="quotedblleft" unicode="&#x201c;" horiz-adv-x="228" 
d="M100 638c0 -14 -5.16504 -26.1719 -15.498 -36.5049s-22.5 -15.5 -36.5 -15.5c-14.667 0 -26.834 5.16699 -36.501 15.5s-14.5 22.5 -14.5 36.5c0 20 3.83301 38 11.5 54s19.5 30.667 35.5 44c3.33301 2.66699 6.33301 4.5 9 5.5s5.33398 1.16699 8.00098 0.5
c5.33301 -0.666992 9.5 -2.66699 12.5 -6s4.5 -7.66602 4.5 -12.999c0 -1.33301 -0.166992 -2.66602 -0.5 -3.99902s-0.833008 -2.66602 -1.5 -3.99902s-1.66699 -2.66602 -3 -3.99902l-4 -4c-0.666992 -0.666992 -1.33398 -1.5 -2.00098 -2.5
s-1.33398 -1.83301 -2.00098 -2.5s-1.16699 -1.33398 -1.5 -2.00098l-0.5 -1c-1.33301 -2 -2.5 -3.66699 -3.5 -5s-1.83301 -2.66602 -2.5 -3.99902c12 -2.66699 22.167 -8.66699 30.5 -18s12.5 -20.666 12.5 -33.999v0zM210.002 637.995
c0 -14 -5.16602 -26.1719 -15.499 -36.5049s-22.5 -15.5 -36.5 -15.5c-14.667 0 -27 5.16699 -37 15.5s-15 22.5 -15 36.5c0 20 4 38 12 54s20 30.667 36 44c3.33301 2.66699 6.33301 4.5 9 5.5s5.33398 1.16699 8.00098 0.5c5.33301 -0.666992 9.5 -2.66699 12.5 -6
s4.5 -7.66602 4.5 -12.999c0 -1.33301 -0.166992 -2.66602 -0.5 -3.99902s-0.833008 -2.66602 -1.5 -3.99902s-1.66699 -2.66602 -3 -3.99902l-4 -4c-0.666992 -0.666992 -1.33398 -1.5 -2.00098 -2.5s-1.33398 -1.83301 -2.00098 -2.5s-1.16699 -1.33398 -1.5 -2.00098
l-0.5 -1c-1.33301 -2 -2.5 -3.66699 -3.5 -5s-1.83301 -2.66602 -2.5 -3.99902c12 -2.66699 22.167 -8.66699 30.5 -18s12.5 -20.666 12.5 -33.999v0z" />
    <glyph glyph-name="quotedblright" unicode="&#x201d;" horiz-adv-x="228" 
d="M110 664c0 -20 -4.00293 -38.0068 -12.0029 -54.0068s-20 -30.667 -36 -44c-2.66699 -2.66699 -5.5 -4.5 -8.5 -5.5s-5.83301 -1.16699 -8.5 -0.5c-4.66699 0 -8.66699 1.83301 -12 5.5s-4.66602 7.83398 -3.99902 12.501c0 3.33301 0.666992 6.33301 2 9
s3.33301 5.33398 6 8.00098c0.666992 0.666992 1.33398 1.5 2.00098 2.5s1.33398 1.83301 2.00098 2.5s1.16699 1.33398 1.5 2.00098s0.5 1.33398 0.5 2.00098c1.33301 1.33301 2.5 2.83301 3.5 4.5s1.83301 2.83398 2.5 3.50098c-12 2.66699 -22.167 8.83398 -30.5 18.501
s-12.5 20.834 -12.5 33.501c0 14 5.16699 26.167 15.5 36.5s22.5 15.5 36.5 15.5c14.667 0 27 -5.16699 37 -15.5s15 -22.5 15 -36.5v0zM219.997 663.993c0 -20 -4.00293 -38.0068 -12.0029 -54.0068s-20 -30.667 -36 -44c-2.66699 -2.66699 -5.5 -4.5 -8.5 -5.5
s-5.83301 -1.16699 -8.5 -0.5c-4.66699 0 -8.66699 1.83301 -12 5.5s-4.66602 7.83398 -3.99902 12.501c0 3.33301 0.666992 6.33301 2 9s3.33301 5.33398 6 8.00098c0.666992 0.666992 1.33398 1.5 2.00098 2.5s1.33398 1.83301 2.00098 2.5s1.16699 1.33398 1.5 2.00098
s0.5 1.33398 0.5 2.00098c1.33301 1.33301 2.5 2.83301 3.5 4.5s1.83301 2.83398 2.5 3.50098c-12 2.66699 -22.167 8.83398 -30.5 18.501s-12.5 20.834 -12.5 33.501c0 14 5.16699 26.167 15.5 36.5s22.5 15.5 36.5 15.5c14.667 0 27 -5.16699 37 -15.5s15 -22.5 15 -36.5
v0z" />
    <glyph glyph-name="quotedblbase" unicode="&#x201e;" horiz-adv-x="228" 
d="M110 144c0 -20 -4.00293 -38.0068 -12.0029 -54.0068s-20 -30.667 -36 -44c-2.66699 -2.66699 -5.5 -4.5 -8.5 -5.5s-5.83301 -1.16699 -8.5 -0.5c-4.66699 0 -8.66699 1.83301 -12 5.5s-4.66602 7.83398 -3.99902 12.501c0 3.33301 0.666992 6.33301 2 9
s3.33301 5.33398 6 8.00098c0.666992 0.666992 1.33398 1.5 2.00098 2.5s1.33398 1.83301 2.00098 2.5s1.16699 1.33398 1.5 2.00098s0.5 1.33398 0.5 2.00098c1.33301 1.33301 2.5 2.83301 3.5 4.5s1.83301 2.83398 2.5 3.50098c-12 2.66699 -22.167 8.83398 -30.5 18.501
s-12.5 20.834 -12.5 33.501c0 14 5.16699 26.167 15.5 36.5s22.5 15.5 36.5 15.5c14.667 0 27 -5.16699 37 -15.5s15 -22.5 15 -36.5v0zM219.997 143.993c0 -20 -4.00293 -38.0068 -12.0029 -54.0068s-20 -30.667 -36 -44c-2.66699 -2.66699 -5.5 -4.5 -8.5 -5.5
s-5.83301 -1.16699 -8.5 -0.5c-4.66699 0 -8.66699 1.83301 -12 5.5s-4.66602 7.83398 -3.99902 12.501c0 3.33301 0.666992 6.33301 2 9s3.33301 5.33398 6 8.00098c0.666992 0.666992 1.33398 1.5 2.00098 2.5s1.33398 1.83301 2.00098 2.5s1.16699 1.33398 1.5 2.00098
s0.5 1.33398 0.5 2.00098c1.33301 1.33301 2.5 2.83301 3.5 4.5s1.83301 2.83398 2.5 3.50098c-12 2.66699 -22.167 8.83398 -30.5 18.501s-12.5 20.834 -12.5 33.501c0 14 5.16699 26.167 15.5 36.5s22.5 15.5 36.5 15.5c14.667 0 27 -5.16699 37 -15.5s15 -22.5 15 -36.5
v0z" />
    <glyph glyph-name="dagger" unicode="&#x2020;" horiz-adv-x="265" 
d="M260 542l-57 -56l-44 41v-495l-25 -39l-28 40v495l-42 -42l-59 55l58 57l43 -46v175l28 30l25 -30v-175l44 46l57 -56v0z" />
    <glyph glyph-name="daggerdbl" unicode="&#x2021;" horiz-adv-x="269" 
d="M264 252l-57 -57l-48 45v-208l-25 -39l-28 40v200l-37 -39l-59 58l58 55l38 -40v262l-42 -44l-58 57l57 57l43 -46v174l28 30l25 -30v-171l45 43l55 -56l-55 -58l-45 43v-268l47 47l58 -55v0z" />
    <glyph glyph-name="bullet" unicode="&#x2022;" horiz-adv-x="300" 
d="M254 317c-11.333 -16 -25.5 -28.333 -42.5 -37s-34.167 -13.667 -51.5 -15h-4h-4c-12.667 0 -25.5 2 -38.5 6s-25.167 10.333 -36.5 19c-16 12 -28.333 26.333 -37 43s-13.667 33.667 -15 51v4v4c0 13.333 2 26.333 6 39s10.333 24.667 19 36c12 16 26.333 28.333 43 37
s33.667 13.667 51 15h4h4c13.333 0 26.333 -2 39 -6s24.667 -10.333 36 -19c16 -11.333 28.333 -25.5 37 -42.5s13.667 -34.167 15 -51.5v-4v-4c0 -12.667 -2 -25.5 -6 -38.5s-10.333 -25.167 -19 -36.5v0z" />
    <glyph glyph-name="ellipsis" unicode="&#x2026;" horiz-adv-x="387" 
d="M114 144c0 -14.667 -5 -27 -15 -37s-22.333 -15 -37 -15c-14 0 -26.167 5 -36.5 15s-15.5 22.333 -15.5 37s5.16699 27 15.5 37s22.5 15 36.5 15c14.667 0 27 -5 37 -15s15 -22.333 15 -37v0zM244 144c0 -14.667 -5 -27 -15 -37s-22.333 -15 -37 -15
c-14 0 -26.167 5 -36.5 15s-15.5 22.333 -15.5 37s5.16699 27 15.5 37s22.5 15 36.5 15c14.667 0 27 -5 37 -15s15 -22.333 15 -37v0zM374 144c0 -14.667 -5 -27 -15 -37s-22.333 -15 -37 -15c-14 0 -26.167 5 -36.5 15s-15.5 22.333 -15.5 37s5.16699 27 15.5 37
s22.5 15 36.5 15c14.667 0 27 -5 37 -15s15 -22.333 15 -37v0z" />
    <glyph glyph-name="perthousand" unicode="&#x2030;" horiz-adv-x="714" 
d="M682 585c0 -4 -1.16797 -6.99902 -3.50098 -8.99902s-4.83301 -3.33301 -7.5 -4h-0.5h-1.5c-2.66699 0.666992 -5.33398 2 -8.00098 4s-4 5 -4 9c0 11.333 -3.66699 19.5 -11 24.5s-16.666 7.5 -27.999 7.5c-3.33301 0 -7 -0.333008 -11 -1l-12 -2
c-11.333 -3.33301 -22 -8.83301 -32 -16.5s-17 -17.167 -21 -28.5l-122 -276h20h1.5h1.5c2 0.666992 3.83301 1.83398 5.5 3.50098s2.83398 3.5 3.50098 5.5c1.33301 3.33301 3 5.66602 5 6.99902s4.33301 2 7 2c3.33301 0 6.16602 -1.16699 8.49902 -3.5
s3.5 -5.16602 3.5 -8.49902v-1.5v-0.5c0 -0.666992 -0.166992 -1.16699 -0.5 -1.5s-0.5 -0.833008 -0.5 -1.5c-2.66699 -7.33301 -7.33398 -13.333 -14.001 -18s-13.667 -7 -21 -7h-31l-83 -163c-12 -24 -23 -42 -33 -54s-20 -21.333 -30 -28
c-1.33301 -0.666992 -2.66602 -1.5 -3.99902 -2.5s-2.66602 -1.83301 -3.99902 -2.5c-12.667 -7.33301 -25.667 -12.333 -39 -15s-26.666 -4 -39.999 -4c-16 0 -31.333 2 -46 6s-28 10 -40 18c-12.667 8 -23.834 17.667 -33.501 29s-17.167 23.333 -22.5 36
c-0.666992 1.33301 -1 2.5 -1 3.5v2.5c0 3.33301 1.33301 6.16602 4 8.49902s5.33398 3.5 8.00098 3.5h1.5c0.333008 0 0.833008 -0.333008 1.5 -1c2 0 3.66699 -0.666992 5 -2s2.33301 -3 3 -5c4.66699 -11.333 11 -21.666 19 -30.999s17.333 -17.333 28 -24
c10 -6.66699 21.333 -11.834 34 -15.501s25.667 -5.5 39 -5.5c11.333 0 22.666 1.16699 33.999 3.5s22.333 6.5 33 12.5c10.667 6.66699 21 16 31 28s18.667 26.333 26 43l83 159h-24c-2.66699 0 -5.16699 -0.666992 -7.5 -2s-4.16602 -3 -5.49902 -5
c-1.33301 -2.66699 -3 -4.66699 -5 -6s-4 -2 -6 -2c-2.66699 0.666992 -5.33398 2.16699 -8.00098 4.5s-4 5.16602 -4 8.49902c0 1.33301 0.166992 2.5 0.5 3.5s0.833008 1.83301 1.5 2.5c3.33301 6.66699 8 11.667 14 15s12.667 5 20 5h34l127 286
c7.33301 16.667 18 30.167 32 40.5s28.667 17.166 44 20.499c4 0.666992 7.83301 1.16699 11.5 1.5s7.16699 0.5 10.5 0.5c17.333 0 32.333 -4.66699 45 -14s19 -23.666 19 -42.999v0zM315.999 233.001c0 -10 -2.33301 -19.333 -7 -28s-11 -16.334 -19 -23.001
c-7.33301 -6.66699 -16.166 -11.667 -26.499 -15s-21.166 -5 -32.499 -5s-22.166 1.66699 -32.499 5s-19.166 8.33301 -26.499 15c-8 6.66699 -14.333 14.334 -19 23.001s-7 18 -7 28c0 10.667 2.33301 20.334 7 29.001s11 16.334 19 23.001
c7.33301 6.66699 16.166 11.667 26.499 15s21.166 5 32.499 5s22.166 -1.66699 32.499 -5s19.166 -8.33301 26.499 -15c8 -6.66699 14.333 -14.334 19 -23.001s7 -18.334 7 -29.001v0zM291.999 233.001c0 6.66699 -1.5 12.834 -4.5 18.501s-7.16699 10.5 -12.5 14.5
c-5.33301 4.66699 -11.833 8.33398 -19.5 11.001s-15.834 4 -24.501 4s-16.834 -1.33301 -24.501 -4s-14.167 -6.33398 -19.5 -11.001c-5.33301 -4 -9.5 -8.83301 -12.5 -14.5s-4.5 -11.834 -4.5 -18.501c0 -6 1.5 -11.833 4.5 -17.5s7.16699 -10.5 12.5 -14.5
c5.33301 -4.66699 11.833 -8.33398 19.5 -11.001s15.834 -4 24.501 -4s16.834 1.33301 24.501 4s14.167 6.33398 19.5 11.001c5.33301 4 9.5 8.83301 12.5 14.5s4.5 11.5 4.5 17.5v0z" />
    <glyph glyph-name="guilsinglleft" unicode="&#x2039;" horiz-adv-x="149" 
d="M136 246l-126 128l126 122v-57l-69 -66l69 -70v-57v0z" />
    <glyph glyph-name="guilsinglright" unicode="&#x203a;" horiz-adv-x="149" 
d="M138 374l-126 -128v57l69 70l-69 66v57l126 -122v0z" />
    <glyph glyph-name="exclamdbl" unicode="&#x203c;" 
 />
    <glyph glyph-name="nsuperior" unicode="&#x207f;" 
 />
    <glyph glyph-name="franc" unicode="&#x20a3;" 
 />
    <glyph glyph-name="peseta" unicode="&#x20a7;" 
 />
    <glyph glyph-name="trademark" unicode="&#x2122;" horiz-adv-x="450" 
d="M180 726h-57v-210h-34v210h-59v46h150v-46v0zM407 516h-36v206l-59 -121h-22l-59 121v-206h-36v256h55l52 -110l50 110h55v-256v0z" />
    <glyph glyph-name="arrowleft" unicode="&#x2190;" 
 />
    <glyph glyph-name="arrowup" unicode="&#x2191;" 
 />
    <glyph glyph-name="arrowright" unicode="&#x2192;" 
 />
    <glyph glyph-name="arrowdown" unicode="&#x2193;" 
 />
    <glyph glyph-name="arrowboth" unicode="&#x2194;" 
 />
    <glyph glyph-name="arrowupdn" unicode="&#x2195;" 
 />
    <glyph glyph-name="arrowupdnbase" unicode="&#x21a8;" 
 />
    <glyph glyph-name="partialdiff" unicode="&#x2202;" 
 />
    <glyph glyph-name="Delta" unicode="&#x2206;" 
 />
    <glyph glyph-name="product" unicode="&#x220f;" 
 />
    <glyph glyph-name="minus" unicode="&#x2212;" horiz-adv-x="352" 
d="M341 308h-334v44h334v-44v0z" />
    <glyph glyph-name="fraction" unicode="&#x2215;" 
 />
    <glyph glyph-name="periodcentered" unicode="&#x2219;" horiz-adv-x="230" 
d="M201 360c0 -22.667 -7.83301 -41.834 -23.5 -57.501s-34.834 -23.5 -57.501 -23.5s-41.834 7.83301 -57.501 23.5s-23.5 34.834 -23.5 57.501s7.83301 41.834 23.5 57.501s34.834 23.5 57.501 23.5s41.834 -7.83301 57.501 -23.5s23.5 -34.834 23.5 -57.501v0z" />
    <glyph glyph-name="radical" unicode="&#x221a;" 
 />
    <glyph glyph-name="infinity" unicode="&#x221e;" 
 />
    <glyph glyph-name="orthogonal" unicode="&#x221f;" 
 />
    <glyph glyph-name="intersection" unicode="&#x2229;" 
 />
    <glyph glyph-name="integral" unicode="&#x222b;" 
 />
    <glyph glyph-name="approxequal" unicode="&#x2248;" 
 />
    <glyph glyph-name="notequal" unicode="&#x2260;" 
 />
    <glyph glyph-name="equivalence" unicode="&#x2261;" 
 />
    <glyph glyph-name="lessequal" unicode="&#x2264;" 
 />
    <glyph glyph-name="greaterequal" unicode="&#x2265;" 
 />
    <glyph glyph-name="house" unicode="&#x2302;" 
 />
    <glyph glyph-name="revlogicalnot" unicode="&#x2310;" 
 />
    <glyph glyph-name="integraltp" unicode="&#x2320;" 
 />
    <glyph glyph-name="integralbt" unicode="&#x2321;" 
 />
    <glyph glyph-name="2500" unicode="&#x2500;" 
 />
    <glyph glyph-name="2502" unicode="&#x2502;" 
 />
    <glyph glyph-name="250c" unicode="&#x250c;" 
 />
    <glyph glyph-name="2510" unicode="&#x2510;" 
 />
    <glyph glyph-name="2514" unicode="&#x2514;" 
 />
    <glyph glyph-name="2518" unicode="&#x2518;" 
 />
    <glyph glyph-name="251c" unicode="&#x251c;" 
 />
    <glyph glyph-name="2524" unicode="&#x2524;" 
 />
    <glyph glyph-name="252c" unicode="&#x252c;" 
 />
    <glyph glyph-name="2534" unicode="&#x2534;" 
 />
    <glyph glyph-name="253c" unicode="&#x253c;" 
 />
    <glyph glyph-name="2550" unicode="&#x2550;" 
 />
    <glyph glyph-name="2551" unicode="&#x2551;" 
 />
    <glyph glyph-name="2552" unicode="&#x2552;" 
 />
    <glyph glyph-name="2553" unicode="&#x2553;" 
 />
    <glyph glyph-name="2554" unicode="&#x2554;" 
 />
    <glyph glyph-name="2555" unicode="&#x2555;" 
 />
    <glyph glyph-name="2556" unicode="&#x2556;" 
 />
    <glyph glyph-name="2557" unicode="&#x2557;" 
 />
    <glyph glyph-name="2558" unicode="&#x2558;" 
 />
    <glyph glyph-name="2559" unicode="&#x2559;" 
 />
    <glyph glyph-name="255a" unicode="&#x255a;" 
 />
    <glyph glyph-name="255b" unicode="&#x255b;" 
 />
    <glyph glyph-name="255c" unicode="&#x255c;" 
 />
    <glyph glyph-name="255d" unicode="&#x255d;" 
 />
    <glyph glyph-name="255e" unicode="&#x255e;" 
 />
    <glyph glyph-name="255f" unicode="&#x255f;" 
 />
    <glyph glyph-name="2560" unicode="&#x2560;" 
 />
    <glyph glyph-name="2561" unicode="&#x2561;" 
 />
    <glyph glyph-name="2562" unicode="&#x2562;" 
 />
    <glyph glyph-name="2563" unicode="&#x2563;" 
 />
    <glyph glyph-name="2564" unicode="&#x2564;" 
 />
    <glyph glyph-name="2565" unicode="&#x2565;" 
 />
    <glyph glyph-name="2566" unicode="&#x2566;" 
 />
    <glyph glyph-name="2567" unicode="&#x2567;" 
 />
    <glyph glyph-name="2568" unicode="&#x2568;" 
 />
    <glyph glyph-name="2569" unicode="&#x2569;" 
 />
    <glyph glyph-name="256a" unicode="&#x256a;" 
 />
    <glyph glyph-name="256b" unicode="&#x256b;" 
 />
    <glyph glyph-name="256c" unicode="&#x256c;" 
 />
    <glyph glyph-name="upblock" unicode="&#x2580;" 
 />
    <glyph glyph-name="dnblock" unicode="&#x2584;" 
 />
    <glyph glyph-name="block" unicode="&#x2588;" 
 />
    <glyph glyph-name="lfblock" unicode="&#x258c;" 
 />
    <glyph glyph-name="rtblock" unicode="&#x2590;" 
 />
    <glyph glyph-name="ltshade" unicode="&#x2591;" 
 />
    <glyph glyph-name="shade" unicode="&#x2592;" 
 />
    <glyph glyph-name="dkshade" unicode="&#x2593;" 
 />
    <glyph glyph-name="filledbox" unicode="&#x25a0;" 
 />
    <glyph glyph-name="filledrect" unicode="&#x25ac;" 
 />
    <glyph glyph-name="triagup" unicode="&#x25b2;" 
 />
    <glyph glyph-name="triagrt" unicode="&#x25ba;" 
 />
    <glyph glyph-name="triagdn" unicode="&#x25bc;" 
 />
    <glyph glyph-name="triaglf" unicode="&#x25c4;" 
 />
    <glyph glyph-name="lozenge" unicode="&#x25ca;" 
 />
    <glyph glyph-name="circle" unicode="&#x25cb;" 
 />
    <glyph glyph-name="invbullet" unicode="&#x25d8;" 
 />
    <glyph glyph-name="invcircle" unicode="&#x25d9;" 
 />
    <glyph glyph-name="smileface" unicode="&#x263a;" 
 />
    <glyph glyph-name="invsmileface" unicode="&#x263b;" 
 />
    <glyph glyph-name="sun" unicode="&#x263c;" 
 />
    <glyph glyph-name="female" unicode="&#x2640;" 
 />
    <glyph glyph-name="male" unicode="&#x2642;" 
 />
    <glyph glyph-name="spade" unicode="&#x2660;" 
 />
    <glyph glyph-name="club" unicode="&#x2663;" 
 />
    <glyph glyph-name="heart" unicode="&#x2665;" 
 />
    <glyph glyph-name="diamond" unicode="&#x2666;" 
 />
    <glyph glyph-name="musicalnote" unicode="&#x266a;" 
 />
    <glyph glyph-name="musicalnotedbl" unicode="&#x266b;" 
 />
    <glyph glyph-name="apple" unicode="&#xf000;" 
 />
    <glyph glyph-name="fi" unicode="&#xf001;" 
 />
    <glyph glyph-name="fl" unicode="&#xf002;" 
 />
    <glyph glyph-name="glyph1" horiz-adv-x="0" 
 />
    <glyph glyph-name="glyph2" 
 />
    <glyph glyph-name="degree" horiz-adv-x="306" 
d="M281 651c0 -34.667 -12.5 -64.334 -37.5 -89.001s-54.833 -37 -89.5 -37c-36 0 -66.5 12.333 -91.5 37s-37.5 54.334 -37.5 89.001s12.5 64.334 37.5 89.001s55.5 37 91.5 37c34.667 0 64.5 -12.333 89.5 -37s37.5 -54.334 37.5 -89.001v0zM198 651
c0 12.667 -4.33301 23.5 -13 32.5s-19.667 13.5 -33 13.5c-12.667 0 -23.5 -4.5 -32.5 -13.5s-13.5 -19.833 -13.5 -32.5s4.5 -23.667 13.5 -33s19.833 -14 32.5 -14c13.333 0 24.333 4.66699 33 14s13 20.333 13 33v0z" />
    <glyph glyph-name="bullet" horiz-adv-x="300" 
d="M254 317c-11.333 -16 -25.5 -28.333 -42.5 -37s-34.167 -13.667 -51.5 -15h-4h-4c-12.667 0 -25.5 2 -38.5 6s-25.167 10.333 -36.5 19c-16 12 -28.333 26.333 -37 43s-13.667 33.667 -15 51v4v4c0 13.333 2 26.333 6 39s10.333 24.667 19 36c12 16 26.333 28.333 43 37
s33.667 13.667 51 15h4h4c13.333 0 26.333 -2 39 -6s24.667 -10.333 36 -19c16 -11.333 28.333 -25.5 37 -42.5s13.667 -34.167 15 -51.5v-4v-4c0 -12.667 -2 -25.5 -6 -38.5s-10.333 -25.167 -19 -36.5v0z" />
    <glyph glyph-name="endash" horiz-adv-x="465" 
d="M420 308h-375v55h375v-55v0z" />
    </font>
</defs>
</svg>
